<svg width="778" height="972" viewBox="0 0 778 972" fill="none" xmlns="http://www.w3.org/2000/svg">
    <g id="End">
        <path id="Head"
            d="M433.149 27.4761C453.649 68.4761 425.149 87.9761 421.149 109.476L403.649 138.976L368.149 163.476C363.816 156.143 355.649 138.876 357.649 128.476C359.649 118.076 348.816 112.143 342.649 110.476C330.149 101.976 341.149 93.9761 336.149 86.9761C334.549 83.3761 336.316 71.1427 337.149 67.4761C333.549 64.6761 341.149 59.9761 341.649 55.4761C336.849 55.8761 337.149 44.4761 338.649 41.4761C345.649 27.4761 341.149 25.9761 350.649 16.4761C381.449 -14.3239 422.899 6.97608 433.149 27.4761Z"
            fill="#F2EFE6" stroke="#121212"></path>
        <path id="Mouth" d="M336.149 85.9761C341.149 84.4761 347.649 89.9761 358.649 85.9761" stroke="#121212"></path>
        <path id="Left elbow"
            d="M255.149 291.476C243.549 300.676 240.649 313.309 240.649 318.476L277.149 355.476C285.149 356.676 290.316 338.809 291.149 329.476C284.483 313.143 266.749 282.276 255.149 291.476Z"
            fill="#F2EFE6" stroke="#121212"></path>
        <g id="Biceps left">
            <path
                d="M253.649 311.976C246.149 292.976 262.749 244.976 279.149 240.976H295.649L307.649 283.976L298.149 321.476C294.983 328.976 283.449 339.876 272.649 337.476C261.849 335.076 256.316 320.643 253.649 311.976Z"
                fill="#F2EFE6"></path>
            <path
                d="M295.649 240.976H279.149C262.749 244.976 246.149 292.976 253.649 311.976C256.316 320.643 261.849 335.076 272.649 337.476M295.649 240.976L307.649 283.976L298.149 321.476C294.983 328.976 283.449 339.876 272.649 337.476M295.649 240.976C264.449 272.176 267.316 318.309 272.649 337.476"
                stroke="#121212"></path>
        </g>
        <path id="Body"
            d="M298.149 294.476C291.149 278.476 304.649 274.476 296.649 260.476L345.149 174.976L358.149 147.476C359.816 144.309 363.749 139.576 366.149 145.976C368.549 152.376 373.483 148.643 375.649 145.976L439.149 200.476V267.476L384.149 402.476L309.649 436.476L302.149 424.976C304.149 396.976 288.149 413.976 301.149 351.476C297.149 348.276 298.149 330.143 299.149 321.476C293.549 314.676 296.149 300.643 298.149 294.476Z"
            fill="#F2EFE6" stroke="#121212"></path>
        <path id="Pelvis right"
            d="M355.149 411.976C354.749 393.576 372.316 379.643 381.149 374.976L430.649 328.476C431.149 326.643 430.749 331.876 427.149 359.476C423.549 387.076 437.149 401.309 444.149 405.976L414.149 456.476L351.149 444.476C352.649 441.309 355.549 430.376 355.149 411.976Z"
            fill="#F2EFE6" stroke="#121212"></path>
        <path id="Adductors right"
            d="M437.149 399.976C415.549 401.176 395.816 417.476 388.649 425.476L410.149 436.476L450.649 411.476C455.149 407.143 458.749 398.776 437.149 399.976Z"
            fill="#F2EFE6" stroke="#121212"></path>
        <g id="Obliques right">
            <path
                d="M370.649 274.476C382.649 270.476 389.149 289.976 419.649 279.976C421.989 283.647 424.716 288.691 427.155 294.476C429.047 298.963 430.766 303.895 431.997 308.976C433.655 315.815 429.801 327.166 428.649 337.976C427.753 346.393 426.649 350.976 427.149 358.976C413.549 378.176 391.649 376.976 381.149 380.476C360.749 382.476 366.149 352.476 381.149 352.476C358.349 350.876 363.649 326.476 376.649 325.976C355.849 326.776 363.983 307.309 370.649 297.476C354.649 286.276 363.983 277.476 370.649 274.476Z"
                fill="#F2EFE6"></path>
            <path
                d="M419.649 279.976C389.149 289.976 382.649 270.476 370.649 274.476C363.983 277.476 354.649 286.276 370.649 297.476M419.649 279.976C421.989 283.647 424.716 288.691 427.155 294.476M419.649 279.976C402.049 300.376 379.649 300.143 370.649 297.476M370.649 297.476C363.983 307.309 355.849 326.776 376.649 325.976M376.649 325.976C363.649 326.476 358.349 350.876 381.149 352.476M376.649 325.976C391.32 319.809 421.959 304.876 427.155 294.476M381.149 352.476C366.149 352.476 360.749 382.476 381.149 380.476C391.649 376.976 413.549 378.176 427.149 358.976C426.649 350.976 427.753 346.393 428.649 337.976C429.801 327.166 433.655 315.815 431.997 308.976M381.149 352.476C395.048 346.476 424.676 329.376 431.997 308.976M427.155 294.476C429.047 298.963 430.766 303.895 431.997 308.976"
                stroke="#121212"></path>
        </g>
        <path id="Vector 2"
            d="M438.649 293.976C438.649 309.199 438.245 317.976 427.245 359.476C421.744 319.476 407.245 247.976 435.745 233.476L452.245 257.976C456.745 272.309 438.649 274.976 438.649 293.976Z"
            fill="#F2EFE6" stroke="#121212"></path>
        <path id="Elbow right"
            d="M439.149 319.976L459.649 309.976C470.316 306.476 492.749 304.776 497.149 325.976C501.549 347.176 496.983 355.809 494.149 357.476C484.816 352.476 458.749 349.876 447.149 349.476C435.549 349.076 438.483 324.309 439.149 319.976Z"
            fill="#F2EFE6" stroke="#121212"></path>
        <g id="Biceps right">
            <path
                d="M443.649 241.976L473.15 238.476L482.65 244.976L477.65 281.476L474.65 341.476L449.15 340.476C429.95 319.676 431.649 239.976 443.649 241.976Z"
                fill="#F2EFE6"></path>
            <path
                d="M473.15 238.476L443.649 241.976C431.649 239.976 429.95 319.676 449.15 340.476M473.15 238.476L482.65 244.976L477.65 281.476L474.65 341.476L449.15 340.476M473.15 238.476C456.65 256.476 435.95 269.676 449.15 340.476"
                stroke="#121212"></path>
        </g>
        <path id="Right triceps"
            d="M481.649 339.476C524.449 337.476 525.649 213.476 485.649 224.976C482.701 229.679 474.33 237.4 471.649 242.976C457.221 272.988 459.649 308.976 471.649 336.476C474.071 340.008 478.217 336.355 481.649 339.476Z"
            fill="#F2EFE6" stroke="#121212"></path>
        <path id="Shoulder right back"
            d="M502.649 229.976C507.849 214.376 501.483 197.476 497.649 190.976L471.649 200.476L470.649 242.976C476.249 244.576 495.649 235.143 502.649 229.976Z"
            fill="#F2EFE6" stroke="#121212"></path>
        <g id="ABS">
            <g id="Abs 7">
                <path
                    d="M355.149 439.476C351.316 443.476 341.649 449.376 333.649 440.976L315.149 437.476C308.149 426.476 302.149 371.976 312.149 378.976C316.346 381.914 323.149 382.476 326.149 383.976C332.149 381.476 346.149 377.476 359.149 382.976C354.149 393.976 362.649 421.976 355.149 439.476Z"
                    fill="#F2EFE6"></path>
                <path
                    d="M326.149 383.976C325.649 399.643 325.649 432.576 333.649 440.976M326.149 383.976C332.149 381.476 346.149 377.476 359.149 382.976C354.149 393.976 362.649 421.976 355.149 439.476C351.316 443.476 341.649 449.376 333.649 440.976M326.149 383.976C323.149 382.476 316.346 381.914 312.149 378.976C302.149 371.976 308.149 426.476 315.149 437.476L333.649 440.976"
                    stroke="#121212"></path>
            </g>
            <path id="Abs 6"
                d="M332.649 339.976C337.842 341.599 351.649 345.976 360.15 345.976C361.65 349.976 364.65 372.976 360.15 378.976C340.149 373.976 336.149 378.976 327.65 378.976C324.15 364.476 324.65 337.476 332.649 339.976Z"
                fill="#F2EFE6" stroke="#121212"></path>
            <path id="Abs 5"
                d="M323.649 345.476C323.15 351.976 321.649 364.976 323.649 371.476C325.649 377.976 325.149 379.976 325.149 379.976C322.749 380.776 314.349 377.476 311.149 373.476C303.149 363.476 304.149 340.776 310.649 339.476C313.149 338.976 324.198 338.338 323.649 345.476Z"
                fill="#F2EFE6" stroke="#121212"></path>
            <path id="Abs 4"
                d="M327.649 337.976C322.849 332.776 322.149 309.476 324.149 303.476C326.649 295.976 335.149 311.976 353.649 315.976C362.149 317.814 361.049 336.776 360.649 341.976C345.149 341.976 338.149 333.476 327.649 337.976Z"
                fill="#F2EFE6" stroke="#121212"></path>
            <path id="Abs 3"
                d="M322.649 334.976C320.343 325.752 320.149 307.309 321.649 302.476C321.649 298.476 316.249 301.276 306.649 306.476C301.149 314.976 303.449 332.676 308.649 337.476C316.649 332.476 324.149 340.976 322.649 334.976Z"
                fill="#F2EFE6" stroke="#121212"></path>
            <path id="Abs 1"
                d="M322.15 292.976C321.75 296.976 311.983 300.643 307.15 301.976C300.15 300.476 299.633 266.213 305.15 266.476C315.649 266.976 327.149 255.976 325.65 261.976C322.99 272.615 322.65 287.976 322.15 292.976Z"
                fill="#F2EFE6" stroke="#121212"></path>
            <path id="Abs 2"
                d="M358.649 312.476C352.249 314.476 325.149 299.476 326.149 292.976C325.149 277.976 327.877 268.976 329.149 261.976C330.149 256.476 350.149 275.976 357.149 272.476C355.649 285.476 366.649 305.976 358.649 312.476Z"
                fill="#F2EFE6" stroke="#121212"></path>
            <path id="Button"
                d="M329.149 380.976C329.149 382.401 328.729 383.67 328.073 384.571C327.418 385.473 326.555 385.976 325.649 385.976C324.744 385.976 323.881 385.473 323.225 384.571C322.57 383.67 322.149 382.401 322.149 380.976C322.149 379.551 322.57 378.282 323.225 377.381C323.881 376.48 324.744 375.976 325.649 375.976C326.555 375.976 327.418 376.48 328.073 377.381C328.729 378.282 329.149 379.551 329.149 380.976Z"
                fill="#F2EFE6" stroke="#121212"></path>
        </g>
        <path id="Trapezius right"
            d="M461.149 163.976C461.149 147.976 431.649 137.476 424.649 124.476L380.149 183.976L417.649 185.976L461.149 163.976Z"
            fill="#F2EFE6" stroke="#121212"></path>
        <path id="Shoulder right mid"
            d="M497.649 190.476C478.649 154.476 438.149 161.476 432.649 170.476L435.149 187.976C437.149 208.476 442.749 255.176 445.149 259.976C447.549 264.776 448.816 266.476 448.649 273.476C473.149 234.976 498.149 219.976 497.649 190.476Z"
            fill="#F2EFE6" stroke="#121212"></path>
        <path id="Shoulder right front"
            d="M432.649 170.476C424.149 175.476 410.983 175.143 400.649 175.476L383.649 187.976L406.649 219.976L431.649 221.976C432.649 230.476 427.149 241.476 445.149 259.976C449.549 194.376 470.649 176.476 432.649 170.476Z"
            fill="#F2EFE6" stroke="#121212"></path>
        <path id="Trapezius left"
            d="M340.649 164.476C327.849 165.676 317.816 173.143 312.649 176.476L315.149 180.976L348.649 177.976L364.149 154.476L353.649 153.476C353.149 157.976 345.149 164.054 340.649 164.476Z"
            fill="#F2EFE6" stroke="#121212"></path>
        <path id="Neck left"
            d="M357.649 127.976C351.149 141.976 351.65 156.143 353.15 166.976C354.65 177.809 363.057 166.205 365.15 158.976C370.649 139.976 357.649 127.976 357.649 127.976Z"
            fill="#F2EFE6" stroke="#121212"></path>
        <path id="Neck right"
            d="M423.149 103.976C391.149 133.476 367.149 142.976 366.149 167.976V181.976C370.316 182.476 383.549 182.276 403.149 177.476C427.649 171.476 429.649 129.476 424.649 123.476C420.649 118.676 421.983 108.476 423.149 103.976Z"
            fill="#F2EFE6" stroke="#121212"></path>
        <path id="Chest right"
            d="M326.149 247.976C363.349 299.576 423.149 247.476 431.649 221.976C419.149 218.476 416.649 210.976 411.649 202.476C403.274 188.239 403.708 178.908 389.649 173.476C378.649 169.976 362.39 173.476 359.149 175.976C341.649 189.476 322.649 233.976 326.149 247.976Z"
            fill="#F2EFE6" stroke="#121212"></path>
        <path id="Shoulder left"
            d="M281.149 261.976C266.349 199.176 315.649 163.476 329.649 177.476C317.983 194.643 294.649 233.376 294.649 250.976C294.649 268.576 285.649 265.643 281.149 261.976Z"
            fill="#F2EFE6" stroke="#121212"></path>
        <path id="Left chest"
            d="M290.65 251.976C287.05 217.176 304.649 177.476 340.649 170.476C350.649 168.532 355.149 176.325 350.149 180.976C332.949 196.976 323.316 232.976 321.149 251.976C318.149 261.476 313.649 264.476 302.149 264.476C295.649 264.476 292.483 257.309 290.65 251.976Z"
            fill="#F2EFE6" stroke="#121212"></path>
        <g id="Left forearm">
            <path
                d="M194.649 433.476C212.649 414.476 205.149 375.976 222.649 353.476C223.316 344.976 227.949 325.076 241.149 313.476C244.84 310.233 249.05 309.907 253.358 311.476C270.649 320.976 284.44 345.183 284.149 353.476C283.149 381.976 231.649 414.476 225.149 441.476L215.149 449.976L198.149 444.476L194.649 433.476Z"
                fill="#F2EFE6"></path>
            <path
                d="M225.149 441.476C231.649 414.476 283.149 381.976 284.149 353.476C284.44 345.183 270.649 320.976 253.358 311.476M225.149 441.476L215.149 449.976L198.149 444.476L194.649 433.476C212.649 414.476 205.149 375.976 222.649 353.476C223.316 344.976 227.949 325.076 241.149 313.476C244.84 310.233 249.05 309.907 253.358 311.476M225.149 441.476C225.149 406.476 280.649 377.976 253.358 311.476"
                stroke="#121212"></path>
        </g>
        <path id="Calf right 3"
            d="M485.149 815.976C486.149 832.476 476.149 853.976 477.149 877.476L470.649 885.976L450.649 893.976L442.649 852.976L434.649 756.976L439.649 700.476L468.149 725.976L487.149 776.476L485.149 815.976Z"
            fill="#F2EFE6" stroke="#121212"></path>
        <path id="Calf right 2"
            d="M436.649 718.976C450.649 723.376 439.649 832.976 456.649 881.476L449.149 893.476L441.149 874.476C445.649 859.976 415.149 765.976 416.149 752.976C416.38 749.976 411.649 744.976 412.649 738.476L436.649 718.976Z"
            fill="#F2EFE6" stroke="#121212"></path>
        <path id="Calf right 1"
            d="M485.149 814.976C508.149 718.976 460.149 718.976 446.149 682.976C446.149 682.976 442.412 682.482 442.149 683.476C432.356 720.518 487.584 749.727 485.149 814.976Z"
            fill="#FFE492" stroke="#121212"></path>
        <path id="Knee right"
            d="M388.649 668.976L423.149 655.976L438.649 667.976C438.649 667.976 444.128 680.976 445.649 688.976C446.898 695.543 446.649 705.976 446.649 705.976C446.649 722.476 415.582 750.976 410.149 736.976C397.149 703.476 379.649 694.476 388.649 668.976Z"
            fill="#F2EFE6" stroke="#121212"></path>
        <path id="Foot right"
            d="M477.149 876.976C463.549 884.176 445.149 874.976 441.149 874.976C447.149 918.976 424.149 923.476 410.149 937.476C398.772 948.853 391.649 952.309 390.649 953.976C373.649 962.976 393.149 976.976 399.649 963.976C396.149 973.976 407.149 970.976 408.649 965.476C408.649 974.976 417.649 970.976 418.649 965.476C418.649 974.476 427.149 969.976 428.149 965.476C428.149 975.476 437.816 969.809 441.149 965.476C452.749 969.076 458.649 954.476 469.149 947.976C491.549 939.976 486.816 922.976 481.649 915.476C486.649 901.976 474.149 898.476 477.149 876.976Z"
            fill="#F2EFE6" stroke="#121212"></path>
        <path id="Calf 3"
            d="M339.149 818.976C340.349 822.976 337.649 834.643 336.149 839.976L323.649 860.976L307.649 846.476L289.649 766.476L285.149 705.476L286.149 695.976L323.649 698.476L330.649 758.976C332.983 777.309 337.949 814.976 339.149 818.976Z"
            fill="#F2EFE6" stroke="#121212"></path>
        <path id="Knee left"
            d="M287.149 696.976C273.149 674.976 274.149 655.976 279.15 630.476C300.983 634.809 346.149 647.176 342.149 655.976C338.149 664.776 337.816 676.309 338.149 680.976L342.149 693.976C340.316 704.809 332.749 725.776 317.149 722.976C301.549 720.176 289.149 704.976 287.149 696.976Z"
            fill="#F2EFE6" stroke="#121212"></path>
        <path id="Calf Left 2"
            d="M286.149 694.976C288.15 762.476 306.649 751.476 315.149 847.976L298.149 839.976C301.65 814.976 271.15 747.976 286.149 694.976Z"
            fill="#F2EFE6" stroke="#121212"></path>
        <path id="Calf Left 1"
            d="M348.15 797.976C375.65 754.976 364.65 712.976 338.15 680.976C349.15 722.976 297.149 713.476 312.15 762.476C302.65 785.976 335.179 805.976 339.149 819.476C340.65 808.976 346.551 800.476 348.15 797.976Z"
            fill="#FFE492" stroke="#121212"></path>
        <path id="Quadriceps left 3"
            d="M343.149 629.476L330.149 523.976H373.649L371.649 588.976L351.149 626.976L343.149 629.476Z" fill="#F2EFE6"
            stroke="#121212"></path>
        <path id="Quadriceps Left 4"
            d="M315.149 631.476L291.649 513.976L334.649 523.976L336.649 626.476L315.149 631.476Z" fill="#F2EFE6"
            stroke="#121212"></path>
        <path id="Hamstering left"
            d="M370.15 567.976C373.316 580.143 377.75 605.376 370.15 608.976C362.675 612.517 345.649 646.976 340.149 660.976C336.149 643.476 360.541 592.335 370.15 567.976Z"
            fill="#FFE492" stroke="#121212"></path>
        <path id="Quadriceps Right 3"
            d="M451.649 532.976C459.656 549.562 459.119 567.143 457.619 575.976L454.649 625.476L440.149 672.976L426.649 669.476L420.149 575.476V517.476C425.483 515.309 444.649 518.476 451.649 532.976Z"
            fill="#F2EFE6" stroke="#121212"></path>
        <path id="Hamstering right"
            d="M431.65 667.476C446.45 660.276 455.983 592.643 458.149 560.976C471.149 619.476 442.15 655.476 446.65 684.476C431.649 690.476 431.483 679.309 431.65 667.476Z"
            fill="#FFE492" stroke="#121212"></path>
        <path id="Quadriceps Right 2"
            d="M426.149 682.476C400.649 689.476 399.649 659.976 389.649 644.476L386.149 517.476L421.149 518.976C466.149 537.976 437.149 679.456 426.149 682.476Z"
            fill="#FAA805" stroke="#121212"></path>
        <path id="Quadriceps  Right 1"
            d="M385.65 676.976C357.149 652.976 369.149 583.976 362.65 534.476C360.483 524.309 363.849 506.776 394.649 517.976C419.649 547.476 394.649 640.476 398.149 663.976C400.949 682.776 390.983 680.476 385.65 676.976Z"
            fill="#FAA805" stroke="#121212"></path>
        <path id="Quadriceps Left 2"
            d="M322.149 630.976C329.349 616.976 323.149 550.143 319.149 518.476L335.149 525.976C360.649 554.976 345.412 638.637 343.149 654.476C341.649 664.976 328.149 665.876 325.649 662.976C321.483 658.143 314.949 644.976 322.149 630.976Z"
            fill="#F2EFE6" stroke="#121212"></path>
        <g id="Quadriceps Left 1">
            <path
                d="M278.649 632.976C250.249 598.576 265.149 535.476 275.149 508.476C285.483 505.309 305.449 502.776 302.649 517.976C300.802 528.003 298.449 532.504 305.649 558.976C308.649 574.476 322.2 610.117 325.149 619.476C331.149 641.076 325.149 656.945 320.149 658.976C309.483 663.309 299.391 666.25 292.649 657.976C281.649 644.476 283.149 637.476 278.649 632.976Z"
                fill="#FAA805"></path>
            <path
                d="M278.649 632.976C250.249 598.576 265.149 535.476 275.149 508.476C285.483 505.309 305.449 502.776 302.649 517.976C300.802 528.003 298.449 532.504 305.649 558.976M278.649 632.976C283.149 637.476 281.649 644.476 292.649 657.976C299.391 666.25 309.483 663.309 320.149 658.976C325.149 656.945 331.149 641.076 325.149 619.476C322.2 610.117 308.649 574.476 305.649 558.976M278.649 632.976C287.149 603.976 305.649 608.976 305.649 558.976"
                stroke="#121212"></path>
        </g>
        <g id="Foot left">
            <path
                d="M336.149 839.976C324.549 844.776 306.149 844.976 298.149 839.976C298.875 848.832 300.149 855.476 298.149 862.976C282.649 872.976 268.345 888.774 257.871 893.669C236.872 899.032 228.692 913.488 232.149 914.476C230.149 918.476 232.983 919.476 234.649 919.476C243.849 927.876 254.483 922.309 258.649 918.476C277.149 922.476 288.149 904.739 292.649 904.976C315.449 906.176 335.33 910.976 342.649 895.476C351.149 877.476 332.649 868.476 336.149 839.976Z"
                fill="#F2EFE6"></path>
            <path
                d="M234.649 919.476C243.849 927.876 254.483 922.309 258.649 918.476C277.149 922.476 288.149 904.739 292.649 904.976C315.449 906.176 335.33 910.976 342.649 895.476C351.149 877.476 332.649 868.476 336.149 839.976C324.549 844.776 306.149 844.976 298.149 839.976C298.875 848.832 300.149 855.476 298.149 862.976C282.649 872.976 268.345 888.774 257.871 893.669C236.872 899.032 228.692 913.488 232.149 914.476M234.649 919.476C232.983 919.476 230.149 918.476 232.149 914.476M234.649 919.476C233.483 918.143 233.449 914.276 242.649 909.476C254.149 903.476 254.149 903.476 259.149 901.976M232.149 914.476C233.816 910.976 240.549 904.076 250.149 900.476"
                stroke="#121212"></path>
        </g>
        <g id="Pants">
            <path
                d="M362.649 534.476C339.849 536.476 292.649 520.976 275.149 508.476C271.149 498.476 301.749 466.176 302.149 424.976C305.126 427.003 308.442 428.747 312 430.219C325.141 435.655 341.589 437.371 356.5 435.859C369.422 434.549 381.54 430.839 389 425C404 423.167 434.949 417.876 440.149 411.476C445.349 405.076 454.316 416.143 458.149 422.476L454.649 488.976L430.649 520.976C418.149 524.476 366.149 517.476 362.649 534.476Z"
                fill="#424651"></path>
            <path
                d="M362.649 534.476C339.849 536.476 292.649 520.976 275.149 508.476C271.149 498.476 301.749 466.176 302.149 424.976C305.126 427.003 308.442 428.747 312 430.219M362.649 534.476C366.149 517.476 418.149 524.476 430.649 520.976L454.649 488.976L458.149 422.476C454.316 416.143 445.349 405.076 440.149 411.476C434.949 417.876 404 423.167 389 425M362.649 534.476C333.969 518.457 316.933 458.297 312 430.219M362.649 534.476C351.569 498.057 375.716 446.325 389 425M389 425C381.54 430.839 369.422 434.549 356.5 435.859C341.589 437.371 325.141 435.655 312 430.219"
                stroke="#121212"></path>
        </g>
        <g id="Barbel">
            <path id="Barbel 1"
                d="M6.64924 470.976C9.14924 471.476 19.6492 471.976 19.6492 471.976L22.1492 450.476C22.1492 450.476 13.6492 448.976 9.14943 449.476C-1.35046 450.976 -2.35059 466.476 6.64924 470.976Z"
                fill="#7C7C7C" stroke="#121212"></path>
            <g id="Plate Left">
                <path id="Ellipse 4"
                    d="M109.149 567.976H94.6494C52.5052 567.976 18.1494 524.443 18.1494 470.476C18.1494 416.509 52.5052 372.976 94.6494 372.976H94.7351H94.8204H94.9054H94.9901H95.0745H95.1585H95.2423H95.3257H95.4087H95.4915H95.5739H95.656H95.7378H95.8193H95.9004H95.9813H96.0618H96.142H96.2219H96.3014H96.3807H96.4596H96.5383H96.6166H96.6946H96.7723H96.8497H96.9267H97.0035H97.0799H97.1561H97.2319H97.3074H97.3827H97.4576H97.5322H97.6065H97.6805H97.7542H97.8276H97.9007H97.9734H98.0459H98.1181H98.19H98.2616H98.3329H98.4039H98.4746H98.545H98.6151H98.6849H98.7544H98.8236H98.8925H98.9612H99.0295H99.0975H99.1653H99.2328H99.2999H99.3668H99.4334H99.4997H99.5658H99.6315H99.6969H99.7621H99.827H99.8916H99.9559H100.02H100.084H100.147H100.21H100.273H100.336H100.398H100.46H100.522H100.584H100.645H100.706H100.766H100.827H100.887H100.947H101.006H101.066H101.125H101.184H101.242H101.3H101.358H101.416H101.473H101.53H101.587H101.644H101.7H101.756H101.812H101.868H101.923H101.978H102.033H102.087H102.142H102.196H102.249H102.303H102.356H102.409H102.462H102.514H102.566H102.618H102.67H102.722H102.773H102.824H102.874H102.925H102.975H103.025H103.074H103.124H103.173H103.222H103.271H103.319H103.367H103.415H103.463H103.51H103.558H103.605H103.651H103.698H103.744H103.79H103.836H103.881H103.927H103.972H104.017H104.061H104.105H104.15H104.193H104.237H104.281H104.324H104.367H104.409H104.452H104.494H104.536H104.578H104.619H104.661H104.702H104.743H104.783H104.824H104.864H104.904H104.944H104.983H105.023H105.062H105.101H105.139H105.178H105.216H105.254H105.292H105.329H105.367H105.404H105.441H105.478H105.514H105.55H105.586H105.622H105.658H105.693H105.729H105.764H105.798H105.833H105.867H105.902H105.935H105.969H106.003H106.036H106.069H106.102H106.135H106.168H106.2H106.232H106.264H106.296H106.327H106.359H106.39H106.421H106.452H106.482H106.512H106.543H106.573H106.602H106.632H106.661H106.691H106.72H106.748H106.777H106.806H106.834H106.862H106.89H106.918H106.945H106.972H107H107.026H107.053H107.08H107.106H107.133H107.159H107.184H107.21H107.236H107.261H107.286H107.311H107.336H107.361H107.385H107.409H107.433H107.457H107.481H107.505H107.528H107.551H107.574H107.597H107.62H107.643H107.665H107.687H107.709H107.731H107.753H107.775H107.796H107.817H107.838H107.859H107.88H107.901H107.921H107.941H107.961H107.981H108.001H108.021H108.04H108.06H108.079H108.098H108.117H108.136H108.154H108.173H108.191H108.209H108.227H108.245H108.262H108.28H108.297H108.314H108.332H108.348H108.365H108.382H108.398H108.415H108.431H108.447H108.463H108.479H108.494H108.51H108.525H108.54H108.556H108.57H108.585H108.6H108.615H108.629H108.643H108.657H108.671H108.685H108.699H108.713H108.726H108.739H108.753H108.766H108.779H108.792H108.804H108.817H108.829H108.842H108.854H108.866H108.878H108.89H108.902H108.913H108.925H108.936H108.947H108.958H108.969H108.98H108.991H109.002H109.012H109.023H109.033H109.043H109.053H109.063H109.073H109.083H109.093H109.102H109.112H109.121H109.13H109.139H109.148H109.149V567.976Z"
                    fill="#494949" stroke="#121212"></path>
                <path id="Ellipse 3"
                    d="M185.149 470.476C185.149 524.443 150.794 567.976 108.649 567.976C66.5052 567.976 32.1494 524.443 32.1494 470.476C32.1494 416.509 66.5052 372.976 108.649 372.976C150.794 372.976 185.149 416.509 185.149 470.476Z"
                    fill="#494949" stroke="#121212"></path>
            </g>
            <g id="Barbel hole">
                <path id="Ellipse 2"
                    d="M122.649 492.976H122.643H122.635H122.627H122.619H122.611H122.603H122.595H122.586H122.578H122.569H122.561H122.552H122.543H122.535H122.526H122.517H122.508H122.498H122.489H122.48H122.47H122.461H122.451H122.442H122.432H122.422H122.412H122.402H122.392H122.381H122.371H122.361H122.35H122.339H122.329H122.318H122.307H122.296H122.285H122.274H122.263H122.251H122.24H122.228H122.216H122.205H122.193H122.181H122.169H122.157H122.144H122.132H122.12H122.107H122.094H122.082H122.069H122.056H122.043H122.029H122.016H122.003H121.989H121.976H121.962H121.948H121.934H121.92H121.906H121.892H121.878H121.863H121.848H121.834H121.819H121.804H121.789H121.774H121.759H121.743H121.728H121.712H121.697H121.681H121.665H121.649H121.633H121.617H121.6H121.584H121.567H121.55H121.534H121.517H121.5H121.482H121.465H121.448H121.43H121.412H121.395H121.377H121.359H121.341H121.322H121.304H121.285H121.267H121.248H121.229H121.21H121.191H121.172H121.152H121.133H121.113H121.093H121.073H121.053H121.033H121.013H120.993H120.972H120.951H120.931H120.91H120.889H120.867H120.846H120.825H120.803H120.781H120.759H120.737H120.715H120.693H120.671H120.648H120.625H120.603H120.58H120.557H120.533H120.51H120.486H120.463H120.439H120.415H120.391H120.367H120.343H120.318H120.293H120.269H120.244H120.219H120.194H120.168H120.143H120.117H120.091H120.065H120.039H120.013H119.987H119.96H119.934H119.907H119.88H119.853H119.826H119.798H119.771H119.743H119.715H119.687H119.659H119.631H119.602H119.574H119.545H119.516H119.487H119.458H119.428H119.399H119.369H119.339H119.309H119.279H119.249H119.218H119.188H119.157H119.126H119.095H119.063H119.032H119H118.969H118.937H118.905H118.872H118.84H118.807H118.775H118.742H118.709H118.676H118.642H118.609H118.575H118.541H118.507H118.473H118.438H118.404H118.369H118.334H118.299H118.264H118.229H118.193H118.157H118.121H118.085H118.049H118.013H117.976H117.939H117.902H117.865H117.828H117.79H117.753H117.715H117.677H117.639H117.6H117.562H117.523H117.484H117.445H117.406H117.366H117.327H117.287H117.247H117.207H117.167H117.126H117.085H117.045H117.003H116.962H116.921H116.879H116.837H116.795H116.753H116.711H116.668H116.626H116.583H116.54H116.496H116.453H116.409H116.365H116.321H116.277H116.233H116.188H116.143H116.098H116.053H116.008H115.962H115.916H115.87H115.824H115.778H115.731H115.684H115.637H115.59H115.543H115.495H115.448H115.4H115.352H115.303H115.255H115.206H115.157H115.108H115.059H115.009H114.959H114.91H114.859H114.809H114.758H114.708H114.657H114.606H114.554H114.503H114.451H114.399H114.347H114.294H114.242H114.189H114.136H114.083H114.029H113.976H113.922H113.868H113.813H113.759H113.704H113.649C104.63 492.976 97.1494 483.902 97.1494 472.476C97.1494 461.05 104.63 451.976 113.649 451.976H113.675H113.701H113.727H113.753H113.779H113.805H113.831H113.857H113.883H113.909H113.935H113.961H113.987H114.013H114.039H114.066H114.092H114.118H114.144H114.17H114.196H114.222H114.249H114.275H114.301H114.327H114.353H114.38H114.406H114.432H114.458H114.485H114.511H114.537H114.563H114.59H114.616H114.642H114.668H114.695H114.721H114.747H114.774H114.8H114.826H114.853H114.879H114.905H114.932H114.958H114.984H115.011H115.037H115.063H115.09H115.116H115.142H115.169H115.195H115.221H115.248H115.274H115.3H115.327H115.353H115.379H115.406H115.432H115.458H115.485H115.511H115.537H115.564H115.59H115.616H115.643H115.669H115.695H115.722H115.748H115.774H115.8H115.827H115.853H115.879H115.905H115.932H115.958H115.984H116.01H116.037H116.063H116.089H116.115H116.141H116.168H116.194H116.22H116.246H116.272H116.298H116.324H116.35H116.377H116.403H116.429H116.455H116.481H116.507H116.533H116.559H116.585H116.611H116.637H116.663H116.689H116.715H116.74H116.766H116.792H116.818H116.844H116.87H116.896H116.921H116.947H116.973H116.999H117.024H117.05H117.076H117.101H117.127H117.153H117.178H117.204H117.229H117.255H117.28H117.306H117.331H117.357H117.382H117.408H117.433H117.459H117.484H117.509H117.535H117.56H117.585H117.61H117.636H117.661H117.686H117.711H117.736H117.761H117.786H117.811H117.836H117.861H117.886H117.911H117.936H117.961H117.986H118.011H118.036H118.06H118.085H118.11H118.135H118.159H118.184H118.208H118.233H118.258H118.282H118.307H118.331H118.355H118.38H118.404H118.428H118.453H118.477H118.501H118.525H118.55H118.574H118.598H118.622H118.646H118.67H118.694H118.718H118.742H118.765H118.789H118.813H118.837H118.86H118.884H118.908H118.931H118.955H118.978H119.002H119.025H119.049H119.072H119.095H119.119H119.142H119.165H119.188H119.211H119.234H119.257H119.28H119.303H119.326H119.349H119.372H119.395H119.417H119.44H119.463H119.485H119.508H119.53H119.553H119.575H119.598H119.62H119.642H119.665H119.687H119.709H119.731H119.753H119.775H119.797H119.819H119.841H119.863H119.885H119.906H119.928H119.95H119.971H119.993H120.014H120.036H120.057H120.078H120.1H120.121H120.142H120.163H120.184H120.205H120.226H120.247H120.268H120.289H120.31H120.33H120.351H120.372H120.392H120.413H120.433H120.453H120.474H120.494H120.514H120.534H120.554H120.574H120.594H120.614H120.634H120.654H120.674H120.694H120.713H120.733H120.752H120.772H120.791H120.81H120.83H120.849H120.868H120.887H120.906H120.925H120.944H120.963H120.982H121H121.019H121.038H121.056H121.075H121.093H121.112H121.13H121.148H121.166H121.184H121.202H121.22H121.238H121.256H121.274H121.291H121.309H121.327H121.344H121.362H121.379H121.396H121.413H121.431H121.448H121.465H121.482H121.498H121.515H121.532H121.549H121.565H121.582H121.598H121.615H121.631H121.647H121.663H121.679H121.695H121.711H121.727H121.743H121.759H121.774H121.79H121.806H121.821H121.836H121.852H121.867H121.882H121.897H121.912H121.927H121.942H121.956H121.971H121.986H122H122.015H122.029H122.043H122.058H122.072H122.086H122.1H122.114H122.127H122.141H122.155H122.168H122.182H122.195H122.208H122.222H122.235H122.248H122.261H122.274H122.287H122.299H122.312H122.325H122.337H122.349H122.362H122.374H122.386H122.398H122.41H122.422H122.434H122.446H122.457H122.469H122.48H122.492H122.503H122.514H122.525H122.536H122.547H122.558H122.569H122.579H122.59H122.6H122.611H122.621H122.631H122.641H122.649V492.976Z"
                    fill="#7C7C7C" stroke="#121212"></path>
                <path id="Ellipse 1"
                    d="M138.149 472.476C138.149 483.902 130.669 492.976 121.649 492.976C112.63 492.976 105.149 483.902 105.149 472.476C105.149 461.05 112.63 451.976 121.649 451.976C130.669 451.976 138.149 461.05 138.149 472.476Z"
                    fill="#7C7C7C" stroke="#121212"></path>
            </g>
            <path id="Barbel 2"
                d="M532.649 529.476L120.149 480.976C112.149 476.976 115.149 464.976 122.149 464.976L535.149 511.476L532.649 529.476Z"
                fill="#7C7C7C" stroke="#121212"></path>
            <g id="Plate right">
                <path id="Ellipse 6"
                    d="M618.149 649.976H599.149C577.421 649.976 557.683 636.46 543.353 614.47C529.027 592.485 520.149 562.083 520.149 528.476C520.149 494.869 529.027 464.467 543.353 442.482C557.683 420.492 577.421 406.976 599.149 406.976H599.251H599.352H599.453H599.553H599.653H599.753H599.852H599.952H600.05H600.149H600.247H600.344H600.442H600.539H600.635H600.732H600.828H600.923H601.019H601.114H601.208H601.303H601.397H601.49H601.584H601.676H601.769H601.861H601.953H602.045H602.136H602.227H602.318H602.408H602.498H602.588H602.677H602.766H602.855H602.943H603.031H603.119H603.207H603.294H603.38H603.467H603.553H603.639H603.724H603.809H603.894H603.979H604.063H604.147H604.23H604.314H604.396H604.479H604.561H604.643H604.725H604.806H604.887H604.968H605.049H605.129H605.209H605.288H605.367H605.446H605.525H605.603H605.681H605.759H605.836H605.913H605.99H606.066H606.142H606.218H606.294H606.369H606.444H606.519H606.593H606.667H606.741H606.814H606.887H606.96H607.033H607.105H607.177H607.249H607.32H607.391H607.462H607.532H607.603H607.673H607.742H607.812H607.881H607.949H608.018H608.086H608.154H608.222H608.289H608.356H608.423H608.489H608.555H608.621H608.687H608.752H608.818H608.882H608.947H609.011H609.075H609.139H609.202H609.265H609.328H609.391H609.453H609.515H609.577H609.638H609.7H609.761H609.821H609.882H609.942H610.002H610.061H610.121H610.18H610.239H610.297H610.355H610.413H610.471H610.529H610.586H610.643H610.699H610.756H610.812H610.868H610.924H610.979H611.034H611.089H611.144H611.198H611.252H611.306H611.359H611.413H611.466H611.519H611.571H611.624H611.676H611.728H611.779H611.83H611.881H611.932H611.983H612.033H612.083H612.133H612.183H612.232H612.281H612.33H612.379H612.427H612.475H612.523H612.571H612.618H612.665H612.712H612.759H612.805H612.851H612.897H612.943H612.989H613.034H613.079H613.124H613.168H613.213H613.257H613.301H613.344H613.388H613.431H613.474H613.516H613.559H613.601H613.643H613.685H613.727H613.768H613.809H613.85H613.891H613.931H613.971H614.011H614.051H614.091H614.13H614.169H614.208H614.247H614.285H614.324H614.362H614.399H614.437H614.474H614.512H614.549H614.585H614.622H614.658H614.694H614.73H614.766H614.801H614.837H614.872H614.907H614.941H614.976H615.01H615.044H615.078H615.112H615.145H615.178H615.211H615.244H615.277H615.309H615.341H615.373H615.405H615.437H615.468H615.499H615.53H615.561H615.592H615.622H615.652H615.683H615.712H615.742H615.772H615.801H615.83H615.859H615.888H615.916H615.944H615.973H616H616.028H616.056H616.083H616.11H616.137H616.164H616.191H616.217H616.244H616.27H616.296H616.322H616.347H616.372H616.398H616.423H616.448H616.472H616.497H616.521H616.545H616.569H616.593H616.617H616.64H616.663H616.687H616.709H616.732H616.755H616.777H616.8H616.822H616.844H616.865H616.887H616.908H616.93H616.951H616.972H616.992H617.013H617.033H617.054H617.074H617.094H617.114H617.133H617.153H617.172H617.191H617.21H617.229H617.248H617.266H617.285H617.303H617.321H617.339H617.357H617.374H617.392H617.409H617.426H617.443H617.46H617.477H617.494H617.51H617.526H617.542H617.558H617.574H617.59H617.606H617.621H617.636H617.651H617.666H617.681H617.696H617.71H617.725H617.739H617.753H617.767H617.781H617.795H617.809H617.822H617.835H617.849H617.862H617.875H617.887H617.9H617.913H617.925H617.937H617.95H617.962H617.973H617.985H617.997H618.008H618.02H618.031H618.042H618.053H618.064H618.075H618.085H618.096H618.106H618.117H618.127H618.137H618.147H618.149V649.976Z"
                    fill="#494949" stroke="#121212"></path>
                <path id="Ellipse 5"
                    d="M696.149 528.476C696.149 562.083 687.272 592.485 672.945 614.47C658.616 636.46 638.878 649.976 617.149 649.976C595.421 649.976 575.683 636.46 561.353 614.47C547.027 592.485 538.149 562.083 538.149 528.476C538.149 494.869 547.027 464.467 561.353 442.482C575.683 420.492 595.421 406.976 617.149 406.976C638.878 406.976 658.616 420.492 672.945 442.482C687.272 464.467 696.149 494.869 696.149 528.476Z"
                    fill="#494949" stroke="#121212"></path>
            </g>
            <path id="Barbel 3"
                d="M703.585 525.472L703.592 525.473L703.599 525.474L767.599 531.974C770.679 532.286 773.048 533.922 774.662 536.527C776.286 539.147 777.15 542.757 777.15 546.976C777.15 551.134 775.569 555.033 773.381 557.824C771.173 560.641 768.447 562.213 766.201 561.979C763.702 561.718 747.328 559.968 731.578 558.283C723.703 557.441 715.984 556.615 710.234 555.999L703.312 555.258L701.383 555.052L700.876 554.998L700.747 554.984L700.714 554.98L700.706 554.979L700.705 554.979L700.703 554.979L700.703 554.979L700.693 554.978L700.653 554.973L700.494 554.955L699.874 554.884C699.33 554.821 698.532 554.729 697.514 554.611C695.478 554.376 692.563 554.038 689.043 553.628C682.004 552.808 672.552 551.698 662.896 550.542C653.241 549.386 643.383 548.183 635.533 547.175C627.666 546.166 621.856 545.357 620.262 544.989C615.161 543.812 610.649 538.364 610.649 529.976C610.649 525.758 611.759 521.964 613.523 519.249C615.275 516.554 617.627 514.976 620.149 514.976C620.501 514.976 622.057 515.134 624.573 515.424C627.067 515.711 630.461 516.121 634.448 516.613C642.42 517.597 652.76 518.91 663.003 520.222C673.245 521.534 683.391 522.847 690.976 523.831C694.768 524.323 697.92 524.734 700.125 525.021L702.681 525.354L703.354 525.442L703.526 525.464L703.57 525.47L703.581 525.471L703.584 525.472C703.584 525.472 703.585 525.472 703.649 524.976L703.585 525.472Z"
                fill="#7C7C7C" stroke="#121212"></path>
        </g>
        <g id="Right forearm">
            <path
                d="M446.15 463.476L445.15 459.476C446.149 422.476 423.649 369.476 443.65 335.476C446.368 330.855 452.23 329.331 459.149 329.952C473.94 331.277 493.562 342.394 497.649 353.976C506.649 409.476 474.649 454.476 473.649 459.476C470.649 464.476 460.649 473.476 460.649 473.476L446.15 463.476Z"
                fill="#F2EFE6"></path>
            <path
                d="M460.649 473.476C460.649 473.476 470.649 464.476 473.649 459.476C474.649 454.476 506.649 409.476 497.649 353.976C493.562 342.394 473.94 331.277 459.149 329.952M460.649 473.476L446.15 463.476L445.15 459.476C446.149 422.476 423.649 369.476 443.65 335.476C446.368 330.855 452.23 329.331 459.149 329.952M460.649 473.476C459.149 433.976 503.649 369.976 459.149 329.952"
                stroke="#121212"></path>
        </g>
        <g id="Hand right">
            <path
                d="M473.649 459.476C469.249 464.676 453.483 461.309 445.149 459.476C445.149 464.476 444.649 470.976 443.649 473.976C442.701 476.822 433.546 491.476 430.649 494.976C427.676 498.568 424.649 509.976 426.149 515.976C427.349 520.776 431.581 522.643 433.546 522.976C436.496 529.103 445.935 534.643 451.149 536.976C456.749 540.176 460.149 537.976 459.149 535.476C465.949 539.076 471.649 532.976 470.149 529.976C477.749 533.176 479.649 527.309 479.649 523.976C473.649 524.376 471.483 519.476 471.149 516.976C470.616 512.976 473.149 506.143 475.649 502.976C483.149 479.976 464.649 478.476 473.649 459.476Z"
                fill="#F2EFE6"></path>
            <path
                d="M470.149 529.976C477.749 533.176 479.649 527.309 479.649 523.976C473.649 524.376 471.483 519.476 471.149 516.976C470.616 512.976 473.149 506.143 475.649 502.976C483.149 479.976 464.649 478.476 473.649 459.476C469.249 464.676 453.483 461.309 445.149 459.476C445.149 464.476 444.649 470.976 443.649 473.976C442.701 476.822 433.546 491.476 430.649 494.976C427.676 498.568 424.649 509.976 426.149 515.976C427.349 520.776 431.581 522.643 433.546 522.976M470.149 529.976C471.649 532.976 465.949 539.076 459.149 535.476M470.149 529.976C466.983 529.309 459.949 526.576 457.149 520.976C454.349 515.376 455.316 510.976 456.149 509.476M459.149 535.476C460.149 537.976 456.749 540.176 451.149 536.976C445.935 534.643 436.496 529.103 433.546 522.976M459.149 535.476C454.816 532.976 445.649 526.776 443.649 521.976C441.649 517.176 443.816 504.309 445.149 498.476M433.546 522.976C432.913 521.661 432.579 520.319 432.649 518.976C432.483 513.143 432.549 502.676 438.149 495.476"
                stroke="#121212"></path>
        </g>
        <g id="Hand left">
            <path
                d="M220.649 503.976C221.849 510.376 212.149 510.476 208.649 505.476C202.555 505.199 196.028 499.949 191.429 494.976C187.65 493.311 186.65 490.976 186.149 488.976C185.649 486.976 184.825 479.976 188.65 471.476C193.15 461.476 193.855 447.518 194.649 433.476C196.65 440.476 220.149 444.976 225.149 441.476C222.749 444.676 223.649 447.976 224.149 449.476C235.149 458.476 246.649 469.976 243.649 478.476L227.149 476.976C216.349 484.176 222.149 490.533 225.649 493.311L234.149 494.306L244.149 495.476C247.149 506.976 238.649 511.976 234.649 498.476C234.649 498.476 233.981 499.964 233.149 500.476C232.464 500.898 231.149 500.976 231.149 500.976C232.149 506.476 225.649 507.476 220.649 503.976Z"
                fill="#F2EFE6"></path>
            <path
                d="M208.649 505.476C212.149 510.476 221.849 510.376 220.649 503.976M208.649 505.476C195.65 494.306 194.149 491.976 198.649 467.476M208.649 505.476C202.555 505.199 196.028 499.949 191.429 494.976M220.649 503.976C225.649 507.476 232.149 506.476 231.149 500.976M220.649 503.976C215.649 496.476 202.078 499.476 206.149 469.476M231.149 500.976C229.316 499.699 225.249 495.979 225.649 493.311M231.149 500.976C231.149 500.976 232.464 500.898 233.149 500.476C233.981 499.964 234.649 498.476 234.649 498.476M234.649 498.476C238.649 511.976 247.149 506.976 244.149 495.476L234.149 494.306M234.649 498.476L234.149 494.306M234.149 494.306L225.649 493.311M225.649 493.311C222.149 490.533 216.349 484.176 227.149 476.976L243.649 478.476C246.649 469.976 235.149 458.476 224.149 449.476C223.649 447.976 222.749 444.676 225.149 441.476C220.149 444.976 196.65 440.476 194.649 433.476C193.855 447.518 193.15 461.476 188.65 471.476C184.825 479.976 185.649 486.976 186.149 488.976C186.65 490.976 187.65 493.311 191.429 494.976M191.429 494.976C190.336 491.143 189.25 482.076 193.65 468.476"
                stroke="#121212"></path>
        </g>
    </g>
</svg>