<svg width="805" height="709" viewBox="0 0 805 709" fill="none" xmlns="http://www.w3.org/2000/svg">
    <g id="Start">
        <path id="Knee left "
            d="M255 361.973L284 357.973L296 366.473C295.333 371.807 298.748 383.495 298 390.973C297.5 395.973 298 398.473 296 399.473L300 406.973L293 422.473L249 412.473L255 361.973Z"
            fill="#F2EFE6" stroke="#121212"></path>
        <path id="Quadriceps left 3"
            d="M295 363.473L376.5 292.473L386.5 285.473L444.5 326.973L368.5 360.473C349.167 370.307 307.8 388.973 297 384.973C286.2 380.973 291.167 368.973 295 363.473Z"
            fill="#F2EFE6" stroke="#121212"></path>
        <g id="Quadriceps left 1">
            <path
                d="M274.5 339.973C289.3 317.173 333.5 285.473 364 287.473C370.667 287.973 384.3 290.773 385.5 297.973C384.641 298.389 383.79 298.789 382.945 299.175C370.185 309.459 315.451 376.663 286.5 368.973C273.306 365.469 268.754 359.688 268.353 353.973C267.976 348.6 271.269 343.285 274.5 339.973Z"
                fill="#FAA805"></path>
            <path
                d="M385.5 297.973C382 294.473 318.5 377.473 286.5 368.973C273.306 365.469 268.754 359.688 268.353 353.973M385.5 297.973C384.3 290.773 370.667 287.973 364 287.473C333.5 285.473 289.3 317.173 274.5 339.973C271.269 343.285 267.976 348.6 268.353 353.973M385.5 297.973C338 320.973 311.5 296.473 268.353 353.973"
                stroke="#121212"></path>
        </g>
        <path id="Quadriceps left 2"
            d="M298.5 376.473C302.949 373.664 396 315.473 414 321.473L432.5 351.473L417 372.473L369 391.973L297 394.473C292 390.973 289 382.473 298.5 376.473Z"
            fill="#F2EFE6" stroke="#121212"></path>
        <path id="Body"
            d="M271 159.473L264 163.973L255.5 197.973L320 241.973L386 288.973L410.5 299.473L420.5 202.973L439 154L425.5 143.5L271 159.473Z"
            fill="#F2EFE6" stroke="#121212"></path>
        <path id="Butt"
            d="M507.5 258.973C514.7 253.773 525.833 257.473 530.5 259.973V275.473L517 282.973C510.833 277.14 500.3 264.173 507.5 258.973Z"
            fill="#F2EFE6" stroke="#121212"></path>
        <g id="Obliquies right">
            <path
                d="M462.5 248.973L485 246.473C490.107 247.214 494.585 248.593 498.5 250.418C515.741 258.457 522.049 275.145 523 283.973L516 319.473H492H468L462.5 248.973Z"
                fill="#F2EFE6"></path>
            <path
                d="M485 246.473L462.5 248.973L468 319.473M485 246.473C503 268.473 481.167 304.307 468 319.473M485 246.473C490.107 247.214 494.585 248.593 498.5 250.418M468 319.473H492M492 319.473H516L523 283.973C522.049 275.145 515.741 258.457 498.5 250.418M492 319.473C501.833 311.103 516.9 285.574 498.5 250.418"
                stroke="#121212"></path>
        </g>
        <path id="Adductors right"
            d="M512 315.473C506.4 304.673 525 255.973 530 259.473L545.5 272.973L536 316.473L512 315.473Z" fill="#F2EFE6"
            stroke="#121212"></path>
        <path id="Lats right"
            d="M511 259.473C499.5 249.973 476.333 250.973 466.5 254.973L448 232.973L459.5 175.973C481.1 177.973 489.167 207.807 489 218.973C489 242.973 507.5 246.473 511 259.473Z"
            fill="#F2EFE6" stroke="#121212"></path>
        <path id="Elbow left"
            d="M280 319.473C284.4 327.073 279.833 336.64 277 340.473L232 330.473C226 318.073 233 287.966 241.5 292.473C252.5 298.307 275.6 311.873 280 319.473Z"
            fill="#F2EFE6" stroke="#121212"></path>
        <path id="Triceps left"
            d="M252 328.973C228.5 287.473 219.5 245.973 245 219.473L268 239.973L270 295.973L260.5 329.973L252 328.973Z"
            fill="#F2EFE6" stroke="#121212"></path>
        <path id="Shoulder left back"
            d="M424 159.973C419.333 154.473 420.4 157.2 420 156C432 146 464 158.473 470 174.473C479.6 195.673 463 215.64 453.5 222.973H444L424 159.973Z"
            fill="#F2EFE6" stroke="#121212"></path>
        <path id="Shoulder left mid"
            d="M265.5 164.473C265.5 171.673 272.833 182.14 276.5 186.473C286.833 238.973 298.2 331.173 261 279.973C214.5 215.973 265.5 155.473 265.5 164.473Z"
            fill="#F2EFE6" stroke="#121212"></path>
        <path id="Shoulder left front"
            d="M274 186.473C284.4 185.273 294.167 197.14 296.5 201.973L295 234.973C293.5 255.64 286.1 290.473 268.5 264.473C238.5 215.473 261 187.973 274 186.473Z"
            fill="#F2EFE6" stroke="#121212"></path>
        <g id="Biceps left">
            <path
                d="M297.5 233.973C305.5 265.473 296.7 316.273 271.5 331.473C267.734 330.255 257.452 328.15 255.5 325.973C251.01 261.073 272.845 261.817 287 245.781C290.184 242.174 292.98 237.717 295 231.473L297.5 233.973Z"
                fill="#F2EFE6"></path>
            <path
                d="M271.5 331.473C296.7 316.273 305.5 265.473 297.5 233.973L295 231.473C292.98 237.717 290.184 242.174 287 245.781M271.5 331.473C267.734 330.255 257.452 328.15 255.5 325.973C251.01 261.073 272.845 261.817 287 245.781M271.5 331.473C273.5 254.973 280.5 278.973 287 245.781"
                stroke="#121212"></path>
        </g>
        <path id="Head"
            d="M339.994 26.3906C368.419 62.3525 341.534 86.6094 342 108.473L331 201.5C331 201.5 328.245 203.553 326.5 203.473C324.579 203.386 322 202 322 202L304.073 172.783C298.336 166.487 289.116 152.243 282.5 143.973C278.5 138.973 269.877 139.348 263.5 138.973C249.53 133.199 256.822 112.308 250.5 106.473C248.2 103.275 247.931 102.733 248 98.9734C243.905 96.9658 250.927 77.4808 250.5 72.9734C245.882 74.3432 245.643 65.7161 246.5 62.4734C250.5 47.3407 248.755 41.71 256.12 30.4734C276.438 -0.526635 327 9.95164 339.994 26.3906Z"
            fill="#F2EFE6" stroke="#121212"></path>
        <path id="Trapezius right"
            d="M375.5 127.5C384 127.5 402.5 132 408 133.5C413.5 135 423.5 140.5 430.5 147.473C430.5 147.473 416.5 143.902 414.5 148.473C409.159 160.681 401.515 168.388 387.5 175.973C382 178.95 372 193.973 357 197.473C365 153.073 333 121.473 340.5 108.473C348 112.473 365.938 127.5 375.5 127.5Z"
            fill="#F2EFE6" stroke="#121212"></path>
        <path id="Neck right"
            d="M340 108.473C324.4 126.073 326.833 178.64 330.5 201.473C339.7 205.473 351.833 200.833 357 197.5C365.4 166.3 349.667 123.973 340 108.473Z"
            fill="#F2EFE6" stroke="#121212"></path>
        <path id="Neck right_2"
            d="M322 201.973L307.5 197.473L291 177.973L285 147.473C298.2 145.873 311 164.14 315 173.473C328.6 191.473 325.333 199.973 322 201.973Z"
            fill="#F2EFE6" stroke="#121212"></path>
        <g id="Abs">
            <path
                d="M344 274.473C352.167 272.64 368.8 270.673 370 277.473H392C396.5 280.14 405.5 287.373 405.5 294.973L407 310.973L400.5 305.473C384.9 309.073 379 301.307 378 296.974C366.509 300.169 355.657 282.095 344 274.473Z"
                fill="#F2EFE6"></path>
            <path
                d="M382 294.973C378.5 291.973 371.2 284.273 370 277.473M382 294.973C380.657 295.955 379.324 296.606 378 296.974M382 294.973C383.725 296.071 386.276 297.564 389 299.113M370 277.473C368.8 270.673 352.167 272.64 344 274.473C355.657 282.095 366.509 300.169 378 296.974M370 277.473H392C396.5 280.14 405.5 287.373 405.5 294.973M378 296.974C379 301.307 384.9 309.073 400.5 305.473M400.5 305.473C397.866 304.055 393.224 301.516 389 299.113M400.5 305.473L407 310.973L405.5 294.973M389 299.113C394.5 300.9 405.5 302.573 405.5 294.973"
                stroke="#121212"></path>
        </g>
        <path id="Chest left"
            d="M336.5 237.973C331.7 233.973 331.5 222.973 331 217.473C332 204.973 298.5 197.473 293 201.473C285.5 206.928 289.5 222.973 293 230.973C296.05 237.945 298 239.973 299.5 246.473C311.5 276.873 343.5 277.14 357 273.473C352.167 263.307 341.3 241.973 336.5 237.973Z"
            fill="#F2EFE6" stroke="#121212"></path>
        <path id="Trapezius left"
            d="M284.5 147.473C277.709 153.294 276 157.473 272.5 158.473C265.5 160.473 272.823 178.303 278.5 180.473C295.5 186.973 292.5 193 307.5 197.5C302.5 191 288 144.473 284.5 147.473Z"
            fill="#F2EFE6" stroke="#121212"></path>
        <path id="Hamstering left"
            d="M407.5 392.973C381.1 420.573 322.833 405.473 297 394.473C324.6 397.673 345.5 377.431 371 375.973C385 375.173 406.5 354.973 416.5 354.973C424.5 356.14 433.9 365.373 407.5 392.973Z"
            fill="#FAC832" stroke="#121212"></path>
        <path id="Quadriceps right 3"
            d="M478 385.973L485 371.473L489 345.473L544.5 317.973L557.5 349.473L542 378.473L490.5 398.973L478 385.973Z"
            fill="#F2EFE6" stroke="#121212"></path>
        <g id="Quadriceps right 2">
            <path
                d="M533.5 322.473C541.9 352.073 501.667 377.14 480.5 385.973L437 396.973C427 400.807 407.1 404.873 407.5 390.473C407.9 376.073 416.667 360.807 421 354.973C428 342.973 448.4 316.173 474 304.973C491.701 297.229 508.987 303.541 521 311.644C526.361 315.26 530.671 319.233 533.5 322.473Z"
                fill="#FAA805"></path>
            <path
                d="M521 311.644C526.361 315.26 530.671 319.233 533.5 322.473C541.9 352.073 501.667 377.14 480.5 385.973L437 396.973C427 400.807 407.1 404.873 407.5 390.473C407.9 376.073 416.667 360.807 421 354.973C428 342.973 448.4 316.173 474 304.973C491.701 297.229 508.987 303.541 521 311.644ZM521 311.644C500 317.473 470.3 340.273 457.5 357.473"
                stroke="#121212"></path>
        </g>
        <path id="Knee right"
            d="M420.5 373.473C386.1 403.873 408 438.473 420.5 455.973L445 461.473L452.5 434.473L468.5 368.473L420.5 373.473Z"
            fill="#F2EFE6" stroke="#121212"></path>
        <path id="Chest right"
            d="M333 212.973C335 207.373 347 207 352 206.5C357 206 360 205 360 205L368.5 199.5C371.5 197.5 372.68 198.661 376.5 203.5C388.16 218.27 404.734 246.676 408.5 264C410.032 271.047 406 279.01 400 279.973C331.5 290.973 330.5 219.973 333 212.973Z"
            fill="#F2EFE6" stroke="#121212"></path>
        <path id="Elbow right"
            d="M425.5 377.973C417.1 380.773 418.333 357.473 420 345.473L455 348.473L449 368.473C444.667 370.473 433.9 375.173 425.5 377.973Z"
            fill="#F2EFE6" stroke="#121212"></path>
        <g id="Biceps right">
            <path
                d="M433.5 341.973C438 357.473 425.267 359.652 420 349.973C414.733 340.294 411.041 329.737 408.5 319.537C403.9 301.072 403.071 283.777 403.5 274.973L420 260.473C425 282.473 430.027 330.009 433.5 341.973Z"
                fill="#F2EFE6"></path>
            <path
                d="M408.5 319.537C403.9 301.072 403.071 283.777 403.5 274.973L420 260.473C425 282.473 430.027 330.009 433.5 341.973C438 357.473 425.267 359.652 420 349.973C414.733 340.294 411.041 329.737 408.5 319.537ZM408.5 319.537C408 311.349 407.5 282.4 409.5 276"
                stroke="#121212"></path>
        </g>
        <path id="Triceps right"
            d="M418.5 268.973C413.3 294.173 430.667 340.14 440 359.973C445.667 364.14 467.1 376.973 477.5 374.973C487.9 372.973 476.667 354.473 473.5 347.973C497.9 278.773 462.667 224.307 444.5 209.473C436.333 216.307 423.7 243.773 418.5 268.973Z"
            fill="#F2EFE6" stroke="#121212"></path>
        <path id="Shoulder right mid"
            d="M398.5 266C384 233.527 402 227 370 199C370 199 377 195 389 182.473C395.122 178.415 404.5 174.973 406 174.473L423 179.973L428 236.973C424.167 243.64 415.9 258.973 413.5 266.973C411.1 274.973 410.5 279.5 408.5 279.5C406 279.5 400.279 269.985 398.5 266Z"
            fill="#F2EFE6" stroke="#121212"></path>
        <path id="Shoulder right back"
            d="M420 156C474.4 202.8 435.167 259.5 410 279C426.4 214.6 415 179.973 406 174.473C414 169.473 416.5 160 420 156Z"
            fill="#F2EFE6" stroke="#121212"></path>
        <path id="Quadriceps right 1"
            d="M477 392.973C510.2 372.173 533.833 367.64 541.5 367.973L529.5 397.473L519.5 396.473L489 408.473C471.167 411.973 443.8 413.773 477 392.973Z"
            fill="#FAA805" stroke="#121212"></path>
        <path id="Hamstering right"
            d="M514.5 401.973C518 402.473 521 402.973 523.5 402.973L529 394.973C508 385.473 494.833 397.64 486.5 404.973C477.667 415.14 463.9 434.673 479.5 431.473C495.1 428.273 509.333 410.473 514.5 401.973Z"
            fill="#FAC832" stroke="#121212"></path>
        <path id="Calf Left 2"
            d="M301.5 547.973L303.5 552.473L332 560.973L341.5 543.973C335.9 538.373 337.167 526.307 338.5 520.973L316 470.473L296.5 417.473C296.5 417.473 279.465 403.477 269 401.473C245.5 396.973 249 417.473 249 417.473C244.6 417.473 293.5 505.973 301.5 547.973Z"
            fill="#F2EFE6" stroke="#121212"></path>
        <path id="Calf Left 1"
            d="M281 432.473C291.8 423.673 298 410.973 296 399.973C388.5 427.973 324.5 484.973 338 521.473C313.6 510.673 272.5 439.399 281 432.473Z"
            fill="#FFE492" stroke="#121212"></path>
        <path id="Mouth" d="M253.5 112.973C259 114.973 271.5 115.373 273.5 114.973" stroke="#121212"></path>
        <path id="Foot right"
            d="M488 582.473C474.4 589.673 454.288 579.973 450.288 579.973C456.288 623.973 431.788 627.473 417.788 641.473C406.411 652.85 399.5 655.807 398.5 657.473C381.5 666.473 402.288 681.973 408.788 668.973C405.288 678.973 416.288 675.973 417.788 670.473C417.788 679.973 426.788 675.973 427.788 670.473C427.788 679.473 436.288 674.973 437.288 670.473C437.288 680.473 446.955 674.807 450.288 670.473C461.888 674.073 467.788 659.473 478.288 652.973C500.688 644.973 495.955 627.973 490.788 620.473C495.788 606.973 485 603.973 488 582.473Z"
            fill="#F2EFE6" stroke="#121212"></path>
        <g id="Foot left">
            <path
                d="M341.5 543.973C329.9 548.773 309.267 552.473 301.267 547.473C301.992 556.329 308.767 559.473 306.767 566.973C291.267 576.973 276.962 592.771 266.488 597.666C245.489 603.03 237.309 617.485 240.767 618.473C238.767 622.473 241.6 623.473 243.267 623.473C252.467 631.873 263.1 626.307 267.267 622.473C285.767 626.473 296.767 608.736 301.267 608.973C324.067 610.173 348.181 613.166 355.5 597.666C364 579.666 338 572.473 341.5 543.973Z"
                fill="#F2EFE6"></path>
            <path
                d="M243.267 623.473C252.467 631.873 263.1 626.307 267.267 622.473C285.767 626.473 296.767 608.736 301.267 608.973C324.067 610.173 348.181 613.166 355.5 597.666C364 579.666 338 572.473 341.5 543.973C329.9 548.773 309.267 552.473 301.267 547.473C301.992 556.329 308.767 559.473 306.767 566.973C291.267 576.973 276.962 592.771 266.488 597.666C245.489 603.03 237.309 617.485 240.767 618.473M243.267 623.473C241.6 623.473 238.767 622.473 240.767 618.473M243.267 623.473C242.1 622.14 242.067 618.273 251.267 613.473C262.767 607.473 262.767 607.473 267.767 605.973M240.767 618.473C242.433 614.973 249.167 608.073 258.767 604.473"
                stroke="#121212"></path>
        </g>
        <g id="Calf right 3">
            <path
                d="M450.5 581.473C449 567.473 444.4 536.373 436 527.973L420.5 457.473C416.477 447.817 439.001 435.83 461.5 441.728C466.961 443.16 472.421 445.645 477.5 449.473L494 481.973L494.5 501.973L492.5 514.473C490.667 534.307 487.2 575.673 488 582.473C488.471 586.474 481.002 587.556 472.5 587.429C466.551 587.34 460.097 586.659 455.5 585.973L450.5 581.473Z"
                fill="#F2EFE6"></path>
            <path
                d="M472.5 587.429C481.002 587.556 488.471 586.474 488 582.473C487.2 575.673 490.667 534.307 492.5 514.473L494.5 501.973L494 481.973L477.5 449.473C472.421 445.645 466.961 443.16 461.5 441.728M472.5 587.429C466.551 587.34 460.097 586.659 455.5 585.973L450.5 581.473C449 567.473 444.4 536.373 436 527.973L420.5 457.473C416.477 447.817 439.001 435.83 461.5 441.728M472.5 587.429C475.333 549.447 477.1 467.132 461.5 441.728"
                stroke="#121212"></path>
        </g>
        <g id="Calf right 2">
            <path
                d="M435.099 520.782C433.89 513.633 416.948 491.721 420 455.973C438.381 482.231 437.97 508.782 435.099 520.782C435.277 521.832 435.115 522.563 434.5 522.973C434.707 522.31 434.909 521.578 435.099 520.782Z"
                fill="#FFE492"></path>
            <path d="M420 455.973C416.5 496.973 439.3 519.773 434.5 522.973C437.833 512.307 439.6 483.973 420 455.973Z"
                stroke="#121212"></path>
        </g>
        <path id="Calf right 1"
            d="M480 469.473C493.6 485.073 494.667 504.64 493.5 512.473C505.9 458.873 488.333 445.14 478 444.973C473 446.64 466.4 453.873 480 469.473Z"
            fill="#FFE492" stroke="#121212"></path>
        <g id="Right forearm">
            <path
                d="M456.547 491.767C453.367 448.15 410.086 407.077 422 369.473C423.619 364.362 433.117 360.412 440 359.473C454.713 357.467 476.432 362.595 483 372.973C494.5 428.973 483.36 479.376 483.5 484.473C481.691 490.017 472.912 498.282 472.912 498.282L456.547 491.767Z"
                fill="#F2EFE6"></path>
            <path
                d="M472.912 498.282C472.912 498.282 481.691 490.017 483.5 484.473C483.36 479.376 494.5 428.973 483 372.973C476.432 362.595 454.713 357.467 440 359.473M472.912 498.282L456.547 491.767C453.367 448.15 410.086 407.077 422 369.473C423.619 364.362 433.117 360.412 440 359.473M472.912 498.282C462.64 460.111 492.305 388.566 440 359.473"
                stroke="#121212"></path>
        </g>
        <g id="Left forearm">
            <path
                d="M215 431.473C227.838 408.666 210.998 387.054 222.5 360.973C221.079 352.566 222.5 337.513 231.5 324.473C234.291 320.43 238.658 318.628 249.5 321.473C268.583 326.482 277.765 331.359 279.5 339.473C285.462 367.361 244.738 410.203 245 437.973L238.658 443.443L220.831 442.243L215 431.473Z"
                fill="#F2EFE6"></path>
            <path
                d="M245 437.973C244.738 410.203 285.462 367.361 279.5 339.473C277.765 331.359 268.583 326.482 249.5 321.473M245 437.973L238.658 443.443L220.831 442.243L215 431.473C227.838 408.666 210.998 387.054 222.5 360.973C221.079 352.566 222.5 337.513 231.5 324.473C234.291 320.43 238.658 318.628 249.5 321.473M245 437.973C236.487 404.024 268 377.973 249.5 321.473"
                stroke="#121212"></path>
        </g>
        <g id="Barbel">
            <path id="Barbel 1"
                d="M27.2897 439.507C29.7131 440.298 40.0805 442.036 40.0805 442.036L45.1036 420.982C45.1036 420.982 36.8404 418.488 32.313 418.453C21.7095 418.701 18.8847 433.975 27.2897 439.507Z"
                fill="#7C7C7C" stroke="#121212"></path>
            <g id="Plate Left">
                <path id="Ellipse 4"
                    d="M117.609 547.939L103.211 546.226C61.362 541.246 32.3912 493.958 38.7684 440.369C45.1457 386.78 84.4051 347.612 126.254 352.592L126.339 352.602L126.424 352.612L126.508 352.622L126.592 352.632L126.676 352.642L126.76 352.652L126.843 352.662L126.925 352.672L127.008 352.682L127.09 352.692L127.172 352.701L127.254 352.711L127.335 352.721L127.416 352.73L127.496 352.74L127.576 352.75L127.656 352.759L127.736 352.769L127.815 352.778L127.894 352.787L127.973 352.797L128.051 352.806L128.13 352.815L128.207 352.825L128.285 352.834L128.362 352.843L128.439 352.852L128.515 352.861L128.592 352.87L128.667 352.879L128.743 352.888L128.818 352.897L128.893 352.906L128.968 352.915L129.042 352.924L129.117 352.933L129.19 352.942L129.264 352.95L129.337 352.959L129.41 352.968L129.482 352.976L129.555 352.985L129.627 352.994L129.698 353.002L129.77 353.011L129.841 353.019L129.912 353.027L129.982 353.036L130.052 353.044L130.122 353.052L130.192 353.061L130.261 353.069L130.33 353.077L130.399 353.085L130.467 353.094L130.535 353.102L130.603 353.11L130.671 353.118L130.738 353.126L130.805 353.134L130.872 353.142L130.938 353.15L131.004 353.157L131.07 353.165L131.136 353.173L131.201 353.181L131.266 353.189L131.331 353.196L131.395 353.204L131.459 353.212L131.523 353.219L131.587 353.227L131.65 353.234L131.713 353.242L131.776 353.249L131.838 353.257L131.901 353.264L131.962 353.271L132.024 353.279L132.085 353.286L132.146 353.293L132.207 353.301L132.268 353.308L132.328 353.315L132.388 353.322L132.448 353.329L132.507 353.336L132.566 353.343L132.625 353.35L132.684 353.357L132.742 353.364L132.8 353.371L132.858 353.378L132.916 353.385L132.973 353.392L133.03 353.399L133.087 353.405L133.143 353.412L133.2 353.419L133.255 353.425L133.311 353.432L133.367 353.439L133.422 353.445L133.477 353.452L133.531 353.458L133.586 353.465L133.64 353.471L133.694 353.478L133.747 353.484L133.801 353.49L133.854 353.497L133.907 353.503L133.959 353.509L134.012 353.515L134.064 353.522L134.116 353.528L134.167 353.534L134.218 353.54L134.27 353.546L134.32 353.552L134.371 353.558L134.421 353.564L134.471 353.57L134.521 353.576L134.571 353.582L134.62 353.588L134.669 353.594L134.718 353.599L134.766 353.605L134.815 353.611L134.863 353.617L134.911 353.622L134.958 353.628L135.006 353.634L135.053 353.639L135.1 353.645L135.146 353.65L135.193 353.656L135.239 353.661L135.285 353.667L135.331 353.672L135.376 353.678L135.421 353.683L135.466 353.688L135.511 353.694L135.555 353.699L135.6 353.704L135.644 353.71L135.688 353.715L135.731 353.72L135.774 353.725L135.818 353.73L135.86 353.735L135.903 353.74L135.946 353.745L135.988 353.75L136.03 353.755L136.071 353.76L136.113 353.765L136.154 353.77L136.195 353.775L136.236 353.78L136.277 353.785L136.317 353.79L136.357 353.794L136.397 353.799L136.437 353.804L136.476 353.809L136.516 353.813L136.555 353.818L136.593 353.823L136.632 353.827L136.67 353.832L136.709 353.836L136.747 353.841L136.784 353.845L136.822 353.85L136.859 353.854L136.896 353.859L136.933 353.863L136.97 353.867L137.006 353.872L137.042 353.876L137.078 353.88L137.114 353.885L137.15 353.889L137.185 353.893L137.22 353.897L137.255 353.901L137.29 353.905L137.325 353.91L137.359 353.914L137.393 353.918L137.427 353.922L137.461 353.926L137.494 353.93L137.528 353.934L137.561 353.938L137.594 353.942L137.627 353.946L137.659 353.949L137.691 353.953L137.724 353.957L137.755 353.961L137.787 353.965L137.819 353.968L137.85 353.972L137.881 353.976L137.912 353.98L137.943 353.983L137.973 353.987L138.004 353.99L138.034 353.994L138.064 353.998L138.094 354.001L138.123 354.005L138.153 354.008L138.182 354.012L138.211 354.015L138.24 354.018L138.268 354.022L138.297 354.025L138.325 354.029L138.353 354.032L138.381 354.035L138.409 354.039L138.436 354.042L138.463 354.045L138.491 354.048L138.518 354.052L138.544 354.055L138.571 354.058L138.597 354.061L138.624 354.064L138.65 354.067L138.675 354.07L138.701 354.073L138.727 354.076L138.752 354.079L138.777 354.082L138.802 354.085L138.827 354.088L138.852 354.091L138.876 354.094L138.9 354.097L138.924 354.1L138.948 354.103L138.972 354.106L138.996 354.108L139.019 354.111L139.042 354.114L139.066 354.117L139.088 354.119L139.111 354.122L139.134 354.125L139.156 354.128L139.178 354.13L139.201 354.133L139.222 354.135L139.244 354.138L139.266 354.141L139.287 354.143L139.308 354.146L139.33 354.148L139.35 354.151L139.371 354.153L139.392 354.156L139.412 354.158L139.433 354.16L139.453 354.163L139.473 354.165L139.493 354.168L139.512 354.17L139.532 354.172L139.551 354.175L139.57 354.177L139.589 354.179L139.608 354.181L139.627 354.184L139.646 354.186L139.664 354.188L139.682 354.19L139.7 354.192L139.718 354.194L139.736 354.197L139.754 354.199L139.771 354.201L139.789 354.203L139.806 354.205L139.823 354.207L139.84 354.209L139.857 354.211L139.874 354.213L139.89 354.215L139.907 354.217L139.923 354.219L139.939 354.221L139.955 354.223L139.971 354.224L139.986 354.226L140.002 354.228L140.017 354.23L140.033 354.232L140.048 354.234L140.063 354.235L140.077 354.237L140.092 354.239L140.107 354.241L140.121 354.242L140.136 354.244L140.15 354.246L140.164 354.247L140.178 354.249L140.191 354.251L140.205 354.252L140.219 354.254L140.232 354.256L140.245 354.257L140.258 354.259L140.271 354.26L140.284 354.262L140.297 354.263L140.31 354.265L140.322 354.266L140.335 354.268L140.347 354.269L140.359 354.271L140.371 354.272L140.383 354.274L140.395 354.275L140.406 354.276L140.418 354.278L140.429 354.279L140.44 354.28L140.452 354.282L140.463 354.283L140.474 354.284L140.484 354.286L140.495 354.287L140.506 354.288L140.516 354.289L140.527 354.291L140.537 354.292L140.547 354.293L140.557 354.294L140.567 354.295L140.577 354.297L140.586 354.298L140.596 354.299L140.605 354.3L140.615 354.301L140.624 354.302L140.633 354.303L140.642 354.304L140.651 354.305L140.652 354.306L117.609 547.939Z"
                    fill="#494949" stroke="#121212"></path>
                <path id="Ellipse 3"
                    d="M204.598 460.103C198.221 513.692 158.962 552.86 117.113 547.88C75.2639 542.9 46.2931 495.612 52.6703 442.023C59.0476 388.435 98.307 349.266 140.156 354.247C182.005 359.227 210.976 406.515 204.598 460.103Z"
                    fill="#494949" stroke="#121212"></path>
            </g>
            <g id="Barbel hole">
                <path id="Ellipse 2"
                    d="M139.877 475.06L139.871 475.059L139.863 475.058L139.855 475.057L139.847 475.057L139.839 475.056L139.831 475.055L139.823 475.054L139.815 475.053L139.806 475.052L139.798 475.051L139.789 475.05L139.781 475.049L139.772 475.048L139.763 475.047L139.755 475.045L139.746 475.044L139.737 475.043L139.727 475.042L139.718 475.041L139.709 475.04L139.7 475.039L139.69 475.038L139.681 475.037L139.671 475.036L139.661 475.034L139.651 475.033L139.642 475.032L139.632 475.031L139.621 475.03L139.611 475.028L139.601 475.027L139.591 475.026L139.58 475.025L139.57 475.023L139.559 475.022L139.548 475.021L139.537 475.02L139.527 475.018L139.516 475.017L139.504 475.016L139.493 475.014L139.482 475.013L139.471 475.012L139.459 475.01L139.447 475.009L139.436 475.008L139.424 475.006L139.412 475.005L139.4 475.003L139.388 475.002L139.376 475L139.364 474.999L139.351 474.997L139.339 474.996L139.326 474.994L139.314 474.993L139.301 474.991L139.288 474.99L139.275 474.988L139.262 474.987L139.249 474.985L139.235 474.984L139.222 474.982L139.208 474.98L139.195 474.979L139.181 474.977L139.167 474.976L139.153 474.974L139.139 474.972L139.125 474.971L139.111 474.969L139.097 474.967L139.082 474.965L139.068 474.964L139.053 474.962L139.038 474.96L139.023 474.958L139.008 474.957L138.993 474.955L138.978 474.953L138.962 474.951L138.947 474.949L138.931 474.948L138.916 474.946L138.9 474.944L138.884 474.942L138.868 474.94L138.852 474.938L138.836 474.936L138.819 474.934L138.803 474.932L138.786 474.93L138.769 474.928L138.753 474.926L138.736 474.924L138.719 474.922L138.701 474.92L138.684 474.918L138.667 474.916L138.649 474.914L138.631 474.912L138.614 474.91L138.596 474.908L138.578 474.905L138.56 474.903L138.541 474.901L138.523 474.899L138.504 474.897L138.486 474.894L138.467 474.892L138.448 474.89L138.429 474.888L138.41 474.885L138.391 474.883L138.371 474.881L138.352 474.879L138.332 474.876L138.312 474.874L138.293 474.871L138.273 474.869L138.252 474.867L138.232 474.864L138.212 474.862L138.191 474.859L138.171 474.857L138.15 474.855L138.129 474.852L138.108 474.85L138.087 474.847L138.065 474.844L138.044 474.842L138.022 474.839L138.001 474.837L137.979 474.834L137.957 474.832L137.935 474.829L137.912 474.826L137.89 474.824L137.868 474.821L137.845 474.818L137.822 474.816L137.799 474.813L137.776 474.81L137.753 474.807L137.73 474.804L137.706 474.802L137.683 474.799L137.659 474.796L137.635 474.793L137.611 474.79L137.587 474.787L137.562 474.785L137.538 474.782L137.513 474.779L137.489 474.776L137.464 474.773L137.439 474.77L137.414 474.767L137.388 474.764L137.363 474.761L137.337 474.758L137.311 474.755L137.286 474.752L137.26 474.749L137.233 474.745L137.207 474.742L137.181 474.739L137.154 474.736L137.127 474.733L137.1 474.73L137.073 474.726L137.046 474.723L137.019 474.72L136.991 474.717L136.964 474.713L136.936 474.71L136.908 474.707L136.88 474.703L136.851 474.7L136.823 474.697L136.795 474.693L136.766 474.69L136.737 474.686L136.708 474.683L136.679 474.679L136.649 474.676L136.62 474.672L136.59 474.669L136.561 474.665L136.531 474.662L136.5 474.658L136.47 474.655L136.44 474.651L136.409 474.647L136.379 474.644L136.348 474.64L136.317 474.636L136.285 474.633L136.254 474.629L136.222 474.625L136.191 474.621L136.159 474.618L136.127 474.614L136.095 474.61L136.062 474.606L136.03 474.602L135.997 474.598L135.964 474.594L135.931 474.591L135.898 474.587L135.865 474.583L135.831 474.579L135.798 474.575L135.764 474.571L135.73 474.567L135.696 474.562L135.662 474.558L135.627 474.554L135.592 474.55L135.558 474.546L135.523 474.542L135.488 474.538L135.452 474.533L135.417 474.529L135.381 474.525L135.345 474.521L135.309 474.516L135.273 474.512L135.237 474.508L135.2 474.503L135.163 474.499L135.127 474.495L135.09 474.49L135.052 474.486L135.015 474.481L134.977 474.477L134.94 474.472L134.902 474.468L134.864 474.463L134.825 474.459L134.787 474.454L134.748 474.45L134.71 474.445L134.671 474.44L134.631 474.436L134.592 474.431L134.553 474.426L134.513 474.422L134.473 474.417L134.433 474.412L134.393 474.407L134.352 474.403L134.312 474.398L134.271 474.393L134.23 474.388L134.189 474.383L134.148 474.378L134.106 474.373L134.064 474.368L134.023 474.363L133.98 474.358L133.938 474.353L133.896 474.348L133.853 474.343L133.81 474.338L133.767 474.333L133.724 474.328L133.681 474.323L133.637 474.318L133.594 474.312L133.55 474.307L133.506 474.302L133.461 474.297L133.417 474.291L133.372 474.286L133.327 474.281L133.282 474.275L133.237 474.27L133.191 474.264L133.146 474.259L133.1 474.254L133.054 474.248L133.008 474.243L132.961 474.237L132.915 474.231L132.868 474.226L132.821 474.22L132.774 474.215L132.726 474.209L132.679 474.203L132.631 474.198L132.583 474.192L132.535 474.186L132.486 474.181L132.438 474.175L132.389 474.169L132.34 474.163L132.291 474.157L132.241 474.151L132.192 474.145L132.142 474.14L132.092 474.134L132.042 474.128L131.991 474.122L131.941 474.116L131.89 474.11L131.839 474.103L131.788 474.097L131.736 474.091L131.685 474.085L131.633 474.079L131.581 474.073L131.529 474.067L131.476 474.06L131.424 474.054L131.371 474.048L131.318 474.041L131.264 474.035L131.211 474.029L131.157 474.022L131.103 474.016L131.049 474.01L130.995 474.003L130.94 473.997C121.984 472.931 115.628 463.036 116.979 451.69C118.329 440.345 126.829 432.218 135.785 433.284L135.811 433.287L135.837 433.29L135.863 433.293L135.888 433.296L135.914 433.299L135.94 433.302L135.966 433.305L135.992 433.308L136.017 433.311L136.043 433.315L136.069 433.318L136.095 433.321L136.121 433.324L136.147 433.327L136.173 433.33L136.199 433.333L136.225 433.336L136.251 433.339L136.276 433.342L136.302 433.345L136.328 433.348L136.354 433.352L136.38 433.355L136.406 433.358L136.432 433.361L136.458 433.364L136.484 433.367L136.51 433.37L136.537 433.373L136.563 433.376L136.589 433.379L136.615 433.383L136.641 433.386L136.667 433.389L136.693 433.392L136.719 433.395L136.745 433.398L136.771 433.401L136.797 433.404L136.823 433.407L136.85 433.41L136.876 433.414L136.902 433.417L136.928 433.42L136.954 433.423L136.98 433.426L137.006 433.429L137.032 433.432L137.059 433.435L137.085 433.438L137.111 433.442L137.137 433.445L137.163 433.448L137.189 433.451L137.216 433.454L137.242 433.457L137.268 433.46L137.294 433.463L137.32 433.466L137.346 433.47L137.373 433.473L137.399 433.476L137.425 433.479L137.451 433.482L137.477 433.485L137.503 433.488L137.529 433.491L137.556 433.494L137.582 433.498L137.608 433.501L137.634 433.504L137.66 433.507L137.686 433.51L137.712 433.513L137.739 433.516L137.765 433.519L137.791 433.522L137.817 433.526L137.843 433.529L137.869 433.532L137.895 433.535L137.921 433.538L137.947 433.541L137.973 433.544L138 433.547L138.026 433.55L138.052 433.554L138.078 433.557L138.104 433.56L138.13 433.563L138.156 433.566L138.182 433.569L138.208 433.572L138.234 433.575L138.26 433.578L138.286 433.581L138.312 433.584L138.338 433.588L138.364 433.591L138.39 433.594L138.416 433.597L138.442 433.6L138.468 433.603L138.493 433.606L138.519 433.609L138.545 433.612L138.571 433.615L138.597 433.618L138.623 433.621L138.649 433.625L138.674 433.628L138.7 433.631L138.726 433.634L138.752 433.637L138.778 433.64L138.803 433.643L138.829 433.646L138.855 433.649L138.881 433.652L138.906 433.655L138.932 433.658L138.958 433.661L138.983 433.664L139.009 433.667L139.034 433.67L139.06 433.674L139.086 433.677L139.111 433.68L139.137 433.683L139.162 433.686L139.188 433.689L139.213 433.692L139.239 433.695L139.264 433.698L139.29 433.701L139.315 433.704L139.34 433.707L139.366 433.71L139.391 433.713L139.416 433.716L139.442 433.719L139.467 433.722L139.492 433.725L139.518 433.728L139.543 433.731L139.568 433.734L139.593 433.737L139.618 433.74L139.643 433.743L139.669 433.746L139.694 433.749L139.719 433.752L139.744 433.755L139.769 433.758L139.794 433.761L139.819 433.764L139.844 433.767L139.869 433.77L139.893 433.773L139.918 433.776L139.943 433.779L139.968 433.782L139.993 433.785L140.018 433.787L140.042 433.79L140.067 433.793L140.092 433.796L140.116 433.799L140.141 433.802L140.166 433.805L140.19 433.808L140.215 433.811L140.239 433.814L140.264 433.817L140.288 433.82L140.313 433.823L140.337 433.825L140.361 433.828L140.386 433.831L140.41 433.834L140.434 433.837L140.458 433.84L140.483 433.843L140.507 433.846L140.531 433.849L140.555 433.851L140.579 433.854L140.603 433.857L140.627 433.86L140.651 433.863L140.675 433.866L140.699 433.869L140.723 433.871L140.747 433.874L140.771 433.877L140.794 433.88L140.818 433.883L140.842 433.886L140.866 433.888L140.889 433.891L140.913 433.894L140.936 433.897L140.96 433.9L140.983 433.902L141.007 433.905L141.03 433.908L141.054 433.911L141.077 433.914L141.1 433.916L141.124 433.919L141.147 433.922L141.17 433.925L141.193 433.927L141.216 433.93L141.239 433.933L141.262 433.936L141.285 433.938L141.308 433.941L141.331 433.944L141.354 433.947L141.377 433.949L141.4 433.952L141.422 433.955L141.445 433.957L141.468 433.96L141.49 433.963L141.513 433.965L141.536 433.968L141.558 433.971L141.581 433.973L141.603 433.976L141.625 433.979L141.648 433.981L141.67 433.984L141.692 433.987L141.714 433.989L141.736 433.992L141.759 433.995L141.781 433.997L141.803 434L141.825 434.003L141.846 434.005L141.868 434.008L141.89 434.01L141.912 434.013L141.934 434.015L141.955 434.018L141.977 434.021L141.998 434.023L142.02 434.026L142.041 434.028L142.063 434.031L142.084 434.033L142.106 434.036L142.127 434.038L142.148 434.041L142.169 434.044L142.19 434.046L142.212 434.049L142.233 434.051L142.254 434.054L142.274 434.056L142.295 434.059L142.316 434.061L142.337 434.063L142.358 434.066L142.378 434.068L142.399 434.071L142.419 434.073L142.44 434.076L142.46 434.078L142.481 434.081L142.501 434.083L142.521 434.085L142.542 434.088L142.562 434.09L142.582 434.093L142.602 434.095L142.622 434.097L142.642 434.1L142.662 434.102L142.682 434.105L142.702 434.107L142.721 434.109L142.741 434.112L142.761 434.114L142.78 434.116L142.8 434.119L142.819 434.121L142.838 434.123L142.858 434.125L142.877 434.128L142.896 434.13L142.915 434.132L142.935 434.135L142.954 434.137L142.972 434.139L142.991 434.141L143.01 434.144L143.029 434.146L143.048 434.148L143.066 434.15L143.085 434.153L143.104 434.155L143.122 434.157L143.14 434.159L143.159 434.161L143.177 434.163L143.195 434.166L143.213 434.168L143.232 434.17L143.25 434.172L143.267 434.174L143.285 434.176L143.303 434.178L143.321 434.181L143.339 434.183L143.356 434.185L143.374 434.187L143.391 434.189L143.409 434.191L143.426 434.193L143.444 434.195L143.461 434.197L143.478 434.199L143.495 434.201L143.512 434.203L143.529 434.205L143.546 434.207L143.563 434.209L143.579 434.211L143.596 434.213L143.613 434.215L143.629 434.217L143.646 434.219L143.662 434.221L143.679 434.223L143.695 434.225L143.711 434.227L143.727 434.229L143.743 434.231L143.759 434.233L143.775 434.235L143.791 434.237L143.807 434.238L143.822 434.24L143.838 434.242L143.854 434.244L143.869 434.246L143.884 434.248L143.9 434.249L143.915 434.251L143.93 434.253L143.945 434.255L143.96 434.257L143.975 434.258L143.99 434.26L144.005 434.262L144.02 434.264L144.034 434.265L144.049 434.267L144.063 434.269L144.078 434.271L144.092 434.272L144.106 434.274L144.121 434.276L144.135 434.277L144.149 434.279L144.163 434.281L144.176 434.282L144.19 434.284L144.204 434.286L144.218 434.287L144.231 434.289L144.245 434.291L144.258 434.292L144.271 434.294L144.285 434.295L144.298 434.297L144.311 434.298L144.324 434.3L144.337 434.301L144.349 434.303L144.362 434.304L144.375 434.306L144.387 434.307L144.4 434.309L144.412 434.31L144.425 434.312L144.437 434.313L144.449 434.315L144.461 434.316L144.473 434.318L144.485 434.319L144.497 434.321L144.508 434.322L144.52 434.323L144.532 434.325L144.543 434.326L144.554 434.327L144.566 434.329L144.577 434.33L144.588 434.331L144.599 434.333L144.61 434.334L144.621 434.335L144.632 434.337L144.642 434.338L144.653 434.339L144.663 434.34L144.674 434.342L144.684 434.343L144.694 434.344L144.704 434.345L144.714 434.346L144.722 434.347L139.877 475.06Z"
                    fill="#7C7C7C" stroke="#121212"></path>
                <path id="Ellipse 1"
                    d="M157.691 456.535C156.341 467.881 147.84 476.008 138.884 474.942C129.928 473.876 123.572 463.981 124.922 452.636C126.273 441.29 134.773 433.163 143.729 434.229C152.685 435.295 159.041 445.19 157.691 456.535Z"
                    fill="#7C7C7C" stroke="#121212"></path>
            </g>
            <path id="Barbel 2"
                d="M542.691 559.754L138.813 462.849C131.342 457.931 135.739 446.37 142.69 447.197L547.301 542.175L542.691 559.754Z"
                fill="#7C7C7C" stroke="#121212"></path>
            <g id="Plate right">
                <path id="Ellipse 6"
                    d="M613.353 689.513L594.486 687.268C572.91 684.7 554.907 668.946 543.277 645.417C531.649 621.893 526.426 590.655 530.397 557.284C534.369 523.913 546.776 494.773 563.6 474.634C580.428 454.492 601.625 443.403 623.201 445.97L623.302 445.982L623.403 445.994L623.503 446.006L623.602 446.018L623.702 446.03L623.801 446.042L623.9 446.054L623.998 446.065L624.096 446.077L624.194 446.089L624.291 446.1L624.388 446.112L624.485 446.123L624.581 446.135L624.677 446.146L624.773 446.157L624.868 446.169L624.963 446.18L625.058 446.191L625.152 446.203L625.246 446.214L625.339 446.225L625.433 446.236L625.526 446.247L625.618 446.258L625.711 446.269L625.803 446.28L625.894 446.291L625.986 446.302L626.077 446.313L626.167 446.323L626.258 446.334L626.348 446.345L626.437 446.356L626.527 446.366L626.616 446.377L626.705 446.387L626.793 446.398L626.881 446.408L626.969 446.419L627.056 446.429L627.143 446.44L627.23 446.45L627.317 446.46L627.403 446.47L627.489 446.481L627.574 446.491L627.659 446.501L627.744 446.511L627.829 446.521L627.913 446.531L627.997 446.541L628.08 446.551L628.164 446.561L628.247 446.571L628.329 446.581L628.412 446.591L628.494 446.6L628.575 446.61L628.657 446.62L628.738 446.629L628.819 446.639L628.899 446.649L628.979 446.658L629.059 446.668L629.139 446.677L629.218 446.686L629.297 446.696L629.376 446.705L629.454 446.715L629.532 446.724L629.61 446.733L629.687 446.742L629.764 446.751L629.841 446.761L629.918 446.77L629.994 446.779L630.07 446.788L630.145 446.797L630.221 446.806L630.296 446.815L630.37 446.824L630.445 446.832L630.519 446.841L630.593 446.85L630.666 446.859L630.739 446.868L630.812 446.876L630.885 446.885L630.957 446.893L631.029 446.902L631.101 446.911L631.173 446.919L631.244 446.928L631.315 446.936L631.385 446.944L631.456 446.953L631.526 446.961L631.595 446.969L631.665 446.978L631.734 446.986L631.803 446.994L631.871 447.002L631.94 447.01L632.008 447.018L632.075 447.027L632.143 447.035L632.21 447.043L632.277 447.05L632.343 447.058L632.41 447.066L632.476 447.074L632.542 447.082L632.607 447.09L632.672 447.098L632.737 447.105L632.802 447.113L632.866 447.121L632.93 447.128L632.994 447.136L633.057 447.143L633.121 447.151L633.184 447.158L633.246 447.166L633.309 447.173L633.371 447.181L633.433 447.188L633.494 447.195L633.556 447.203L633.617 447.21L633.678 447.217L633.738 447.224L633.798 447.232L633.858 447.239L633.918 447.246L633.978 447.253L634.037 447.26L634.096 447.267L634.154 447.274L634.213 447.281L634.271 447.288L634.329 447.295L634.386 447.302L634.444 447.308L634.501 447.315L634.558 447.322L634.614 447.329L634.67 447.335L634.726 447.342L634.782 447.349L634.838 447.355L634.893 447.362L634.948 447.368L635.003 447.375L635.057 447.381L635.111 447.388L635.165 447.394L635.219 447.401L635.273 447.407L635.326 447.413L635.379 447.42L635.432 447.426L635.484 447.432L635.536 447.438L635.588 447.445L635.64 447.451L635.691 447.457L635.743 447.463L635.793 447.469L635.844 447.475L635.895 447.481L635.945 447.487L635.995 447.493L636.045 447.499L636.094 447.505L636.143 447.511L636.192 447.516L636.241 447.522L636.29 447.528L636.338 447.534L636.386 447.539L636.434 447.545L636.481 447.551L636.529 447.556L636.576 447.562L636.622 447.568L636.669 447.573L636.715 447.579L636.762 447.584L636.807 447.59L636.853 447.595L636.898 447.6L636.944 447.606L636.989 447.611L637.033 447.617L637.078 447.622L637.122 447.627L637.166 447.632L637.21 447.638L637.253 447.643L637.297 447.648L637.34 447.653L637.383 447.658L637.425 447.663L637.468 447.668L637.51 447.673L637.552 447.678L637.594 447.683L637.635 447.688L637.676 447.693L637.717 447.698L637.758 447.703L637.799 447.708L637.839 447.712L637.88 447.717L637.919 447.722L637.959 447.727L637.999 447.731L638.038 447.736L638.077 447.741L638.116 447.745L638.155 447.75L638.193 447.755L638.231 447.759L638.269 447.764L638.307 447.768L638.345 447.773L638.382 447.777L638.419 447.781L638.456 447.786L638.493 447.79L638.529 447.795L638.565 447.799L638.602 447.803L638.637 447.807L638.673 447.812L638.708 447.816L638.744 447.82L638.779 447.824L638.814 447.828L638.848 447.833L638.883 447.837L638.917 447.841L638.951 447.845L638.985 447.849L639.018 447.853L639.052 447.857L639.085 447.861L639.118 447.865L639.151 447.868L639.183 447.872L639.216 447.876L639.248 447.88L639.28 447.884L639.312 447.888L639.343 447.891L639.375 447.895L639.406 447.899L639.437 447.903L639.468 447.906L639.498 447.91L639.529 447.913L639.559 447.917L639.589 447.921L639.619 447.924L639.648 447.928L639.678 447.931L639.707 447.935L639.736 447.938L639.765 447.942L639.794 447.945L639.822 447.948L639.851 447.952L639.879 447.955L639.907 447.958L639.934 447.962L639.962 447.965L639.989 447.968L640.017 447.972L640.044 447.975L640.07 447.978L640.097 447.981L640.123 447.984L640.15 447.987L640.176 447.991L640.202 447.994L640.228 447.997L640.253 448L640.279 448.003L640.304 448.006L640.329 448.009L640.354 448.012L640.378 448.015L640.403 448.018L640.427 448.02L640.451 448.023L640.475 448.026L640.499 448.029L640.523 448.032L640.546 448.035L640.57 448.037L640.593 448.04L640.616 448.043L640.638 448.046L640.661 448.048L640.683 448.051L640.706 448.054L640.728 448.056L640.75 448.059L640.772 448.061L640.793 448.064L640.815 448.067L640.836 448.069L640.857 448.072L640.878 448.074L640.899 448.077L640.919 448.079L640.94 448.081L640.96 448.084L640.98 448.086L641 448.089L641.02 448.091L641.04 448.093L641.059 448.096L641.079 448.098L641.098 448.1L641.117 448.102L641.136 448.105L641.154 448.107L641.173 448.109L641.191 448.111L641.21 448.114L641.228 448.116L641.246 448.118L641.264 448.12L641.281 448.122L641.299 448.124L641.316 448.126L641.333 448.128L641.35 448.13L641.367 448.132L641.384 448.134L641.401 448.136L641.417 448.138L641.433 448.14L641.449 448.142L641.466 448.144L641.481 448.146L641.497 448.148L641.513 448.15L641.528 448.151L641.543 448.153L641.559 448.155L641.574 448.157L641.589 448.159L641.603 448.16L641.618 448.162L641.632 448.164L641.647 448.166L641.661 448.167L641.675 448.169L641.689 448.171L641.703 448.172L641.716 448.174L641.73 448.175L641.743 448.177L641.756 448.179L641.77 448.18L641.783 448.182L641.795 448.183L641.808 448.185L641.821 448.186L641.833 448.188L641.845 448.189L641.858 448.191L641.87 448.192L641.882 448.193L641.893 448.195L641.905 448.196L641.917 448.198L641.928 448.199L641.939 448.2L641.951 448.202L641.962 448.203L641.973 448.204L641.983 448.206L641.994 448.207L642.005 448.208L642.015 448.209L642.026 448.211L642.036 448.212L642.046 448.213L642.056 448.214L642.066 448.215L642.068 448.216L613.353 689.513Z"
                    fill="#494949" stroke="#121212"></path>
                <path id="Ellipse 5"
                    d="M705.164 578.082C701.193 611.453 688.785 640.593 671.961 660.731C655.133 680.874 633.937 691.963 612.36 689.395C590.784 686.827 572.781 671.073 561.151 647.544C549.523 624.02 544.3 592.782 548.271 559.411C552.242 526.04 564.65 496.9 581.474 476.761C598.302 456.619 619.499 445.53 641.075 448.098C662.652 450.665 680.654 466.419 692.285 489.948C703.913 513.472 709.135 544.71 705.164 578.082Z"
                    fill="#494949" stroke="#121212"></path>
            </g>
            <path id="Barbel 3"
                d="M712.902 575.977L712.909 575.979L712.916 575.98L775.7 589.998C778.721 590.672 780.88 592.576 782.176 595.354C783.478 598.147 783.91 601.834 783.411 606.024C782.92 610.152 780.889 613.837 778.387 616.35C775.861 618.887 772.969 620.126 770.766 619.628C768.315 619.073 752.263 615.4 736.822 611.866C729.102 610.099 721.534 608.367 715.897 607.076L709.112 605.523L707.221 605.09L706.724 604.976L706.597 604.947L706.564 604.939L706.557 604.938L706.556 604.937L706.554 604.937L706.554 604.937L706.544 604.935L706.505 604.925L706.349 604.888L705.742 604.744C705.21 604.618 704.428 604.432 703.431 604.195C701.437 603.721 698.582 603.041 695.136 602.217C688.243 600.571 678.988 598.353 669.537 596.064C660.085 593.774 650.438 591.415 642.763 589.487C635.07 587.555 629.396 586.065 627.857 585.511C622.931 583.74 619.095 577.797 620.086 569.468C620.584 565.279 622.134 561.643 624.207 559.155C626.265 556.686 628.787 555.397 631.292 555.695C631.641 555.737 633.167 556.078 635.632 556.663C638.074 557.242 641.396 558.051 645.296 559.01C653.097 560.93 663.209 563.455 673.225 565.968C683.241 568.482 693.16 570.984 700.576 572.858C704.283 573.795 707.365 574.575 709.52 575.12L712.019 575.753L712.677 575.92L712.845 575.963L712.888 575.973L712.899 575.976L712.901 575.977C712.902 575.977 712.902 575.977 713.025 575.492L712.902 575.977Z"
                fill="#7C7C7C" stroke="#121212"></path>
        </g>
        <g id="Hand right">
            <path
                d="M484 483.473C479.504 488.59 464.496 492.462 456.198 490.473C456.105 495.473 457.254 499.493 456.198 502.473C455.197 505.301 451.671 515.113 448.709 518.559C445.669 522.095 442.43 533.444 443.818 539.471C444.928 544.293 449.124 546.238 451.083 546.608C453.918 552.788 463.252 558.504 468.422 560.934C473.961 564.237 477.402 562.101 476.449 559.583C483.18 563.309 488.993 557.317 487.549 554.289C495.088 557.63 496.438 552.306 496.5 548.973C490 547.973 489.078 543.816 488.792 541.31C488.333 537.301 490.993 530.516 493.552 527.396C501.48 504.54 485.5 502.973 484 483.473Z"
                fill="#F2EFE6"></path>
            <path
                d="M487.549 554.289C495.088 557.63 496.438 552.306 496.5 548.973C490 547.973 489.078 543.816 488.792 541.31C488.333 537.301 490.993 530.516 493.552 527.396C501.48 504.54 485.5 502.973 484 483.473C479.504 488.59 464.496 492.462 456.198 490.473C456.105 495.473 457.254 499.493 456.198 502.473C455.197 505.301 451.671 515.113 448.709 518.559C445.669 522.095 442.43 533.444 443.818 539.471C444.928 544.293 449.124 546.238 451.083 546.608M487.549 554.289C488.993 557.317 483.18 563.309 476.449 559.583M487.549 554.289C484.396 553.563 477.415 550.699 474.719 545.048C472.024 539.397 473.073 535.016 473.934 533.532M476.449 559.583C477.402 562.101 473.961 564.237 468.422 560.934C463.252 558.504 453.918 552.788 451.083 546.608M476.449 559.583C472.163 557.003 463.113 550.633 461.203 545.796C459.293 540.96 461.699 528.136 463.141 522.328M451.083 546.608C450.474 545.281 450.165 543.933 450.261 542.592C450.203 536.756 450.465 526.293 456.198 519.198"
                stroke="#121212"></path>
        </g>
        <g id="Hand left">
            <path
                d="M243.251 500.335C243.869 506.817 234.2 506.043 231.164 500.748C225.119 499.922 219.093 494.106 214.96 488.738C211.346 486.74 210.561 484.324 210.243 482.287C209.925 480.25 209.735 473.204 214.31 465.084C219.693 455.53 212.903 445.386 214.96 431.473C216.321 438.625 239.705 441.008 245 437.973C246 443.973 257.142 448.188 261 451.973C271.144 461.928 272.209 468.817 268.455 477.012L252.158 474.031C240.753 480.228 245.956 487.082 249.192 490.164L257.567 491.921L267.421 493.988C269.373 505.711 260.457 509.925 257.69 496.119C257.69 496.119 256.889 497.541 256.015 497.976C255.295 498.335 253.978 498.294 253.978 498.294C254.479 503.861 247.915 504.272 243.251 500.335Z"
                fill="#F2EFE6"></path>
            <path
                d="M231.164 500.748C234.2 506.043 243.869 506.817 243.251 500.335M231.164 500.748C219.224 488.451 217.94 485.996 224.63 462.001M231.164 500.748C225.119 499.922 219.093 494.106 214.96 488.738M243.251 500.335C247.915 504.272 254.479 503.861 253.978 498.294M243.251 500.335C238.947 492.415 225.161 494.18 231.919 464.669M253.978 498.294C252.268 496.857 248.553 492.786 249.192 490.164M253.978 498.294C253.978 498.294 255.295 498.335 256.015 497.976C256.889 497.541 257.69 496.119 257.69 496.119M257.69 496.119C260.457 509.925 269.373 505.711 267.421 493.988L257.567 491.921M257.69 496.119L257.567 491.921M257.567 491.921L249.192 490.164M249.192 490.164C245.956 487.082 240.753 480.228 252.158 474.031L268.455 477.012C272.209 468.817 271.144 461.928 261 451.973C257.142 448.188 246 443.973 245 437.973C239.705 441.008 216.321 438.625 214.96 431.473C212.903 445.386 219.693 455.53 214.31 465.084C209.735 473.204 209.925 480.25 210.243 482.287C210.561 484.324 211.346 486.74 214.96 488.738M214.96 488.738C214.217 484.822 213.952 475.695 219.56 462.546"
                stroke="#121212"></path>
        </g>
        <path id="Pents"
            d="M521 311.473C538.2 295.473 534.5 270.307 530.5 259.473C568.1 269.873 573.167 326.473 571 353.473C562.6 395.873 535.833 404.14 523.5 402.973C551.1 351.773 540 325.473 521 311.473Z"
            fill="#424651" stroke="#121212"></path>
    </g>
</svg>