<svg width="493" height="920" viewBox="0 0 493 920" fill="none" xmlns="http://www.w3.org/2000/svg">
    <g id="calf_back_left">
        <path id="calf_back_left_1"
            d="M173.445 642C186.445 622.24 185.945 636 185.945 655.5C184.745 668.7 191.755 729.22 188.945 759C186.445 785.5 163.511 780 160.945 760.5C152.945 699.7 160.945 661 173.445 642Z"
            fill="#FBFBFB"></path>
        <path id="calf_back_left_2"
            d="M219.445 728C226.302 791.618 192.547 790 193.945 762.5C195.145 738.901 191.112 690 188.945 668.5C187.745 646.5 187.945 629.5 192.445 629.5C194.945 629.5 210.445 644.5 219.445 728Z"
            fill="#FBFBFB"></path>
    </g>
    <g id="calf_back_right">
        <path id="calf_back_right_1"
            d="M320.445 641.591C307.445 621.831 307.945 635.591 307.945 655.091C309.145 668.291 302.136 728.812 304.945 758.591C307.445 785.091 330.379 779.591 332.945 760.091C340.945 699.291 332.945 660.591 320.445 641.591Z"
            fill="#FBFBFB"></path>
        <path id="calf_back_right_2"
            d="M274.445 727.592C267.588 791.209 301.344 789.591 299.945 762.092C298.745 738.492 302.779 689.592 304.945 668.092C306.145 646.092 305.945 629.092 301.445 629.092C298.945 629.091 283.445 644.092 274.445 727.592Z"
            fill="#FBFBFB"></path>
    </g>
</svg>