<svg width="493" height="920" viewBox="0 0 493 920" fill="none" xmlns="http://www.w3.org/2000/svg">
    <g id="forearm_back_left">
        <path id="forearm_back_left_1"
            d="M79.4452 400.5C90.4452 379.5 111.945 325.5 101.445 289.5C79.4451 309.5 75.9452 327.5 73.4451 351.5C74.2451 369.9 63.9451 384.5 59.9452 391.5C53.0881 403.5 76.3023 406.5 79.4452 400.5Z"
            fill="#FBFBFB"></path>
        <path id="forearm_back_left_2
                " d="M140.445 304.5C95.9452 326 113.445 340.5 93.9452 375C110.612 362.667 143.245 331.3 140.445 304.5Z"
            fill="#FBFBFB"></path>
    </g>
    <g id="forearm_back_right">
        <path id="forearm_back_right_1"
            d="M414.445 400.091C403.445 379.091 381.945 325.091 392.445 289.091C414.445 309.091 417.945 327.091 420.445 351.091C419.645 369.491 429.945 384.091 433.945 391.091C440.802 403.091 417.588 406.091 414.445 400.091Z"
            fill="#FBFBFB"></path>
        <path id="forearm_back_right_2"
            d="M353.445 304.091C397.945 325.591 380.445 340.091 399.945 374.591C383.279 362.258 350.645 330.891 353.445 304.091Z"
            fill="#FBFBFB"></path>
    </g>
</svg>