<svg width="493" height="920" viewBox="0 0 493 920" fill="none" xmlns="http://www.w3.org/2000/svg">
    <g id="hamstering_left">
        <path id="hamstering_left_1"
            d="M184.945 472C178.545 464.8 177.612 459.333 177.945 457.5C170.345 462.7 163.112 476 160.445 482C153.245 498 156.445 532.667 158.945 548C160.545 522 173.945 485.5 184.945 472Z"
            fill="#FBFBFB"></path>
        <path id="hamstering_left_2"
            d="M195.445 480C190.245 478 187.612 475.5 186.945 474.5C174.445 492.5 163.845 527.6 161.445 554C159.991 570 161.645 583.6 168.445 600C172.445 608 173.445 621.5 169.945 641C173.945 630.5 185.77 621.5 185.945 597C186.345 541 183.945 519.5 195.445 480Z"
            fill="#FBFBFB"></path>
        <path id="hamstering_left_3"
            d="M212.445 483C208.045 483.8 201.612 482.667 198.945 482C186.945 512 188.045 585 190.445 599C196.617 635 209.445 643 213.445 665C229.445 645 229.445 585.5 229.445 556.5C215.845 536.1 212.445 506.5 212.445 483Z"
            fill="#FBFBFB"></path>
    </g>
    <g id="hamstering_right">
        <path id="hamstering_right_1"
            d="M308.945 471.591C315.345 464.391 316.278 458.925 315.945 457.091C323.545 462.291 330.778 475.591 333.445 481.591C340.645 497.591 337.445 532.258 334.945 547.591C333.345 521.591 319.945 485.091 308.945 471.591Z"
            fill="#FBFBFB"></path>
        <path id="hamstering_right_2"
            d="M298.445 479.591C303.645 477.591 306.279 475.091 306.945 474.091C319.445 492.091 330.045 527.191 332.445 553.591C333.9 569.591 332.245 583.191 325.445 599.591C321.445 607.591 320.445 621.091 323.945 640.591C319.945 630.091 308.12 621.091 307.945 596.591C307.545 540.591 309.945 519.091 298.445 479.591Z"
            fill="#FBFBFB"></path>
        <path id="hamstering_right_3"
            d="M281.445 482.591C285.845 483.391 292.279 482.258 294.945 481.591C306.945 511.591 305.845 584.591 303.445 598.591C297.274 634.591 284.445 642.591 280.445 664.591C264.445 644.591 264.445 585.091 264.445 556.091C278.045 535.691 281.445 506.091 281.445 482.591Z"
            fill="#FBFBFB"></path>
    </g>
</svg>