<svg width="493" height="920" viewBox="0 0 493 920" fill="none" xmlns="http://www.w3.org/2000/svg">
    <path id="latisimus_left"
        d="M200.945 225.5C182.945 234.3 166.445 227.5 161.945 216.5C158.945 239 159.545 271.5 177.945 295.5C182.945 300.5 192.945 314.6 192.945 331C208.445 331 238.845 315.2 242.445 300C220.445 284.5 200.945 249.5 200.945 225.5Z"
        fill="#FBFBFB"></path>
    <path id="latisimus_right"
        d="M292.945 225.091C310.945 233.891 327.445 227.091 331.945 216.091C334.945 238.591 334.345 271.091 315.945 295.091C310.945 300.091 300.945 314.191 300.945 330.591C285.445 330.591 255.045 314.791 251.445 299.591C273.445 284.091 292.945 249.091 292.945 225.091Z"
        fill="#FBFBFB"></path>
</svg>