<svg width="493" height="920" viewBox="0 0 493 920" fill="none" xmlns="http://www.w3.org/2000/svg">
    <path id="obliques_left"
        d="M185.445 316C187.945 319 189.345 329.3 188.945 334.5C195.945 350 196.245 367 193.445 377C189.185 379.367 180.892 385.318 180.02 389.34C179.996 389.558 179.971 389.778 179.945 390C179.945 389.787 179.971 389.567 180.02 389.34C181.816 372.801 176.945 365.23 176.945 353.5C176.945 343 184.945 335 185.445 316Z"
        fill="#FBFBFB"></path>
    <path id="obliques_right"
        d="M308.445 315.591C305.945 318.591 304.545 328.891 304.945 334.091C297.945 349.591 297.645 366.591 300.445 376.591C304.705 378.958 312.999 384.91 313.871 388.931C313.894 389.15 313.919 389.37 313.945 389.591C313.945 389.378 313.92 389.158 313.871 388.931C312.075 372.392 316.945 364.821 316.945 353.091C316.945 342.591 308.945 334.591 308.445 315.591Z"
        fill="#FBFBFB"></path>
</svg>