<svg width="493" height="920" viewBox="0 0 493 920" fill="none" xmlns="http://www.w3.org/2000/svg">
    <g id="shoulders_back_left">
        <path id="shoulders_back_left_1"
            d="M164.945 154C122.945 162.5 116.945 209.5 128.445 232C133.445 227.5 134.945 226 137.945 223L137.945 223C133.945 210 152.945 173 177.445 161.5C173.945 159 167.945 158 164.945 154Z"
            fill="#FBFBFB"></path>
        <path id="shoulders_back_left_2"
            d="M180.445 162.5C162.742 173.774 142.184 200.864 139.945 221.5C169.945 194 180.114 210.861 196.711 187.709C199.082 164.556 180.445 162.5 180.445 162.5Z"
            fill="#FBFBFB"></path>
    </g>
    <g id="shoulders_back_right">
        <path id="shoulders_back_right_1"
            d="M328.945 153.591C370.945 162.091 376.945 209.091 365.445 231.591C360.445 227.091 358.945 225.591 355.945 222.591L355.945 222.591C359.945 209.591 340.945 172.591 316.445 161.091C319.945 158.591 325.945 157.591 328.945 153.591Z"
            fill="#FBFBFB"></path>
        <path id="shoulders_back_right_2"
            d="M313.445 162.091C331.148 173.365 351.706 200.456 353.945 221.091C323.945 193.591 313.776 210.452 297.179 187.3C294.808 164.148 313.445 162.091 313.445 162.091Z"
            fill="#FBFBFB"></path>
    </g>
</svg>