<svg width="493" height="920" viewBox="0 0 493 920" fill="none" xmlns="http://www.w3.org/2000/svg">
    <path id="trapezius_back_left"
        d="M243.945 129.5C243.945 138.7 233.612 145 228.445 147C239.645 147 243.945 158.5 243.945 165.5V297C206.745 261.4 201.445 226 201.445 179C198.445 160.5 187.945 166 169.445 152C176.245 145.6 197.445 134.5 208.945 131.5C226.945 124.5 230.945 108 235.945 95.5C239.931 85.5345 243.279 92.5 243.945 97V129.5Z"
        fill="#FBFBFB"></path>
    <path id="trapezius_back_right"
        d="M249.945 129.091C249.945 138.291 260.279 144.591 265.445 146.591C254.245 146.591 249.945 158.091 249.945 165.091V296.591C287.145 260.991 292.445 225.591 292.445 178.591C295.445 160.091 305.945 165.591 324.445 151.591C317.645 145.191 296.445 134.091 284.945 131.091C266.945 124.091 262.945 107.591 257.945 95.0913C253.959 85.1258 250.612 92.0913 249.945 96.5913V129.091Z"
        fill="#FBFBFB"></path>
</svg>