<svg width="493" height="920" viewBox="0 0 493 920" fill="none" xmlns="http://www.w3.org/2000/svg">
    <g id="triceps_left">
        <path id="triceps_left_1"
            d="M107.945 303C106.445 278 90.9452 272.5 142.945 224.5C130.945 250.5 129.445 255.5 129.445 269.5C119.445 275 124.945 294.5 107.945 303Z"
            fill="#FBFBFB"></path>
        <path id="triceps_left_2"
            d="M134.445 282C133.445 268 136.945 224 158.945 214.5C154.945 228.5 157.279 256.333 158.945 268.5C161.745 287.3 138.445 301.333 126.445 306C124.845 299.2 131.112 287.167 134.445 282Z"
            fill="#FBFBFB"></path>
    </g>
    <g id="triceps_right">
        <path id="triceps_right_1"
            d="M385.945 302.591C387.445 277.591 402.945 272.091 350.945 224.091C362.945 250.091 364.445 255.091 364.445 269.091C374.445 274.591 368.945 294.091 385.945 302.591Z"
            fill="#FBFBFB"></path>
        <path id="triceps_right_2"
            d="M359.445 281.591C360.445 267.591 356.945 223.591 334.945 214.091C338.945 228.091 336.612 255.925 334.945 268.091C332.145 286.891 355.445 300.925 367.445 305.591C369.045 298.791 362.779 286.758 359.445 281.591Z"
            fill="#FBFBFB"></path>
    </g>
</svg>