<svg width="826" height="668" viewBox="0 0 826 668" fill="none" xmlns="http://www.w3.org/2000/svg">
    <g id="End">
        <g id="Foot right">
            <path
                d="M503.263 606.5C500.863 606.1 497.263 596 495.763 591L531.263 581.5C535.31 586.141 541.494 593 541.263 596C539.763 615.5 544.263 625.5 540.263 635.5C539.063 653.1 531.43 657.833 527.763 658C526.763 665.5 518.763 663.5 518.763 659.5C518.363 663.1 510.163 664 509.763 660C510.163 664 501.985 667 500.763 661.5C501.763 666 491.763 670.5 491.263 661.5C488.463 669.1 475.763 665.625 474.263 663C471.063 657.4 477.263 641 484.763 635C491.263 632 495.763 615.5 503.263 606.5Z"
                fill="#F2EFE6"></path>
            <path
                d="M491.263 661.5C488.463 669.1 475.763 665.625 474.263 663C471.063 657.4 477.263 641 484.763 635C491.263 632 495.763 615.5 503.263 606.5C500.863 606.1 497.263 596 495.763 591L531.263 581.5C535.31 586.141 541.494 593 541.263 596C539.763 615.5 544.263 625.5 540.263 635.5C539.063 653.1 531.43 657.833 527.763 658M491.263 661.5C491.763 670.5 501.763 666 500.763 661.5M491.263 661.5C492.097 655.167 491.263 644 497.763 639M500.763 661.5C501.985 667 510.163 664 509.763 660M500.763 661.5C500.93 657.167 501.563 646.2 504.763 643M509.763 660C510.163 664 518.363 663.1 518.763 659.5M509.763 660C509.763 655.5 510.263 649 513.763 647M518.763 659.5C518.763 663.5 526.763 665.5 527.763 658M518.763 659.5C518.763 657.5 519.463 652.8 522.263 650M527.763 658C527.93 657.333 528.463 655.8 529.263 655"
                stroke="#121212"></path>
        </g>
        <path id="Foot left"
            d="M315.263 588.5C318.463 585.7 343.763 573 360.763 568L401.263 555.5C428.863 586.7 414.763 609.5 388.763 609.5C370.263 609.5 350.763 600.697 343.763 606C327.263 618.5 306.763 612 305.263 612.5C301.183 613.86 293.763 614.5 286.763 614C279.763 613.5 276.763 600.5 288.263 600C297.463 599.6 309.763 593.313 315.263 588.5Z"
            fill="#F2EFE6" stroke="#121212"></path>
        <path id="Body"
            d="M296.263 264L276.763 250L404.763 173.5L412.263 176.5L445.763 237L470.263 277L483.263 348L453.263 386L400.763 352L349.263 277L296.263 264Z"
            fill="#F2EFE6" stroke="#121212"></path>
        <path id="Traps left"
            d="M296.763 249C288.763 251.4 279.763 250.667 276.263 250C268.263 234 259.263 240 259.763 208L270.763 212.5L294.763 230C298.763 235.333 304.763 246.6 296.763 249Z"
            fill="#F2EFE6" stroke="#121212"></path>
        <path id="Neck right"
            d="M366.263 238.5C362.663 245.3 345.097 252.667 336.763 255.5C339.763 233.5 319.263 206.5 334.263 165L373.263 206.5C372.43 214.333 369.863 231.7 366.263 238.5Z"
            fill="#F2EFE6" stroke="#121212"></path>
        <g id="Shoulder right">
            <path
                d="M372.263 271L350.263 254C366.763 248 381.009 232.084 390.685 217.5C399.288 204.535 406.314 191.119 408.534 181.5C409.046 179.281 408.573 176.763 408.534 175C465.334 167.8 492.763 179 511.263 207.5L503.57 216.5L484.763 238.5L439.763 256L372.263 271Z"
                fill="#F2EFE6"></path>
            <path
                d="M511.263 207.5C492.763 179 465.334 167.8 408.534 175C408.573 176.763 409.046 179.281 408.534 181.5M511.263 207.5C480.263 195.5 478.263 177 408.534 181.5M511.263 207.5L503.57 216.5M408.534 181.5C406.314 191.119 399.288 204.535 390.685 217.5M390.685 217.5C381.009 232.084 366.763 248 350.263 254L372.263 271L439.763 256L484.763 238.5L503.57 216.5M390.685 217.5C421.763 227.5 476.263 203.5 503.57 216.5"
                stroke="#121212"></path>
        </g>
        <path id="Traps right"
            d="M365.763 239.5C383.763 226.5 396.763 191 414.763 174C392.763 163 362.763 171 334.263 165.5C346.763 201 380.263 209.5 365.763 239.5Z"
            fill="#F2EFE6" stroke="#121212"></path>
        <path id="Pelvis right"
            d="M466.763 315L479.763 308L511.763 319.5L529.763 322.5L542.263 338.5L544.263 371L476.263 360L466.763 315Z"
            fill="#F2EFE6" stroke="#121212"></path>
        <g id="Obliques right">
            <path
                d="M425.763 333C446.163 325 454.263 307 455.763 299C459.763 295.667 469.463 293.3 476.263 310.5C483.063 327.7 479.763 345.333 477.263 352C459.663 372 453.263 363 452.263 356C435.063 366.4 429.763 353.5 435.763 347.5C431.263 352 400.263 343 425.763 333Z"
                fill="#F2EFE6"></path>
            <path
                d="M455.763 299C454.263 307 446.163 325 425.763 333C400.263 343 431.263 352 435.763 347.5M455.763 299C469.763 316 440.263 343 435.763 347.5M455.763 299C459.763 295.667 469.463 293.3 476.263 310.5C483.063 327.7 479.763 345.333 477.263 352C459.663 372 453.263 363 452.263 356M435.763 347.5C429.763 353.5 435.063 366.4 452.263 356M452.263 356C458.263 352.372 471.763 326.9 467.763 308.5"
                stroke="#121212"></path>
        </g>
        <path id="Lats right"
            d="M497.263 297.5C498.225 312.414 519.763 321 528.763 322C466.763 325.6 447.206 290.5 441.263 274.5C434.763 257 434.763 257 456.263 247.5L456.263 247.5L477.263 245.5L494.763 261.5C502.263 280.5 496.263 282 497.263 297.5Z"
            fill="#F2EFE6" stroke="#121212"></path>
        <g id="Triceps right">
            <path
                d="M539.763 246.5C571.93 243.167 624.063 241.5 575.263 261.5C572.738 262.535 570.238 263.462 567.763 264.29C522.408 279.451 484.881 259.853 471.763 248L472.763 243.5L506.263 245L539.763 246.5Z"
                fill="#F2EFE6"></path>
            <path
                d="M506.263 245L539.763 246.5C571.93 243.167 624.063 241.5 575.263 261.5C572.738 262.535 570.238 263.462 567.763 264.29M506.263 245L472.763 243.5L471.763 248C484.881 259.853 522.408 279.451 567.763 264.29M506.263 245C522.263 247.86 556.963 255.721 567.763 264.29"
                stroke="#121212"></path>
        </g>
        <g id="Biceps right">
            <path
                d="M557.263 250.5C519.763 267 474.263 242 453.763 248.5C459.593 246.243 462.397 243.585 466.691 240C485.231 224.523 494.26 201.098 535.263 208L543.028 223L557.263 250.5Z"
                fill="#F2EFE6"></path>
            <path
                d="M466.691 240C485.231 224.523 494.26 201.098 535.263 208L543.028 223M466.691 240C462.397 243.585 459.593 246.243 453.763 248.5C474.263 242 519.763 267 557.263 250.5L543.028 223M466.691 240C483.558 229.833 522.44 212.2 543.028 223"
                stroke="#121212"></path>
        </g>
        <path id="Adductors right"
            d="M528.263 321.5C536.263 320.7 540.597 322.5 541.763 323.5L549.763 336.5L535.263 362.5C527.097 362.333 513.063 360.4 522.263 354C531.463 347.6 530.097 329.667 528.263 321.5Z"
            fill="#F2EFE6" stroke="#121212"></path>
        <path id="Forearm right"
            d="M561.763 254.5C539.263 250 539.763 207 519.263 180.5C533.663 184.1 540.597 175.667 542.263 171L580.263 222.5C580.263 222.5 584.263 259 561.763 254.5Z"
            fill="#F2EFE6" stroke="#121212"></path>
        <g id="Barbel">
            <path id="Barbel 1"
                d="M11.3324 136.646C13.9698 137.021 24.971 137 24.971 137L26.5655 115.4C26.5655 115.4 17.6078 114.323 12.9271 115.046C2.02077 117.065 1.70997 132.598 11.3324 136.646Z"
                fill="#7C7C7C" stroke="#121212"></path>
            <g id="Plate Left">
                <path id="Ellipse 4"
                    d="M123.116 228.45L107.933 229.17C63.8361 231.263 25.866 189.46 23.3086 135.577C20.7513 81.694 54.5916 36.4825 98.6887 34.3896L98.7783 34.3854L98.8675 34.3811L98.9564 34.3769L99.045 34.3727L99.1332 34.3685L99.221 34.3644L99.3086 34.3602L99.3957 34.3561L99.4826 34.3519L99.5691 34.3478L99.6553 34.3437L99.7411 34.3397L99.8266 34.3356L99.9118 34.3316L99.9967 34.3275L100.081 34.3235L100.165 34.3195L100.249 34.3156L100.333 34.3116L100.416 34.3076L100.499 34.3037L100.581 34.2998L100.663 34.2959L100.745 34.292L100.827 34.2881L100.908 34.2843L100.989 34.2804L101.07 34.2766L101.15 34.2728L101.23 34.269L101.309 34.2652L101.389 34.2615L101.468 34.2577L101.546 34.254L101.625 34.2503L101.703 34.2466L101.78 34.2429L101.858 34.2392L101.935 34.2356L102.011 34.2319L102.088 34.2283L102.164 34.2247L102.24 34.2211L102.315 34.2175L102.39 34.2139L102.465 34.2104L102.54 34.2068L102.614 34.2033L102.688 34.1998L102.761 34.1963L102.835 34.1928L102.908 34.1894L102.98 34.1859L103.053 34.1825L103.125 34.1791L103.197 34.1757L103.268 34.1723L103.339 34.1689L103.41 34.1655L103.481 34.1622L103.551 34.1589L103.621 34.1555L103.69 34.1522L103.76 34.1489L103.829 34.1457L103.897 34.1424L103.966 34.1392L104.034 34.1359L104.102 34.1327L104.169 34.1295L104.237 34.1263L104.303 34.1231L104.37 34.12L104.436 34.1168L104.503 34.1137L104.568 34.1106L104.634 34.1075L104.699 34.1044L104.764 34.1013L104.828 34.0982L104.893 34.0952L104.957 34.0921L105.02 34.0891L105.084 34.0861L105.147 34.0831L105.21 34.0801L105.273 34.0771L105.335 34.0742L105.397 34.0712L105.459 34.0683L105.52 34.0654L105.581 34.0625L105.642 34.0596L105.703 34.0567L105.763 34.0539L105.823 34.051L105.883 34.0482L105.942 34.0454L106.001 34.0426L106.06 34.0398L106.119 34.037L106.177 34.0342L106.235 34.0314L106.293 34.0287L106.351 34.026L106.408 34.0233L106.465 34.0205L106.522 34.0179L106.578 34.0152L106.634 34.0125L106.69 34.0099L106.746 34.0072L106.801 34.0046L106.856 34.002L106.911 33.9994L106.966 33.9968L107.02 33.9942L107.074 33.9916L107.128 33.9891L107.181 33.9865L107.235 33.984L107.288 33.9815L107.34 33.979L107.393 33.9765L107.445 33.974L107.497 33.9716L107.549 33.9691L107.6 33.9667L107.651 33.9643L107.702 33.9618L107.753 33.9594L107.803 33.957L107.853 33.9547L107.903 33.9523L107.953 33.9499L108.002 33.9476L108.051 33.9453L108.1 33.9429L108.149 33.9406L108.197 33.9383L108.245 33.9361L108.293 33.9338L108.341 33.9315L108.388 33.9293L108.435 33.9271L108.482 33.9248L108.528 33.9226L108.575 33.9204L108.621 33.9182L108.667 33.916L108.712 33.9139L108.758 33.9117L108.803 33.9096L108.848 33.9075L108.893 33.9053L108.937 33.9032L108.981 33.9011L109.025 33.899L109.069 33.897L109.112 33.8949L109.155 33.8929L109.198 33.8908L109.241 33.8888L109.284 33.8868L109.326 33.8848L109.368 33.8828L109.41 33.8808L109.451 33.8788L109.493 33.8769L109.534 33.8749L109.575 33.873L109.615 33.871L109.656 33.8691L109.696 33.8672L109.736 33.8653L109.776 33.8634L109.815 33.8615L109.854 33.8597L109.893 33.8578L109.932 33.856L109.971 33.8542L110.009 33.8523L110.047 33.8505L110.085 33.8487L110.123 33.8469L110.161 33.8452L110.198 33.8434L110.235 33.8416L110.272 33.8399L110.308 33.8381L110.345 33.8364L110.381 33.8347L110.417 33.833L110.453 33.8313L110.488 33.8296L110.523 33.8279L110.558 33.8263L110.593 33.8246L110.628 33.823L110.662 33.8213L110.697 33.8197L110.731 33.8181L110.765 33.8165L110.798 33.8149L110.832 33.8133L110.865 33.8117L110.898 33.8102L110.931 33.8086L110.963 33.8071L110.995 33.8055L111.028 33.804L111.06 33.8025L111.091 33.801L111.123 33.7995L111.154 33.798L111.185 33.7965L111.216 33.795L111.247 33.7936L111.278 33.7921L111.308 33.7907L111.338 33.7893L111.368 33.7878L111.398 33.7864L111.427 33.785L111.457 33.7836L111.486 33.7823L111.515 33.7809L111.544 33.7795L111.572 33.7782L111.601 33.7768L111.629 33.7755L111.657 33.7741L111.685 33.7728L111.712 33.7715L111.74 33.7702L111.767 33.7689L111.794 33.7676L111.821 33.7664L111.847 33.7651L111.874 33.7638L111.9 33.7626L111.926 33.7614L111.952 33.7601L111.978 33.7589L112.004 33.7577L112.029 33.7565L112.054 33.7553L112.079 33.7541L112.104 33.7529L112.129 33.7517L112.153 33.7506L112.177 33.7494L112.202 33.7483L112.226 33.7471L112.249 33.746L112.273 33.7449L112.296 33.7438L112.32 33.7427L112.343 33.7416L112.366 33.7405L112.388 33.7394L112.411 33.7384L112.433 33.7373L112.455 33.7362L112.477 33.7352L112.499 33.7342L112.521 33.7331L112.543 33.7321L112.564 33.7311L112.585 33.7301L112.606 33.7291L112.627 33.7281L112.648 33.7271L112.668 33.7261L112.689 33.7252L112.709 33.7242L112.729 33.7233L112.749 33.7223L112.769 33.7214L112.788 33.7204L112.808 33.7195L112.827 33.7186L112.846 33.7177L112.865 33.7168L112.884 33.7159L112.902 33.715L112.921 33.7142L112.939 33.7133L112.957 33.7124L112.975 33.7116L112.993 33.7107L113.011 33.7099L113.028 33.709L113.046 33.7082L113.063 33.7074L113.08 33.7066L113.097 33.7058L113.114 33.705L113.13 33.7042L113.147 33.7034L113.163 33.7026L113.18 33.7019L113.196 33.7011L113.212 33.7004L113.227 33.6996L113.243 33.6989L113.258 33.6981L113.274 33.6974L113.289 33.6967L113.304 33.696L113.319 33.6953L113.334 33.6946L113.348 33.6939L113.363 33.6932L113.377 33.6925L113.392 33.6918L113.406 33.6911L113.42 33.6905L113.433 33.6898L113.447 33.6892L113.461 33.6885L113.474 33.6879L113.487 33.6873L113.501 33.6866L113.514 33.686L113.526 33.6854L113.539 33.6848L113.552 33.6842L113.564 33.6836L113.577 33.683L113.589 33.6824L113.601 33.6819L113.613 33.6813L113.625 33.6807L113.637 33.6802L113.648 33.6796L113.66 33.6791L113.671 33.6785L113.683 33.678L113.694 33.6775L113.705 33.6769L113.716 33.6764L113.727 33.6759L113.737 33.6754L113.748 33.6749L113.758 33.6744L113.768 33.6739L113.779 33.6734L113.789 33.673L113.799 33.6725L113.809 33.672L113.818 33.6716L113.828 33.6711L113.838 33.6706L113.847 33.6702L113.856 33.6698L113.865 33.6693L113.871 33.669L123.116 228.45Z"
                    fill="#494949" stroke="#121212"></path>
                <path id="Ellipse 3"
                    d="M197.95 127.288C200.507 181.171 166.667 226.383 122.57 228.476C78.4728 230.569 40.5027 188.765 37.9453 134.882C35.388 80.9993 69.2283 35.7879 113.325 33.6949C157.423 31.602 195.393 73.4053 197.95 127.288Z"
                    fill="#494949" stroke="#121212"></path>
            </g>
            <g id="Barbel hole">
                <path id="Ellipse 2"
                    d="M133.674 152.864L133.668 152.865L133.66 152.865L133.652 152.865L133.644 152.866L133.636 152.866L133.628 152.866L133.619 152.867L133.611 152.867L133.602 152.868L133.594 152.868L133.585 152.868L133.576 152.869L133.567 152.869L133.558 152.87L133.549 152.87L133.54 152.871L133.531 152.871L133.522 152.871L133.512 152.872L133.503 152.872L133.493 152.873L133.483 152.873L133.474 152.874L133.464 152.874L133.454 152.875L133.444 152.875L133.434 152.876L133.423 152.876L133.413 152.877L133.403 152.877L133.392 152.878L133.382 152.878L133.371 152.879L133.36 152.879L133.349 152.88L133.338 152.88L133.327 152.881L133.316 152.881L133.305 152.882L133.293 152.882L133.282 152.883L133.27 152.883L133.258 152.884L133.247 152.885L133.235 152.885L133.223 152.886L133.211 152.886L133.198 152.887L133.186 152.887L133.174 152.888L133.161 152.889L133.149 152.889L133.136 152.89L133.123 152.89L133.11 152.891L133.097 152.892L133.084 152.892L133.071 152.893L133.057 152.894L133.044 152.894L133.03 152.895L133.017 152.895L133.003 152.896L132.989 152.897L132.975 152.897L132.961 152.898L132.947 152.899L132.932 152.899L132.918 152.9L132.903 152.901L132.889 152.902L132.874 152.902L132.859 152.903L132.844 152.904L132.829 152.904L132.814 152.905L132.798 152.906L132.783 152.907L132.767 152.907L132.752 152.908L132.736 152.909L132.72 152.91L132.704 152.91L132.688 152.911L132.671 152.912L132.655 152.913L132.638 152.913L132.622 152.914L132.605 152.915L132.588 152.916L132.571 152.917L132.554 152.917L132.537 152.918L132.52 152.919L132.502 152.92L132.484 152.921L132.467 152.922L132.449 152.922L132.431 152.923L132.413 152.924L132.395 152.925L132.376 152.926L132.358 152.927L132.339 152.928L132.32 152.928L132.302 152.929L132.283 152.93L132.264 152.931L132.244 152.932L132.225 152.933L132.205 152.934L132.186 152.935L132.166 152.936L132.146 152.937L132.126 152.938L132.106 152.939L132.086 152.94L132.065 152.941L132.045 152.942L132.024 152.943L132.003 152.944L131.982 152.945L131.961 152.946L131.94 152.947L131.919 152.948L131.897 152.949L131.876 152.95L131.854 152.951L131.832 152.952L131.81 152.953L131.788 152.954L131.766 152.955L131.743 152.956L131.721 152.957L131.698 152.958L131.675 152.959L131.652 152.96L131.629 152.961L131.606 152.962L131.582 152.964L131.559 152.965L131.535 152.966L131.511 152.967L131.487 152.968L131.463 152.969L131.439 152.97L131.414 152.971L131.39 152.973L131.365 152.974L131.34 152.975L131.315 152.976L131.29 152.977L131.265 152.979L131.239 152.98L131.214 152.981L131.188 152.982L131.162 152.983L131.136 152.985L131.11 152.986L131.083 152.987L131.057 152.988L131.03 152.99L131.004 152.991L130.977 152.992L130.949 152.994L130.922 152.995L130.895 152.996L130.867 152.997L130.84 152.999L130.812 153L130.784 153.001L130.756 153.003L130.727 153.004L130.699 153.005L130.67 153.007L130.641 153.008L130.612 153.01L130.583 153.011L130.554 153.012L130.524 153.014L130.495 153.015L130.465 153.017L130.435 153.018L130.405 153.019L130.375 153.021L130.345 153.022L130.314 153.024L130.283 153.025L130.252 153.027L130.221 153.028L130.19 153.03L130.159 153.031L130.127 153.033L130.096 153.034L130.064 153.036L130.032 153.037L130 153.039L129.967 153.04L129.935 153.042L129.902 153.043L129.869 153.045L129.836 153.046L129.803 153.048L129.77 153.05L129.736 153.051L129.702 153.053L129.668 153.054L129.634 153.056L129.6 153.058L129.566 153.059L129.531 153.061L129.496 153.063L129.462 153.064L129.426 153.066L129.391 153.068L129.356 153.069L129.32 153.071L129.284 153.073L129.248 153.074L129.212 153.076L129.176 153.078L129.14 153.079L129.103 153.081L129.066 153.083L129.029 153.085L128.992 153.086L128.955 153.088L128.917 153.09L128.879 153.092L128.841 153.094L128.803 153.095L128.765 153.097L128.727 153.099L128.688 153.101L128.649 153.103L128.61 153.105L128.571 153.106L128.532 153.108L128.492 153.11L128.452 153.112L128.412 153.114L128.372 153.116L128.332 153.118L128.292 153.12L128.251 153.122L128.21 153.124L128.169 153.126L128.128 153.127L128.086 153.129L128.045 153.131L128.003 153.133L127.961 153.135L127.919 153.137L127.877 153.139L127.834 153.141L127.791 153.143L127.748 153.145L127.705 153.148L127.662 153.15L127.618 153.152L127.575 153.154L127.531 153.156L127.487 153.158L127.442 153.16L127.398 153.162L127.353 153.164L127.308 153.166L127.263 153.169L127.218 153.171L127.173 153.173L127.127 153.175L127.081 153.177L127.035 153.179L126.989 153.182L126.942 153.184L126.896 153.186L126.849 153.188L126.802 153.19L126.755 153.193L126.707 153.195L126.659 153.197L126.612 153.199L126.564 153.202L126.515 153.204L126.467 153.206L126.418 153.209L126.369 153.211L126.32 153.213L126.271 153.216L126.221 153.218L126.172 153.22L126.122 153.223L126.072 153.225L126.021 153.227L125.971 153.23L125.92 153.232L125.869 153.235L125.818 153.237L125.767 153.24L125.715 153.242L125.663 153.244L125.611 153.247L125.559 153.249L125.507 153.252L125.454 153.254L125.401 153.257L125.348 153.259L125.295 153.262L125.241 153.264L125.188 153.267L125.134 153.27L125.08 153.272L125.025 153.275L124.971 153.277L124.916 153.28L124.861 153.283L124.806 153.285L124.75 153.288L124.695 153.29L124.639 153.293L124.583 153.296L124.527 153.298L124.47 153.301L124.413 153.304L124.356 153.306L124.299 153.309L124.242 153.312C114.776 153.761 106.537 145.045 105.996 133.655C105.456 122.265 112.832 112.807 122.298 112.358L122.325 112.357L122.352 112.355L122.379 112.354L122.406 112.353L122.434 112.352L122.461 112.35L122.488 112.349L122.515 112.348L122.542 112.346L122.57 112.345L122.597 112.344L122.624 112.343L122.651 112.341L122.679 112.34L122.706 112.339L122.733 112.337L122.76 112.336L122.788 112.335L122.815 112.333L122.842 112.332L122.87 112.331L122.897 112.33L122.924 112.328L122.952 112.327L122.979 112.326L123.007 112.324L123.034 112.323L123.061 112.322L123.089 112.32L123.116 112.319L123.144 112.318L123.171 112.317L123.199 112.315L123.226 112.314L123.253 112.313L123.281 112.311L123.308 112.31L123.336 112.309L123.363 112.307L123.391 112.306L123.418 112.305L123.446 112.304L123.473 112.302L123.501 112.301L123.528 112.3L123.556 112.298L123.583 112.297L123.611 112.296L123.638 112.294L123.666 112.293L123.694 112.292L123.721 112.29L123.749 112.289L123.776 112.288L123.804 112.287L123.831 112.285L123.859 112.284L123.886 112.283L123.914 112.281L123.941 112.28L123.969 112.279L123.996 112.277L124.024 112.276L124.052 112.275L124.079 112.273L124.107 112.272L124.134 112.271L124.162 112.27L124.189 112.268L124.217 112.267L124.244 112.266L124.272 112.264L124.299 112.263L124.327 112.262L124.354 112.26L124.382 112.259L124.409 112.258L124.437 112.256L124.464 112.255L124.492 112.254L124.519 112.253L124.547 112.251L124.574 112.25L124.602 112.249L124.629 112.247L124.657 112.246L124.684 112.245L124.711 112.243L124.739 112.242L124.766 112.241L124.794 112.24L124.821 112.238L124.849 112.237L124.876 112.236L124.903 112.234L124.931 112.233L124.958 112.232L124.985 112.23L125.013 112.229L125.04 112.228L125.067 112.227L125.095 112.225L125.122 112.224L125.149 112.223L125.176 112.221L125.204 112.22L125.231 112.219L125.258 112.218L125.285 112.216L125.313 112.215L125.34 112.214L125.367 112.212L125.394 112.211L125.421 112.21L125.448 112.208L125.475 112.207L125.503 112.206L125.53 112.205L125.557 112.203L125.584 112.202L125.611 112.201L125.638 112.199L125.665 112.198L125.692 112.197L125.719 112.196L125.746 112.194L125.773 112.193L125.799 112.192L125.826 112.191L125.853 112.189L125.88 112.188L125.907 112.187L125.934 112.185L125.961 112.184L125.987 112.183L126.014 112.182L126.041 112.18L126.068 112.179L126.094 112.178L126.121 112.177L126.148 112.175L126.174 112.174L126.201 112.173L126.227 112.172L126.254 112.17L126.28 112.169L126.307 112.168L126.333 112.166L126.36 112.165L126.386 112.164L126.413 112.163L126.439 112.161L126.465 112.16L126.492 112.159L126.518 112.158L126.544 112.156L126.571 112.155L126.597 112.154L126.623 112.153L126.649 112.151L126.675 112.15L126.702 112.149L126.728 112.148L126.754 112.147L126.78 112.145L126.806 112.144L126.832 112.143L126.858 112.142L126.884 112.14L126.91 112.139L126.935 112.138L126.961 112.137L126.987 112.135L127.013 112.134L127.039 112.133L127.064 112.132L127.09 112.131L127.116 112.129L127.141 112.128L127.167 112.127L127.192 112.126L127.218 112.124L127.244 112.123L127.269 112.122L127.294 112.121L127.32 112.12L127.345 112.118L127.37 112.117L127.396 112.116L127.421 112.115L127.446 112.114L127.471 112.112L127.497 112.111L127.522 112.11L127.547 112.109L127.572 112.108L127.597 112.107L127.622 112.105L127.647 112.104L127.672 112.103L127.696 112.102L127.721 112.101L127.746 112.099L127.771 112.098L127.795 112.097L127.82 112.096L127.845 112.095L127.869 112.094L127.894 112.092L127.918 112.091L127.943 112.09L127.967 112.089L127.992 112.088L128.016 112.087L128.04 112.085L128.064 112.084L128.089 112.083L128.113 112.082L128.137 112.081L128.161 112.08L128.185 112.079L128.209 112.077L128.233 112.076L128.257 112.075L128.281 112.074L128.305 112.073L128.328 112.072L128.352 112.071L128.376 112.07L128.399 112.068L128.423 112.067L128.447 112.066L128.47 112.065L128.493 112.064L128.517 112.063L128.54 112.062L128.564 112.061L128.587 112.06L128.61 112.058L128.633 112.057L128.656 112.056L128.679 112.055L128.702 112.054L128.725 112.053L128.748 112.052L128.771 112.051L128.794 112.05L128.817 112.049L128.839 112.048L128.862 112.046L128.885 112.045L128.907 112.044L128.93 112.043L128.952 112.042L128.975 112.041L128.997 112.04L129.019 112.039L129.042 112.038L129.064 112.037L129.086 112.036L129.108 112.035L129.13 112.034L129.152 112.033L129.174 112.032L129.196 112.031L129.218 112.03L129.239 112.029L129.261 112.028L129.283 112.027L129.304 112.025L129.326 112.024L129.347 112.023L129.369 112.022L129.39 112.021L129.411 112.02L129.433 112.019L129.454 112.018L129.475 112.017L129.496 112.016L129.517 112.015L129.538 112.014L129.559 112.013L129.58 112.012L129.6 112.011L129.621 112.01L129.642 112.009L129.662 112.008L129.683 112.008L129.703 112.007L129.724 112.006L129.744 112.005L129.764 112.004L129.785 112.003L129.805 112.002L129.825 112.001L129.845 112L129.865 111.999L129.885 111.998L129.905 111.997L129.924 111.996L129.944 111.995L129.964 111.994L129.983 111.993L130.003 111.992L130.022 111.991L130.042 111.99L130.061 111.99L130.08 111.989L130.099 111.988L130.119 111.987L130.138 111.986L130.157 111.985L130.176 111.984L130.194 111.983L130.213 111.982L130.232 111.981L130.25 111.981L130.269 111.98L130.288 111.979L130.306 111.978L130.324 111.977L130.343 111.976L130.361 111.975L130.379 111.974L130.397 111.974L130.415 111.973L130.433 111.972L130.451 111.971L130.469 111.97L130.486 111.969L130.504 111.969L130.522 111.968L130.539 111.967L130.557 111.966L130.574 111.965L130.591 111.964L130.608 111.964L130.625 111.963L130.643 111.962L130.659 111.961L130.676 111.96L130.693 111.96L130.71 111.959L130.727 111.958L130.743 111.957L130.76 111.956L130.776 111.956L130.793 111.955L130.809 111.954L130.825 111.953L130.841 111.953L130.857 111.952L130.873 111.951L130.889 111.95L130.905 111.95L130.921 111.949L130.936 111.948L130.952 111.947L130.967 111.947L130.983 111.946L130.998 111.945L131.013 111.944L131.029 111.944L131.044 111.943L131.059 111.942L131.074 111.942L131.088 111.941L131.103 111.94L131.118 111.939L131.133 111.939L131.147 111.938L131.161 111.937L131.176 111.937L131.19 111.936L131.204 111.935L131.218 111.935L131.232 111.934L131.246 111.933L131.26 111.933L131.274 111.932L131.288 111.931L131.301 111.931L131.315 111.93L131.328 111.929L131.341 111.929L131.355 111.928L131.368 111.928L131.381 111.927L131.394 111.926L131.407 111.926L131.419 111.925L131.432 111.924L131.445 111.924L131.457 111.923L131.47 111.923L131.482 111.922L131.494 111.922L131.506 111.921L131.518 111.92L131.53 111.92L131.542 111.919L131.554 111.919L131.566 111.918L131.577 111.918L131.589 111.917L131.6 111.917L131.612 111.916L131.623 111.915L131.634 111.915L131.645 111.914L131.656 111.914L131.667 111.913L131.678 111.913L131.688 111.912L131.699 111.912L131.709 111.911L131.72 111.911L131.73 111.91L131.731 111.91L133.674 152.864Z"
                    fill="#7C7C7C" stroke="#121212"></path>
                <path id="Ellipse 1"
                    d="M148.907 131.618C149.448 143.008 142.071 152.466 132.606 152.915C123.14 153.364 114.901 144.648 114.36 133.258C113.819 121.868 121.196 112.41 130.662 111.961C140.127 111.512 148.367 120.228 148.907 131.618Z"
                    fill="#7C7C7C" stroke="#121212"></path>
            </g>
            <path id="Barbel 2"
                d="M564.027 168.98L130.468 141.003C121.915 137.404 124.483 125.269 131.801 124.922L565.788 150.876L564.027 168.98Z"
                fill="#7C7C7C" stroke="#121212"></path>
            <g id="Plate right">
                <path id="Ellipse 6"
                    d="M659.152 285.101L639.264 286.045C616.526 287.124 595.243 274.591 579.222 253.34C563.202 232.091 552.481 202.167 550.888 168.603C549.295 135.038 557.134 104.233 571.069 81.5628C585.006 58.8898 605.006 44.3975 627.744 43.3183L627.85 43.3132L627.956 43.3082L628.061 43.3032L628.166 43.2982L628.271 43.2933L628.375 43.2883L628.479 43.2834L628.583 43.2785L628.686 43.2736L628.789 43.2687L628.891 43.2638L628.993 43.259L629.095 43.2542L629.197 43.2493L629.298 43.2446L629.398 43.2398L629.499 43.235L629.599 43.2303L629.698 43.2255L629.798 43.2208L629.897 43.2161L629.995 43.2114L630.093 43.2068L630.191 43.2021L630.289 43.1975L630.386 43.1929L630.483 43.1883L630.579 43.1837L630.676 43.1792L630.771 43.1746L630.867 43.1701L630.962 43.1656L631.057 43.1611L631.151 43.1566L631.245 43.1521L631.339 43.1477L631.432 43.1432L631.526 43.1388L631.618 43.1344L631.711 43.13L631.803 43.1257L631.894 43.1213L631.986 43.117L632.077 43.1126L632.167 43.1083L632.258 43.1041L632.348 43.0998L632.438 43.0955L632.527 43.0913L632.616 43.0871L632.705 43.0829L632.793 43.0787L632.881 43.0745L632.969 43.0703L633.056 43.0662L633.143 43.062L633.23 43.0579L633.316 43.0538L633.402 43.0497L633.488 43.0457L633.573 43.0416L633.658 43.0376L633.743 43.0336L633.828 43.0296L633.912 43.0256L633.995 43.0216L634.079 43.0176L634.162 43.0137L634.245 43.0098L634.327 43.0058L634.409 43.0019L634.491 42.9981L634.573 42.9942L634.654 42.9903L634.735 42.9865L634.815 42.9827L634.896 42.9789L634.975 42.9751L635.055 42.9713L635.134 42.9675L635.213 42.9638L635.292 42.9601L635.37 42.9563L635.448 42.9526L635.526 42.9489L635.604 42.9453L635.681 42.9416L635.757 42.938L635.834 42.9343L635.91 42.9307L635.986 42.9271L636.061 42.9235L636.137 42.92L636.212 42.9164L636.286 42.9129L636.361 42.9093L636.435 42.9058L636.508 42.9023L636.582 42.8988L636.655 42.8954L636.728 42.8919L636.8 42.8885L636.872 42.885L636.944 42.8816L637.016 42.8782L637.087 42.8749L637.158 42.8715L637.229 42.8681L637.299 42.8648L637.369 42.8615L637.439 42.8581L637.509 42.8548L637.578 42.8516L637.647 42.8483L637.716 42.845L637.784 42.8418L637.852 42.8386L637.92 42.8353L637.987 42.8321L638.054 42.829L638.121 42.8258L638.188 42.8226L638.254 42.8195L638.32 42.8163L638.386 42.8132L638.451 42.8101L638.516 42.807L638.581 42.8039L638.646 42.8009L638.71 42.7978L638.774 42.7948L638.838 42.7918L638.901 42.7887L638.964 42.7858L639.027 42.7828L639.09 42.7798L639.152 42.7768L639.214 42.7739L639.276 42.771L639.338 42.768L639.399 42.7651L639.46 42.7623L639.52 42.7594L639.581 42.7565L639.641 42.7537L639.701 42.7508L639.76 42.748L639.819 42.7452L639.878 42.7424L639.937 42.7396L639.996 42.7368L640.054 42.7341L640.112 42.7313L640.169 42.7286L640.227 42.7258L640.284 42.7231L640.341 42.7204L640.397 42.7178L640.453 42.7151L640.509 42.7124L640.565 42.7098L640.621 42.7071L640.676 42.7045L640.731 42.7019L640.786 42.6993L640.84 42.6967L640.894 42.6942L640.948 42.6916L641.002 42.6891L641.055 42.6865L641.108 42.684L641.161 42.6815L641.214 42.679L641.266 42.6765L641.318 42.674L641.37 42.6716L641.422 42.6691L641.473 42.6667L641.524 42.6643L641.575 42.6619L641.626 42.6595L641.676 42.6571L641.726 42.6547L641.776 42.6523L641.825 42.65L641.875 42.6476L641.924 42.6453L641.972 42.643L642.021 42.6407L642.069 42.6384L642.117 42.6361L642.165 42.6338L642.213 42.6316L642.26 42.6293L642.307 42.6271L642.354 42.6249L642.401 42.6227L642.447 42.6205L642.493 42.6183L642.539 42.6161L642.584 42.6139L642.63 42.6118L642.675 42.6096L642.72 42.6075L642.765 42.6054L642.809 42.6033L642.853 42.6012L642.897 42.5991L642.941 42.597L642.984 42.595L643.027 42.5929L643.07 42.5909L643.113 42.5888L643.156 42.5868L643.198 42.5848L643.24 42.5828L643.282 42.5808L643.324 42.5789L643.365 42.5769L643.406 42.5749L643.447 42.573L643.488 42.5711L643.528 42.5692L643.568 42.5672L643.608 42.5653L643.648 42.5635L643.688 42.5616L643.727 42.5597L643.766 42.5579L643.805 42.556L643.844 42.5542L643.882 42.5524L643.92 42.5505L643.958 42.5487L643.996 42.5469L644.034 42.5452L644.071 42.5434L644.108 42.5416L644.145 42.5399L644.182 42.5381L644.218 42.5364L644.254 42.5347L644.29 42.533L644.326 42.5313L644.362 42.5296L644.397 42.5279L644.432 42.5263L644.467 42.5246L644.502 42.5229L644.536 42.5213L644.571 42.5197L644.605 42.5181L644.639 42.5165L644.672 42.5149L644.706 42.5133L644.739 42.5117L644.772 42.5101L644.805 42.5086L644.838 42.507L644.87 42.5055L644.902 42.5039L644.934 42.5024L644.966 42.5009L644.998 42.4994L645.029 42.4979L645.06 42.4964L645.091 42.495L645.122 42.4935L645.153 42.492L645.183 42.4906L645.213 42.4892L645.243 42.4877L645.273 42.4863L645.303 42.4849L645.332 42.4835L645.362 42.4821L645.391 42.4808L645.419 42.4794L645.448 42.478L645.476 42.4767L645.505 42.4753L645.533 42.474L645.561 42.4727L645.588 42.4714L645.616 42.4701L645.643 42.4688L645.67 42.4675L645.697 42.4662L645.724 42.4649L645.75 42.4637L645.777 42.4624L645.803 42.4612L645.829 42.46L645.855 42.4587L645.88 42.4575L645.906 42.4563L645.931 42.4551L645.956 42.4539L645.981 42.4527L646.006 42.4516L646.03 42.4504L646.055 42.4492L646.079 42.4481L646.103 42.447L646.127 42.4458L646.15 42.4447L646.174 42.4436L646.197 42.4425L646.22 42.4414L646.243 42.4403L646.266 42.4392L646.288 42.4382L646.311 42.4371L646.333 42.436L646.355 42.435L646.377 42.434L646.399 42.4329L646.42 42.4319L646.442 42.4309L646.463 42.4299L646.484 42.4289L646.505 42.4279L646.525 42.4269L646.546 42.4259L646.566 42.425L646.586 42.424L646.606 42.4231L646.626 42.4221L646.646 42.4212L646.666 42.4202L646.685 42.4193L646.704 42.4184L646.723 42.4175L646.742 42.4166L646.761 42.4157L646.78 42.4148L646.798 42.414L646.816 42.4131L646.834 42.4122L646.852 42.4114L646.87 42.4105L646.888 42.4097L646.905 42.4089L646.923 42.4081L646.94 42.4072L646.957 42.4064L646.974 42.4056L646.99 42.4048L647.007 42.404L647.023 42.4033L647.04 42.4025L647.056 42.4017L647.072 42.401L647.087 42.4002L647.103 42.3995L647.119 42.3987L647.134 42.398L647.149 42.3973L647.164 42.3966L647.179 42.3959L647.194 42.3952L647.209 42.3945L647.223 42.3938L647.238 42.3931L647.252 42.3924L647.266 42.3918L647.28 42.3911L647.294 42.3904L647.307 42.3898L647.321 42.3891L647.334 42.3885L647.348 42.3879L647.361 42.3873L647.374 42.3866L647.386 42.386L647.399 42.3854L647.412 42.3848L647.424 42.3842L647.437 42.3837L647.449 42.3831L647.461 42.3825L647.473 42.3819L647.484 42.3814L647.496 42.3808L647.508 42.3803L647.519 42.3797L647.53 42.3792L647.541 42.3787L647.552 42.3782L647.563 42.3776L647.574 42.3771L647.585 42.3766L647.595 42.3761L647.606 42.3756L647.616 42.3752L647.626 42.3747L647.631 42.3744L659.152 285.101Z"
                    fill="#494949" stroke="#121212"></path>
                <path id="Ellipse 5"
                    d="M734.939 159.867C736.532 193.432 728.693 224.237 714.758 246.907C700.821 269.58 680.821 284.073 658.083 285.152C635.345 286.231 614.062 273.698 598.04 252.447C582.021 231.198 571.3 201.274 569.707 167.71C568.114 134.145 575.952 103.34 589.887 80.6697C603.824 57.9966 623.825 43.5043 646.563 42.4251C669.301 41.3459 690.584 53.8789 706.605 75.1301C722.625 96.3789 733.346 126.303 734.939 159.867Z"
                    fill="#494949" stroke="#121212"></path>
            </g>
            <path id="Barbel 3"
                d="M742.552 156.499L742.566 156.5L809.785 159.817C813.036 159.977 815.596 161.502 817.407 164.022C819.227 166.557 820.3 170.116 820.5 174.327C820.697 178.474 819.232 182.444 817.076 185.341C814.903 188.261 812.12 189.982 809.737 189.858C807.112 189.721 789.91 188.785 773.363 187.884C765.09 187.433 756.981 186.991 750.941 186.662L743.669 186.265L741.643 186.155L741.11 186.126L740.974 186.118L740.939 186.116L740.93 186.116L740.93 186.116L740.928 186.116L740.928 186.116L740.917 186.115L740.875 186.112L740.708 186.102L740.056 186.062C739.485 186.026 738.646 185.974 737.577 185.907C735.437 185.773 732.372 185.58 728.673 185.345C721.276 184.875 711.341 184.236 701.191 183.56C691.041 182.884 680.678 182.172 672.424 181.555C664.152 180.936 658.036 180.417 656.35 180.128C650.938 179.201 645.972 173.972 645.575 165.61C645.375 161.401 646.354 157.56 648.07 154.761C649.771 151.986 652.161 150.281 654.819 150.155C655.19 150.137 656.828 150.219 659.471 150.383C662.092 150.546 665.66 150.787 669.851 151.08C678.233 151.668 689.105 152.466 699.876 153.269C710.647 154.071 721.316 154.879 729.292 155.486C733.281 155.789 736.596 156.043 738.914 156.22L741.602 156.426L742.31 156.48L742.491 156.494L742.537 156.498L742.549 156.499L742.551 156.499C742.552 156.499 742.552 156.499 742.588 156.033L742.552 156.499Z"
                fill="#7C7C7C" stroke="#121212"></path>
        </g>
        <g id="Vector 3">
            <path
                d="M237.763 173.5L222.263 162C211.263 162.71 207.263 158.5 202.263 158C194.443 157.218 191.263 152.5 191.263 149.5C190.169 152.5 188.141 151.765 187.763 151.5C187.115 151.046 186.52 150.544 185.973 150C184.763 152 182.93 150.667 181.763 148.5C174.563 136.5 174.263 126.26 184.263 121.76C191.073 113.457 199.318 112.652 203.081 113.5C209.763 111.5 213.857 113.391 215.263 116.297C224.481 115.598 227.447 125.957 227.763 131.5L216.763 130.5C215.93 129.333 209.763 128.5 205.263 131.5C203.927 132.391 198.597 136.756 199.763 142.164C201.263 144.5 203.263 145.5 206.763 147L237.763 149V152C237.763 144.8 245.43 154 249.263 159.5L237.763 173.5Z"
                fill="#F2EFE6"></path>
            <path
                d="M222.263 162L237.763 173.5L249.263 159.5C245.43 154 237.763 144.8 237.763 152M222.263 162C227.43 161.667 237.763 159.2 237.763 152M222.263 162C211.263 162.71 207.263 158.5 202.263 158C194.443 157.218 191.263 152.5 191.263 149.5M237.763 152V149L206.763 147C203.263 145.5 201.263 144.5 199.763 142.164M191.263 149.5C191.339 148.97 191.049 147.47 191.2 147M191.263 149.5C191.217 149.823 191.28 149.156 191.263 149.5ZM191.263 149.5C190.169 152.5 188.141 151.765 187.763 151.5C187.115 151.046 186.52 150.544 185.973 150M199.763 142.164C198.597 136.756 203.927 132.391 205.263 131.5C209.763 128.5 215.93 129.333 216.763 130.5L227.763 131.5C227.447 125.957 224.481 115.598 215.263 116.297M199.763 142.164C195.968 141.369 192.422 143.186 191.2 147M191.2 147C190.117 146.416 189.402 145.549 188.973 144.5M215.263 116.297C214.781 116.334 214.281 116.4 213.763 116.5C207.097 119 195.269 126.159 192.763 129.5C190.347 132.722 187.2 140.16 188.973 144.5M215.263 116.297C213.857 113.391 209.763 111.5 203.081 113.5M188.973 144.5C183.683 142 185.47 132.403 186.263 130.5C187.545 127.424 188.657 125.303 190.263 123C192.143 120.303 194.263 118 200.763 114.5C202.578 113.523 203.081 113.5 203.081 113.5M203.081 113.5C199.318 112.652 191.073 113.457 184.263 121.76M184.263 121.76C174.263 126.26 174.563 136.5 181.763 148.5C182.93 150.667 184.763 152 185.973 150M184.263 121.76C183.039 123.253 181.363 129.5 180.763 133C180.163 136.5 179.77 143.831 185.973 150"
                stroke="#121212"></path>
        </g>
        <g id="Vector 2">
            <path
                d="M519.263 180.5C503.263 184.5 473.22 179.859 461.263 168.5C451.263 159 467.263 152.5 473.763 160C469.236 149.781 474.263 129.5 496.263 129.5C500.263 126.591 506.263 125 509.763 128C515.263 124.563 524.263 129.5 521.763 136C527.263 134.167 533.863 137.9 536.263 149.5L527.263 148.5C524.763 145.5 518.576 149.219 517.263 152.5C515.467 156.99 516.666 163.206 517.263 166.5L541.263 168C541.263 169.667 542.863 170.1 543.263 172.5C543.663 174.9 536.763 180.5 532.763 181.5C528.763 182.5 519.263 180.5 519.263 180.5Z"
                fill="#F2EFE6"></path>
            <path
                d="M473.763 160C467.263 152.5 451.263 159 461.263 168.5C473.22 179.859 503.263 184.5 519.263 180.5C519.263 180.5 528.763 182.5 532.763 181.5C536.763 180.5 543.663 174.9 543.263 172.5C542.863 170.1 541.263 169.667 541.263 168L517.263 166.5M473.763 160C469.236 149.781 474.263 129.5 496.263 129.5M473.763 160C474.551 161.778 475.696 163.399 476.763 165C479.097 167.833 484.827 172.855 488.263 174C491.263 175 494.263 174.5 491.763 170M496.263 129.5C490.763 133.5 483.763 142 482.763 147C480.892 156.356 487.43 165.167 491.763 170M496.263 129.5C500.263 126.591 506.263 125 509.763 128M491.763 170C493.763 171.667 495.206 173.472 498.263 175C502.263 177 506.263 173 500.263 168.5M500.263 168.5C498.929 168.076 501.809 169.798 500.263 168.5ZM500.263 168.5C497.559 166.229 495.081 162.363 494.763 156C494.511 150.947 493.763 138 509.763 128M500.263 168.5C506.263 173 510.163 171.956 507.763 165.531M509.763 128C515.263 124.563 524.263 129.5 521.763 136M521.763 136C515.763 138 511.263 140 508.263 146C504.781 152.964 506.263 160 507.763 165.531M521.763 136C527.263 134.167 533.863 137.9 536.263 149.5L527.263 148.5C524.763 145.5 518.576 149.219 517.263 152.5C515.467 156.99 516.666 163.206 517.263 166.5M517.263 166.5C517.663 171.7 510.822 173 508.763 168C508.384 167.079 508.052 166.264 507.763 165.531M517.263 166.5C518.263 165 517.365 167.059 517.263 166.5Z"
                stroke="#121212"></path>
        </g>
        <g id="Head">
            <path
                d="M240.263 159.5C236.663 157.1 236.763 150.167 237.263 147C237.431 145.4 235 142.667 233.763 141.5C227.93 141.333 230.763 111 236.263 103.5C256.37 76.0822 286.93 72 302.263 75C353.763 89 339.763 140 334.263 166L338.263 187.5C340.097 205.833 342.863 244.4 339.263 252C335.663 259.6 331.097 255.167 329.263 252L325.763 247.5L290.763 233C285.097 226.333 270.963 212.9 259.763 212.5C248.563 212.1 249.097 202 250.763 197C247.163 196.6 246.597 192.167 246.763 190C243.163 188.4 242.597 182.667 242.763 180C233.563 178 237.763 172 240.263 159.5Z"
                fill="#F2EFE6"></path>
            <path
                d="M246.763 190C243.163 188.4 242.597 182.667 242.763 180C233.563 178 237.763 172 240.263 159.5C236.663 157.1 236.763 150.167 237.263 147C237.431 145.4 235 142.667 233.763 141.5C227.93 141.333 230.763 111 236.263 103.5C256.37 76.0822 286.93 72 302.263 75C353.763 89 339.763 140 334.263 166L338.263 187.5C340.097 205.833 342.863 244.4 339.263 252C335.663 259.6 331.097 255.167 329.263 252L325.763 247.5L290.763 233C285.097 226.333 270.963 212.9 259.763 212.5C248.563 212.1 249.097 202 250.763 197C247.163 196.6 246.597 192.167 246.763 190ZM246.763 190C253.097 190.833 265.763 189.5 265.763 187.5"
                stroke="#121212"></path>
        </g>
        <path id="Neck left"
            d="M269.763 215.5C310.263 242 322.763 212 331.763 255C325.363 251.8 305.597 249.667 296.763 249C297.963 236.2 274.763 223 269.763 215.5Z"
            fill="#F2EFE6" stroke="#121212"></path>
        <path id="Knee left"
            d="M276.763 465C226.363 419.8 257.263 384.5 281.263 374L302.263 379.5C314.763 426.833 327.163 510.2 276.763 465Z"
            fill="#F2EFE6" stroke="#121212"></path>
        <path id="Quadriceps left 1"
            d="M308.763 428.5C281.963 415.3 301.263 406 314.263 403L369.763 359.5L409.263 361L418.763 391.5L374.263 417C363.597 426.333 335.563 441.7 308.763 428.5Z"
            fill="#F2EFE6" stroke="#121212"></path>
        <path id="Quadriceps left 2"
            d="M307.263 424.5C340.763 429 352.263 393 411.263 382.5L421.263 389.5L406.763 435L363.763 446L311.763 437.5C291.763 425.9 300.763 423.627 307.263 424.5Z"
            fill="#F2EFE6" stroke="#121212"></path>
        <path id="Hamstering left"
            d="M350.763 453.5C377.563 463.5 393.93 460 398.763 457C403.263 440 408.963 408.7 395.763 419.5C382.563 430.3 335.597 435.333 313.763 436.5C314.93 438 323.963 443.5 350.763 453.5Z"
            fill="#FFE492" stroke="#121212"></path>
        <g id="Calf left">
            <path
                d="M279.263 471C252.063 442.6 291.763 429.224 310.263 433.5C389.381 451.787 371.563 464.781 379.475 504.5C382.163 517.996 387.822 534.577 401.263 555.5C389.097 564.833 365.263 582.9 355.263 560.5C345.263 538.1 299.43 489.833 279.263 471Z"
                fill="#F2EFE6"></path>
            <path
                d="M310.263 433.5C291.763 429.224 252.063 442.6 279.263 471C299.43 489.833 345.263 538.1 355.263 560.5C365.263 582.9 389.097 564.833 401.263 555.5C387.822 534.577 382.163 517.996 379.475 504.5M310.263 433.5C389.381 451.787 371.563 464.781 379.475 504.5M310.263 433.5C298.738 461.5 296.444 514.9 379.475 504.5"
                stroke="#121212"></path>
        </g>
        <g id="Quadriceps left 3">
            <path
                d="M295.263 364.5C308.863 347.7 340.597 338.833 354.763 336.5L378.763 352.5L384.763 363.5L358.763 386C351.763 392.5 333.863 405.9 318.263 407.5C298.763 409.5 299.263 406 280.263 393.5C265.063 383.5 283.93 370 295.263 364.5Z"
                fill="#FAA805"></path>
            <path
                d="M280.263 393.5C265.063 383.5 283.93 370 295.263 364.5C308.863 347.7 340.597 338.833 354.763 336.5L378.763 352.5M280.263 393.5C299.263 406 298.763 409.5 318.263 407.5C333.863 405.9 351.763 392.5 358.763 386L384.763 363.5L378.763 352.5M280.263 393.5C277.263 381.5 327.763 342.5 378.763 352.5"
                stroke="#121212"></path>
        </g>
        <path id="Knee right"
            d="M423.263 487.5C380.863 457.9 388.263 424.833 397.263 412L443.263 403.5L458.763 437C464.597 466.167 465.663 517.1 423.263 487.5Z"
            fill="#F2EFE6" stroke="#121212"></path>
        <path id="Quadriceps right 3"
            d="M455.763 440.5C433.763 436.1 439.597 426.667 445.263 422.5L458.763 402L544.263 375L568.263 416.5L502.263 444.5C495.93 445 477.763 444.9 455.763 440.5Z"
            fill="#F2EFE6" stroke="#121212"></path>
        <path id="Quadriceps right 2"
            d="M550.763 415C518.763 408.2 483.097 424.833 469.263 434L473.263 438.5L543.763 444C559.43 437.167 582.763 421.8 550.763 415Z"
            fill="#F2EFE6" stroke="#121212"></path>
        <path id="Hamstering right"
            d="M525.763 457.5C533.363 459.5 540.597 458.333 543.263 457.5L550.763 449.5L549.263 436C527.763 449.5 510.763 435.095 490.763 433C445.793 428.289 441.93 441.167 451.763 446.5C466.263 455.167 496.963 472.3 503.763 471.5C510.563 470.7 521.263 461.833 525.763 457.5Z"
            fill="#FFE492" stroke="#121212"></path>
        <g id="Calf right">
            <path
                d="M495.763 591C488.963 562.2 441.763 522 425.263 491C411.32 468.894 428.436 455.704 441.763 449.893C444.111 448.869 445.718 448 448.263 447.5C504.263 436.5 510.544 484.395 518.263 531.5C521.022 548.342 524.416 565.698 531.263 581.5C531.263 581.5 522.402 588.462 515.763 591C508.539 592.172 495.763 591 495.763 591Z"
                fill="#F2EFE6"></path>
            <path
                d="M425.263 491C441.763 522 488.963 562.2 495.763 591C495.763 591 508.539 592.172 515.763 591M425.263 491C411.32 468.894 428.436 455.704 441.763 449.893M425.263 491C442.097 500.667 485.563 538 515.763 591M441.763 449.893C444.111 448.869 445.718 448 448.263 447.5C504.263 436.5 510.544 484.395 518.263 531.5M441.763 449.893C452.263 474.928 482.262 526.3 518.263 531.5M518.263 531.5C521.022 548.342 524.416 565.698 531.263 581.5C531.263 581.5 522.402 588.462 515.763 591"
                stroke="#121212"></path>
        </g>
        <g id="Abs">
            <path
                d="M381.263 357.406C371.828 358.671 356.842 342.88 349.263 333C360.463 333 364.93 329.833 368.263 330.5L399.763 335C405.763 343 426.763 350 429.763 359C433.763 361.155 441.363 366.071 439.763 368.5C438.163 370.929 425.763 377.179 419.763 380C418.93 381.5 416.663 384.8 414.263 386C411.863 387.2 394.763 375 398.763 371.536C379.291 367.031 378.722 360.423 381.263 357.406Z"
                fill="#F2EFE6"></path>
            <path
                d="M381.263 357.406C371.828 358.671 356.842 342.88 349.263 333C360.463 333 364.93 329.833 368.263 330.5M381.263 357.406C383.448 357.113 381.263 357.406 387.263 356.273C395.663 364.768 418.93 361.246 429.763 359M381.263 357.406C378.722 360.423 379.291 367.031 398.763 371.536M406.263 373C403.497 372.546 401.005 372.055 398.763 371.536M406.263 373C412.763 378 419.43 377.667 419.763 380M406.263 373C399.863 371 372.763 342.5 368.263 330.5M398.763 371.536C394.763 375 411.863 387.2 414.263 386C416.663 384.8 418.93 381.5 419.763 380M419.763 380C425.763 377.179 438.163 370.929 439.763 368.5C441.363 366.071 433.763 361.155 429.763 359M368.263 330.5L399.763 335C405.763 343 426.763 350 429.763 359"
                stroke="#121212"></path>
        </g>
        <path id="Chest left"
            d="M276.263 250C289.863 301.2 333.263 347 373.763 331.5L335.263 273C345.263 257.5 305.263 250.5 297.763 251.5C290.263 252.5 282.663 252.8 276.263 250Z"
            fill="#F2EFE6" stroke="#121212"></path>
        <path id="Chest right"
            d="M399.763 338C346.163 346.8 324.763 264.156 336.263 258.5C366.763 243.5 391.763 267.5 440.763 255C421.763 274 457.763 324 399.763 338Z"
            fill="#F2EFE6" stroke="#121212"></path>
        <g id="Quadriceps right">
            <path
                d="M397.263 411.5C410.763 386.5 407.763 384.5 451.763 358.5C484.459 339.18 510.546 345.313 526.763 356.276C532.586 360.213 537.137 364.773 540.263 369C558.263 396.6 500.263 404.284 470.763 417.5C459.785 422.418 452.263 429.106 441.263 426.423C435.106 424.922 430.761 422.196 427.099 418.5C406.763 438.5 394.563 416.5 397.263 411.5Z"
                fill="#FAA805"></path>
            <path
                d="M526.763 356.276C532.586 360.213 537.137 364.773 540.263 369C558.263 396.6 500.263 404.284 470.763 417.5C459.785 422.418 452.263 429.106 441.263 426.423C435.106 424.922 430.761 422.196 427.099 418.5M526.763 356.276C510.546 345.313 484.459 339.18 451.763 358.5C407.763 384.5 410.763 386.5 397.263 411.5C394.563 416.5 406.763 438.5 427.099 418.5M526.763 356.276C420.811 372.168 411.912 403.171 427.099 418.5"
                stroke="#121212"></path>
        </g>
        <g id="Pents">
            <path
                d="M543.263 457.5C606.063 431.9 585.763 330 541.263 323C542.463 341.8 535.263 357 527.763 357C559.363 389.4 551.597 438 543.263 457.5Z"
                fill="#424651"></path>
            <path
                d="M527.763 357C559.363 389.4 551.597 438 543.263 457.5C606.063 431.9 585.763 330 541.263 323C542.463 341.8 535.263 357 527.763 357ZM527.763 357C534.93 360.667 552.663 372.6 562.263 385"
                stroke="#121212"></path>
        </g>
    </g>
</svg>