<svg width="850" height="1048" viewBox="0 0 850 1048" fill="none" xmlns="http://www.w3.org/2000/svg">
    <g id="Start">
        <g id="Barbel">
            <path id="Barbel 1"
                d="M23.4107 236.901C26.0744 236.941 36.9852 235.534 36.9852 235.534L35.8457 213.905C35.8457 213.905 26.8238 213.966 22.2714 215.272C11.7064 218.65 13.3549 234.097 23.4107 236.901Z"
                fill="#7C7C7C" stroke="#121212"></path>
            <g id="Plate Left">
                <path id="Ellipse 4"
                    d="M145.869 313.891L130.898 316.518C87.4161 324.15 44.4821 287.463 35.1568 234.332C25.8315 181.2 53.7064 132.086 97.1885 124.454L97.2768 124.439L97.3648 124.423L97.4525 124.408L97.5398 124.393L97.6267 124.377L97.7134 124.362L97.7997 124.347L97.8857 124.332L97.9713 124.317L98.0566 124.302L98.1416 124.287L98.2262 124.272L98.3105 124.257L98.3945 124.242L98.4782 124.228L98.5615 124.213L98.6445 124.199L98.7272 124.184L98.8096 124.17L98.8916 124.155L98.9733 124.141L99.0547 124.127L99.1357 124.112L99.2165 124.098L99.2969 124.084L99.377 124.07L99.4567 124.056L99.5362 124.042L99.6153 124.028L99.6941 124.014L99.7726 124.001L99.8508 123.987L99.9287 123.973L100.006 123.96L100.083 123.946L100.16 123.933L100.237 123.919L100.313 123.906L100.389 123.892L100.465 123.879L100.54 123.866L100.615 123.853L100.69 123.84L100.764 123.827L100.839 123.814L100.912 123.801L100.986 123.788L101.059 123.775L101.132 123.762L101.204 123.749L101.277 123.737L101.349 123.724L101.42 123.711L101.492 123.699L101.563 123.686L101.633 123.674L101.704 123.662L101.774 123.649L101.844 123.637L101.913 123.625L101.983 123.613L102.052 123.601L102.12 123.589L102.189 123.577L102.257 123.565L102.325 123.553L102.392 123.541L102.459 123.529L102.526 123.517L102.593 123.506L102.659 123.494L102.725 123.482L102.791 123.471L102.856 123.459L102.921 123.448L102.986 123.437L103.051 123.425L103.115 123.414L103.179 123.403L103.243 123.392L103.306 123.38L103.369 123.369L103.432 123.358L103.495 123.347L103.557 123.336L103.619 123.326L103.68 123.315L103.742 123.304L103.803 123.293L103.864 123.283L103.925 123.272L103.985 123.261L104.045 123.251L104.105 123.24L104.164 123.23L104.223 123.219L104.282 123.209L104.341 123.199L104.399 123.189L104.457 123.178L104.515 123.168L104.573 123.158L104.63 123.148L104.687 123.138L104.744 123.128L104.8 123.118L104.856 123.108L104.912 123.099L104.968 123.089L105.023 123.079L105.079 123.069L105.133 123.06L105.188 123.05L105.242 123.041L105.296 123.031L105.35 123.022L105.404 123.012L105.457 123.003L105.51 122.994L105.563 122.984L105.615 122.975L105.668 122.966L105.72 122.957L105.771 122.948L105.823 122.939L105.874 122.93L105.925 122.921L105.976 122.912L106.026 122.903L106.076 122.894L106.126 122.885L106.176 122.877L106.225 122.868L106.274 122.859L106.323 122.851L106.372 122.842L106.42 122.834L106.469 122.825L106.517 122.817L106.564 122.809L106.612 122.8L106.659 122.792L106.706 122.784L106.752 122.776L106.799 122.767L106.845 122.759L106.891 122.751L106.937 122.743L106.982 122.735L107.027 122.727L107.072 122.719L107.117 122.712L107.162 122.704L107.206 122.696L107.25 122.688L107.294 122.681L107.337 122.673L107.381 122.665L107.424 122.658L107.467 122.65L107.509 122.643L107.552 122.635L107.594 122.628L107.636 122.621L107.677 122.613L107.719 122.606L107.76 122.599L107.801 122.592L107.842 122.584L107.882 122.577L107.923 122.57L107.963 122.563L108.003 122.556L108.042 122.549L108.082 122.542L108.121 122.535L108.16 122.529L108.198 122.522L108.237 122.515L108.275 122.508L108.313 122.502L108.351 122.495L108.389 122.488L108.426 122.482L108.463 122.475L108.5 122.469L108.537 122.462L108.574 122.456L108.61 122.45L108.646 122.443L108.682 122.437L108.718 122.431L108.753 122.424L108.788 122.418L108.823 122.412L108.858 122.406L108.893 122.4L108.927 122.394L108.961 122.388L108.995 122.382L109.029 122.376L109.063 122.37L109.096 122.364L109.129 122.358L109.162 122.353L109.195 122.347L109.227 122.341L109.26 122.336L109.292 122.33L109.324 122.324L109.355 122.319L109.387 122.313L109.418 122.308L109.449 122.302L109.48 122.297L109.511 122.291L109.541 122.286L109.572 122.281L109.602 122.275L109.632 122.27L109.661 122.265L109.691 122.26L109.72 122.255L109.749 122.25L109.778 122.244L109.807 122.239L109.836 122.234L109.864 122.229L109.892 122.224L109.92 122.22L109.948 122.215L109.976 122.21L110.003 122.205L110.03 122.2L110.057 122.196L110.084 122.191L110.111 122.186L110.137 122.181L110.164 122.177L110.19 122.172L110.216 122.168L110.241 122.163L110.267 122.159L110.292 122.154L110.318 122.15L110.343 122.145L110.368 122.141L110.392 122.137L110.417 122.132L110.441 122.128L110.465 122.124L110.489 122.12L110.513 122.116L110.537 122.111L110.56 122.107L110.583 122.103L110.606 122.099L110.629 122.095L110.652 122.091L110.675 122.087L110.697 122.083L110.719 122.079L110.741 122.075L110.763 122.072L110.785 122.068L110.807 122.064L110.828 122.06L110.849 122.057L110.87 122.053L110.891 122.049L110.912 122.046L110.932 122.042L110.953 122.038L110.973 122.035L110.993 122.031L111.013 122.028L111.033 122.024L111.053 122.021L111.072 122.017L111.091 122.014L111.11 122.011L111.129 122.007L111.148 122.004L111.167 122.001L111.185 121.998L111.204 121.994L111.222 121.991L111.24 121.988L111.258 121.985L111.276 121.982L111.293 121.979L111.311 121.976L111.328 121.972L111.345 121.969L111.362 121.966L111.379 121.964L111.396 121.961L111.412 121.958L111.429 121.955L111.445 121.952L111.461 121.949L111.477 121.946L111.493 121.944L111.509 121.941L111.524 121.938L111.54 121.935L111.555 121.933L111.57 121.93L111.585 121.927L111.6 121.925L111.615 121.922L111.629 121.92L111.644 121.917L111.658 121.915L111.672 121.912L111.686 121.91L111.7 121.907L111.714 121.905L111.728 121.902L111.741 121.9L111.754 121.898L111.768 121.895L111.781 121.893L111.794 121.891L111.807 121.888L111.819 121.886L111.832 121.884L111.844 121.882L111.857 121.88L111.869 121.878L111.881 121.875L111.893 121.873L111.905 121.871L111.917 121.869L111.928 121.867L111.94 121.865L111.951 121.863L111.962 121.861L111.973 121.859L111.984 121.857L111.995 121.855L112.006 121.854L112.017 121.852L112.027 121.85L112.037 121.848L112.048 121.846L112.058 121.844L112.068 121.843L112.078 121.841L112.088 121.839L112.098 121.837L112.107 121.836L112.117 121.834L112.126 121.832L112.135 121.831L112.144 121.829L112.154 121.828L112.16 121.827L145.869 313.891Z"
                    fill="#494949" stroke="#121212"></path>
                <path id="Ellipse 3"
                    d="M207.363 204.108C216.688 257.239 188.813 306.354 145.331 313.985C101.849 321.617 58.9146 284.93 49.5894 231.799C40.2641 178.667 68.1389 129.553 111.621 121.921C155.103 114.289 198.037 150.976 207.363 204.108Z"
                    fill="#494949" stroke="#121212"></path>
            </g>
            <g id="Barbel hole">
                <path id="Ellipse 2"
                    d="M146.821 237.577L146.815 237.578L146.807 237.58L146.799 237.581L146.791 237.582L146.783 237.584L146.775 237.585L146.767 237.587L146.759 237.588L146.75 237.59L146.742 237.591L146.733 237.593L146.724 237.594L146.716 237.596L146.707 237.597L146.698 237.599L146.689 237.6L146.68 237.602L146.67 237.604L146.661 237.605L146.652 237.607L146.642 237.609L146.633 237.61L146.623 237.612L146.613 237.614L146.604 237.615L146.594 237.617L146.584 237.619L146.574 237.621L146.563 237.622L146.553 237.624L146.543 237.626L146.532 237.628L146.522 237.63L146.511 237.632L146.5 237.634L146.49 237.635L146.479 237.637L146.468 237.639L146.456 237.641L146.445 237.643L146.434 237.645L146.422 237.647L146.411 237.649L146.399 237.651L146.388 237.653L146.376 237.655L146.364 237.657L146.352 237.66L146.34 237.662L146.327 237.664L146.315 237.666L146.303 237.668L146.29 237.67L146.277 237.673L146.265 237.675L146.252 237.677L146.239 237.679L146.226 237.682L146.213 237.684L146.199 237.686L146.186 237.689L146.173 237.691L146.159 237.693L146.145 237.696L146.131 237.698L146.118 237.701L146.104 237.703L146.089 237.706L146.075 237.708L146.061 237.711L146.046 237.713L146.032 237.716L146.017 237.718L146.002 237.721L145.987 237.724L145.972 237.726L145.957 237.729L145.942 237.732L145.927 237.734L145.911 237.737L145.896 237.74L145.88 237.742L145.864 237.745L145.848 237.748L145.832 237.751L145.816 237.754L145.8 237.757L145.783 237.759L145.767 237.762L145.75 237.765L145.733 237.768L145.716 237.771L145.699 237.774L145.682 237.777L145.665 237.78L145.648 237.783L145.63 237.786L145.613 237.789L145.595 237.792L145.577 237.796L145.559 237.799L145.541 237.802L145.523 237.805L145.505 237.808L145.486 237.812L145.468 237.815L145.449 237.818L145.43 237.821L145.411 237.825L145.392 237.828L145.373 237.831L145.353 237.835L145.334 237.838L145.314 237.842L145.295 237.845L145.275 237.849L145.255 237.852L145.235 237.856L145.214 237.859L145.194 237.863L145.173 237.866L145.153 237.87L145.132 237.874L145.111 237.877L145.09 237.881L145.069 237.885L145.048 237.889L145.026 237.892L145.005 237.896L144.983 237.9L144.961 237.904L144.939 237.908L144.917 237.911L144.895 237.915L144.872 237.919L144.85 237.923L144.827 237.927L144.804 237.931L144.781 237.935L144.758 237.939L144.735 237.943L144.711 237.947L144.688 237.952L144.664 237.956L144.641 237.96L144.617 237.964L144.592 237.968L144.568 237.973L144.544 237.977L144.519 237.981L144.495 237.986L144.47 237.99L144.445 237.994L144.42 237.999L144.395 238.003L144.369 238.008L144.344 238.012L144.318 238.017L144.292 238.021L144.266 238.026L144.24 238.03L144.214 238.035L144.187 238.039L144.161 238.044L144.134 238.049L144.107 238.054L144.08 238.058L144.053 238.063L144.026 238.068L143.998 238.073L143.971 238.078L143.943 238.082L143.915 238.087L143.887 238.092L143.859 238.097L143.83 238.102L143.802 238.107L143.773 238.112L143.744 238.117L143.715 238.122L143.686 238.127L143.657 238.133L143.627 238.138L143.598 238.143L143.568 238.148L143.538 238.153L143.508 238.159L143.477 238.164L143.447 238.169L143.416 238.175L143.386 238.18L143.355 238.186L143.323 238.191L143.292 238.197L143.261 238.202L143.229 238.208L143.198 238.213L143.166 238.219L143.134 238.224L143.101 238.23L143.069 238.236L143.036 238.242L143.004 238.247L142.971 238.253L142.938 238.259L142.904 238.265L142.871 238.271L142.837 238.276L142.804 238.282L142.77 238.288L142.736 238.294L142.701 238.3L142.667 238.306L142.632 238.312L142.598 238.318L142.563 238.325L142.528 238.331L142.492 238.337L142.457 238.343L142.421 238.349L142.386 238.356L142.35 238.362L142.313 238.368L142.277 238.375L142.241 238.381L142.204 238.388L142.167 238.394L142.13 238.401L142.093 238.407L142.055 238.414L142.018 238.42L141.98 238.427L141.942 238.434L141.904 238.44L141.866 238.447L141.827 238.454L141.789 238.46L141.75 238.467L141.711 238.474L141.672 238.481L141.633 238.488L141.593 238.495L141.553 238.502L141.513 238.509L141.473 238.516L141.433 238.523L141.393 238.53L141.352 238.537L141.311 238.544L141.27 238.552L141.229 238.559L141.187 238.566L141.146 238.573L141.104 238.581L141.062 238.588L141.02 238.595L140.978 238.603L140.935 238.61L140.892 238.618L140.85 238.625L140.806 238.633L140.763 238.64L140.72 238.648L140.676 238.656L140.632 238.663L140.588 238.671L140.544 238.679L140.499 238.687L140.455 238.695L140.41 238.702L140.365 238.71L140.32 238.718L140.274 238.726L140.229 238.734L140.183 238.742L140.137 238.75L140.091 238.758L140.044 238.767L139.998 238.775L139.951 238.783L139.904 238.791L139.857 238.8L139.809 238.808L139.762 238.816L139.714 238.825L139.666 238.833L139.618 238.841L139.569 238.85L139.521 238.859L139.472 238.867L139.423 238.876L139.374 238.884L139.324 238.893L139.275 238.902L139.225 238.91L139.175 238.919L139.125 238.928L139.074 238.937L139.024 238.946L138.973 238.955L138.922 238.964L138.87 238.973L138.819 238.982L138.767 238.991L138.715 239L138.663 239.009L138.611 239.018L138.558 239.027L138.506 239.037L138.453 239.046L138.4 239.055L138.346 239.065L138.293 239.074L138.239 239.084L138.185 239.093L138.131 239.103L138.076 239.112L138.022 239.122L137.967 239.131L137.912 239.141L137.856 239.151L137.801 239.16L137.745 239.17L137.689 239.18L137.633 239.19L137.577 239.2L137.52 239.21C128.186 240.848 118.915 233.239 116.943 222.008C114.972 210.777 121.099 200.465 130.432 198.827L130.459 198.822L130.486 198.818L130.512 198.813L130.539 198.808L130.566 198.803L130.593 198.799L130.62 198.794L130.646 198.789L130.673 198.785L130.7 198.78L130.727 198.775L130.754 198.771L130.781 198.766L130.808 198.761L130.834 198.756L130.861 198.752L130.888 198.747L130.915 198.742L130.942 198.737L130.969 198.733L130.996 198.728L131.023 198.723L131.05 198.719L131.077 198.714L131.104 198.709L131.131 198.704L131.158 198.7L131.185 198.695L131.212 198.69L131.239 198.685L131.266 198.681L131.293 198.676L131.32 198.671L131.347 198.666L131.374 198.662L131.402 198.657L131.429 198.652L131.456 198.647L131.483 198.643L131.51 198.638L131.537 198.633L131.564 198.628L131.591 198.624L131.618 198.619L131.646 198.614L131.673 198.609L131.7 198.604L131.727 198.6L131.754 198.595L131.781 198.59L131.808 198.585L131.836 198.581L131.863 198.576L131.89 198.571L131.917 198.566L131.944 198.562L131.971 198.557L131.998 198.552L132.026 198.547L132.053 198.543L132.08 198.538L132.107 198.533L132.134 198.528L132.161 198.523L132.189 198.519L132.216 198.514L132.243 198.509L132.27 198.504L132.297 198.5L132.324 198.495L132.351 198.49L132.379 198.485L132.406 198.481L132.433 198.476L132.46 198.471L132.487 198.466L132.514 198.462L132.541 198.457L132.568 198.452L132.596 198.447L132.623 198.443L132.65 198.438L132.677 198.433L132.704 198.428L132.731 198.424L132.758 198.419L132.785 198.414L132.812 198.409L132.839 198.405L132.866 198.4L132.893 198.395L132.92 198.39L132.947 198.386L132.974 198.381L133.001 198.376L133.028 198.371L133.055 198.367L133.082 198.362L133.109 198.357L133.136 198.352L133.163 198.348L133.19 198.343L133.217 198.338L133.244 198.334L133.271 198.329L133.297 198.324L133.324 198.319L133.351 198.315L133.378 198.31L133.405 198.305L133.432 198.301L133.458 198.296L133.485 198.291L133.512 198.286L133.539 198.282L133.565 198.277L133.592 198.272L133.619 198.268L133.646 198.263L133.672 198.258L133.699 198.254L133.725 198.249L133.752 198.244L133.779 198.24L133.805 198.235L133.832 198.23L133.858 198.226L133.885 198.221L133.911 198.216L133.938 198.212L133.964 198.207L133.991 198.202L134.017 198.198L134.044 198.193L134.07 198.188L134.097 198.184L134.123 198.179L134.149 198.175L134.176 198.17L134.202 198.165L134.228 198.161L134.254 198.156L134.281 198.152L134.307 198.147L134.333 198.142L134.359 198.138L134.385 198.133L134.411 198.129L134.438 198.124L134.464 198.119L134.49 198.115L134.516 198.11L134.542 198.106L134.568 198.101L134.594 198.097L134.62 198.092L134.645 198.088L134.671 198.083L134.697 198.078L134.723 198.074L134.749 198.069L134.775 198.065L134.8 198.06L134.826 198.056L134.852 198.051L134.877 198.047L134.903 198.042L134.929 198.038L134.954 198.033L134.98 198.029L135.005 198.024L135.031 198.02L135.056 198.015L135.081 198.011L135.107 198.007L135.132 198.002L135.158 197.998L135.183 197.993L135.208 197.989L135.233 197.984L135.259 197.98L135.284 197.975L135.309 197.971L135.334 197.967L135.359 197.962L135.384 197.958L135.409 197.953L135.434 197.949L135.459 197.945L135.484 197.94L135.509 197.936L135.534 197.932L135.558 197.927L135.583 197.923L135.608 197.919L135.633 197.914L135.657 197.91L135.682 197.906L135.706 197.901L135.731 197.897L135.755 197.893L135.78 197.888L135.804 197.884L135.829 197.88L135.853 197.876L135.877 197.871L135.902 197.867L135.926 197.863L135.95 197.859L135.974 197.854L135.998 197.85L136.022 197.846L136.046 197.842L136.07 197.837L136.094 197.833L136.118 197.829L136.142 197.825L136.166 197.821L136.19 197.816L136.214 197.812L136.237 197.808L136.261 197.804L136.285 197.8L136.308 197.796L136.332 197.792L136.355 197.787L136.379 197.783L136.402 197.779L136.425 197.775L136.449 197.771L136.472 197.767L136.495 197.763L136.518 197.759L136.541 197.755L136.564 197.751L136.587 197.747L136.61 197.743L136.633 197.739L136.656 197.735L136.679 197.731L136.702 197.727L136.725 197.723L136.747 197.719L136.77 197.715L136.793 197.711L136.815 197.707L136.838 197.703L136.86 197.699L136.882 197.695L136.905 197.691L136.927 197.687L136.949 197.683L136.972 197.679L136.994 197.675L137.016 197.671L137.038 197.668L137.06 197.664L137.082 197.66L137.104 197.656L137.126 197.652L137.147 197.648L137.169 197.645L137.191 197.641L137.212 197.637L137.234 197.633L137.255 197.629L137.277 197.626L137.298 197.622L137.32 197.618L137.341 197.614L137.362 197.611L137.383 197.607L137.404 197.603L137.425 197.6L137.446 197.596L137.467 197.592L137.488 197.589L137.509 197.585L137.53 197.581L137.551 197.578L137.571 197.574L137.592 197.57L137.612 197.567L137.633 197.563L137.653 197.56L137.674 197.556L137.694 197.552L137.714 197.549L137.734 197.545L137.755 197.542L137.775 197.538L137.795 197.535L137.815 197.531L137.834 197.528L137.854 197.524L137.874 197.521L137.894 197.517L137.913 197.514L137.933 197.511L137.952 197.507L137.972 197.504L137.991 197.5L138.01 197.497L138.03 197.494L138.049 197.49L138.068 197.487L138.087 197.483L138.106 197.48L138.125 197.477L138.144 197.473L138.163 197.47L138.181 197.467L138.2 197.464L138.219 197.46L138.237 197.457L138.256 197.454L138.274 197.451L138.292 197.447L138.31 197.444L138.329 197.441L138.347 197.438L138.365 197.435L138.383 197.432L138.401 197.428L138.418 197.425L138.436 197.422L138.454 197.419L138.471 197.416L138.489 197.413L138.506 197.41L138.524 197.407L138.541 197.404L138.558 197.401L138.576 197.398L138.593 197.395L138.61 197.392L138.627 197.389L138.644 197.386L138.66 197.383L138.677 197.38L138.694 197.377L138.71 197.374L138.727 197.371L138.743 197.368L138.76 197.365L138.776 197.363L138.792 197.36L138.808 197.357L138.824 197.354L138.84 197.351L138.856 197.348L138.872 197.346L138.888 197.343L138.904 197.34L138.919 197.337L138.935 197.335L138.95 197.332L138.966 197.329L138.981 197.327L138.996 197.324L139.011 197.321L139.026 197.319L139.041 197.316L139.056 197.313L139.071 197.311L139.086 197.308L139.1 197.306L139.115 197.303L139.129 197.301L139.144 197.298L139.158 197.296L139.172 197.293L139.186 197.291L139.2 197.288L139.214 197.286L139.228 197.283L139.242 197.281L139.256 197.278L139.269 197.276L139.283 197.274L139.296 197.271L139.31 197.269L139.323 197.267L139.336 197.264L139.35 197.262L139.363 197.26L139.376 197.257L139.388 197.255L139.401 197.253L139.414 197.251L139.426 197.248L139.439 197.246L139.451 197.244L139.464 197.242L139.476 197.24L139.488 197.238L139.5 197.235L139.512 197.233L139.524 197.231L139.536 197.229L139.548 197.227L139.559 197.225L139.571 197.223L139.582 197.221L139.594 197.219L139.605 197.217L139.616 197.215L139.627 197.213L139.638 197.211L139.649 197.209L139.66 197.207L139.671 197.206L139.681 197.204L139.692 197.202L139.702 197.2L139.713 197.198L139.723 197.196L139.733 197.195L139.733 197.195L146.821 237.577Z"
                    fill="#7C7C7C" stroke="#121212"></path>
                <path id="Ellipse 1"
                    d="M159.256 214.581C161.227 225.812 155.101 236.124 145.767 237.762C136.434 239.4 127.162 231.791 125.191 220.56C123.219 209.329 129.346 199.018 138.679 197.379C148.013 195.741 157.285 203.35 159.256 214.581Z"
                    fill="#7C7C7C" stroke="#121212"></path>
            </g>
            <path id="Barbel 2"
                d="M575.775 199.348L142.146 226.214C133.208 223.722 134.226 211.36 141.442 210.093L575.241 181.167L575.775 199.348Z"
                fill="#7C7C7C" stroke="#121212"></path>
            <g id="Plate right">
                <path id="Ellipse 6"
                    d="M684.771 302.56L665.161 306.002C642.74 309.937 620.048 300.185 601.477 281.122C582.908 262.06 568.502 233.725 562.694 200.629C556.885 167.533 560.78 135.985 571.748 111.74C582.717 87.4919 600.733 70.5953 623.154 66.6601L623.258 66.6418L623.362 66.6235L623.466 66.6052L623.57 66.5871L623.673 66.569L623.776 66.5509L623.878 66.5329L623.98 66.515L624.082 66.4971L624.184 66.4793L624.285 66.4616L624.385 66.4439L624.486 66.4263L624.586 66.4088L624.685 66.3913L624.785 66.3738L624.884 66.3565L624.982 66.3392L625.081 66.3219L625.178 66.3047L625.276 66.2876L625.373 66.2706L625.47 66.2535L625.567 66.2366L625.663 66.2197L625.759 66.2029L625.854 66.1861L625.949 66.1694L626.044 66.1528L626.139 66.1362L626.233 66.1197L626.327 66.1032L626.42 66.0868L626.513 66.0705L626.606 66.0542L626.698 66.038L626.791 66.0218L626.882 66.0057L626.974 65.9897L627.065 65.9737L627.156 65.9577L627.246 65.9419L627.336 65.9261L627.426 65.9103L627.515 65.8946L627.604 65.879L627.693 65.8634L627.782 65.8479L627.87 65.8324L627.957 65.817L628.045 65.8016L628.132 65.7864L628.219 65.7711L628.305 65.7559L628.391 65.7408L628.477 65.7258L628.563 65.7108L628.648 65.6958L628.733 65.6809L628.817 65.6661L628.901 65.6513L628.985 65.6366L629.069 65.6219L629.152 65.6073L629.235 65.5928L629.318 65.5783L629.4 65.5638L629.482 65.5494L629.564 65.5351L629.645 65.5208L629.726 65.5066L629.807 65.4925L629.887 65.4784L629.967 65.4643L630.047 65.4503L630.126 65.4364L630.205 65.4225L630.284 65.4086L630.363 65.3949L630.441 65.3811L630.519 65.3675L630.596 65.3539L630.673 65.3403L630.75 65.3268L630.827 65.3133L630.903 65.2999L630.979 65.2866L631.055 65.2733L631.131 65.2601L631.206 65.2469L631.28 65.2338L631.355 65.2207L631.429 65.2077L631.503 65.1947L631.577 65.1818L631.65 65.1689L631.723 65.1561L631.796 65.1434L631.868 65.1307L631.94 65.118L632.012 65.1054L632.083 65.0928L632.155 65.0804L632.225 65.0679L632.296 65.0555L632.366 65.0432L632.436 65.0309L632.506 65.0187L632.576 65.0065L632.645 64.9943L632.713 64.9823L632.782 64.9702L632.85 64.9582L632.918 64.9463L632.986 64.9344L633.053 64.9226L633.12 64.9108L633.187 64.8991L633.254 64.8874L633.32 64.8758L633.386 64.8642L633.452 64.8527L633.517 64.8412L633.582 64.8298L633.647 64.8184L633.711 64.8071L633.776 64.7958L633.84 64.7846L633.903 64.7734L633.967 64.7623L634.03 64.7512L634.093 64.7402L634.155 64.7292L634.217 64.7183L634.279 64.7074L634.341 64.6966L634.403 64.6858L634.464 64.6751L634.525 64.6644L634.585 64.6537L634.646 64.6431L634.706 64.6326L634.766 64.6221L634.825 64.6116L634.884 64.6012L634.943 64.5909L635.002 64.5806L635.06 64.5703L635.119 64.5601L635.177 64.55L635.234 64.5398L635.292 64.5298L635.349 64.5198L635.405 64.5098L635.462 64.4998L635.518 64.49L635.574 64.4801L635.63 64.4703L635.686 64.4606L635.741 64.4509L635.796 64.4413L635.851 64.4316L635.905 64.4221L635.959 64.4126L636.013 64.4031L636.067 64.3937L636.12 64.3843L636.173 64.375L636.226 64.3657L636.279 64.3565L636.331 64.3473L636.384 64.3381L636.435 64.329L636.487 64.3199L636.538 64.3109L636.59 64.302L636.64 64.293L636.691 64.2841L636.741 64.2753L636.792 64.2665L636.841 64.2578L636.891 64.249L636.94 64.2404L636.989 64.2318L637.038 64.2232L637.087 64.2147L637.135 64.2062L637.183 64.1977L637.231 64.1893L637.279 64.181L637.326 64.1726L637.374 64.1644L637.42 64.1561L637.467 64.1479L637.513 64.1398L637.56 64.1317L637.606 64.1236L637.651 64.1156L637.697 64.1076L637.742 64.0997L637.787 64.0918L637.832 64.0839L637.876 64.0761L637.92 64.0684L637.965 64.0606L638.008 64.0529L638.052 64.0453L638.095 64.0377L638.138 64.0301L638.181 64.0226L638.224 64.0151L638.266 64.0077L638.308 64.0003L638.35 63.9929L638.392 63.9856L638.433 63.9783L638.475 63.9711L638.516 63.9639L638.557 63.9567L638.597 63.9496L638.637 63.9425L638.678 63.9355L638.717 63.9285L638.757 63.9215L638.797 63.9146L638.836 63.9077L638.875 63.9009L638.914 63.8941L638.952 63.8873L638.99 63.8806L639.029 63.8739L639.066 63.8672L639.104 63.8606L639.142 63.854L639.179 63.8475L639.216 63.841L639.253 63.8345L639.289 63.8281L639.326 63.8217L639.362 63.8154L639.398 63.8091L639.433 63.8028L639.469 63.7966L639.504 63.7904L639.539 63.7842L639.574 63.7781L639.609 63.772L639.643 63.766L639.678 63.76L639.712 63.754L639.745 63.7481L639.779 63.7422L639.812 63.7363L639.846 63.7305L639.879 63.7247L639.911 63.7189L639.944 63.7132L639.976 63.7075L640.009 63.7019L640.041 63.6962L640.072 63.6907L640.104 63.6851L640.135 63.6796L640.167 63.6741L640.198 63.6687L640.228 63.6633L640.259 63.6579L640.289 63.6526L640.319 63.6473L640.349 63.642L640.379 63.6368L640.409 63.6316L640.438 63.6265L640.467 63.6213L640.496 63.6162L640.525 63.6112L640.554 63.6062L640.582 63.6012L640.611 63.5962L640.639 63.5913L640.666 63.5864L640.694 63.5815L640.722 63.5767L640.749 63.5719L640.776 63.5672L640.803 63.5624L640.83 63.5578L640.856 63.5531L640.883 63.5485L640.909 63.5439L640.935 63.5393L640.961 63.5348L640.986 63.5303L641.012 63.5258L641.037 63.5214L641.062 63.517L641.087 63.5126L641.112 63.5083L641.136 63.504L641.161 63.4997L641.185 63.4954L641.209 63.4912L641.233 63.487L641.256 63.4829L641.28 63.4788L641.303 63.4747L641.326 63.4706L641.349 63.4666L641.372 63.4626L641.394 63.4586L641.417 63.4547L641.439 63.4508L641.461 63.4469L641.483 63.4431L641.505 63.4392L641.526 63.4355L641.548 63.4317L641.569 63.428L641.59 63.4243L641.611 63.4206L641.632 63.417L641.652 63.4133L641.673 63.4098L641.693 63.4062L641.713 63.4027L641.733 63.3992L641.753 63.3957L641.772 63.3923L641.792 63.3889L641.811 63.3855L641.83 63.3821L641.849 63.3788L641.868 63.3755L641.887 63.3722L641.905 63.369L641.924 63.3658L641.942 63.3626L641.96 63.3594L641.978 63.3563L641.995 63.3532L642.013 63.3501L642.03 63.347L642.047 63.344L642.065 63.341L642.081 63.338L642.098 63.3351L642.115 63.3322L642.131 63.3293L642.148 63.3264L642.164 63.3236L642.18 63.3208L642.196 63.318L642.212 63.3152L642.227 63.3125L642.243 63.3098L642.258 63.3071L642.273 63.3044L642.288 63.3018L642.303 63.2992L642.318 63.2966L642.332 63.294L642.347 63.2915L642.361 63.289L642.375 63.2865L642.389 63.284L642.403 63.2816L642.417 63.2792L642.431 63.2768L642.444 63.2744L642.457 63.2721L642.471 63.2698L642.484 63.2675L642.497 63.2652L642.509 63.263L642.522 63.2607L642.535 63.2585L642.547 63.2564L642.559 63.2542L642.571 63.2521L642.583 63.25L642.595 63.2479L642.607 63.2458L642.619 63.2438L642.63 63.2418L642.641 63.2398L642.653 63.2378L642.664 63.2359L642.675 63.2339L642.686 63.232L642.696 63.2301L642.707 63.2283L642.717 63.2264L642.728 63.2246L642.738 63.2228L642.748 63.221L642.758 63.2193L642.764 63.2183L684.771 302.56Z"
                    fill="#494949" stroke="#121212"></path>
                <path id="Ellipse 5"
                    d="M744.177 168.776C749.986 201.872 746.091 233.419 735.123 257.665C724.154 281.913 706.138 298.81 683.717 302.745C661.296 306.68 638.604 296.928 620.033 277.865C601.464 258.803 587.058 230.468 581.25 197.372C575.441 164.276 579.336 132.729 590.304 108.483C601.273 84.235 619.289 67.3384 641.71 63.4033C664.131 59.4681 686.823 69.2199 705.394 88.2834C723.963 107.345 738.369 135.68 744.177 168.776Z"
                    fill="#494949" stroke="#121212"></path>
            </g>
            <path id="Barbel 3"
                d="M751.306 164.475L751.319 164.474L818.421 159.296C821.666 159.046 824.397 160.236 826.511 162.508C828.637 164.793 830.15 168.189 830.879 172.342C831.596 176.43 830.643 180.553 828.869 183.699C827.081 186.87 824.537 188.927 822.158 189.104C819.536 189.299 802.353 190.538 785.825 191.729C777.561 192.324 769.461 192.907 763.427 193.341L756.163 193.864L754.139 194.009L753.607 194.048L753.471 194.057L753.437 194.06L753.428 194.061L753.428 194.061L753.426 194.061L753.425 194.061L753.415 194.061L753.372 194.064L753.205 194.075L752.554 194.117C751.983 194.153 751.144 194.207 750.074 194.275C747.935 194.412 744.87 194.607 741.171 194.84C733.773 195.305 723.837 195.923 713.683 196.531C703.529 197.14 693.159 197.738 684.892 198.166C676.608 198.595 670.476 198.85 668.767 198.776C663.281 198.538 657.696 193.977 656.249 185.732C655.521 181.581 656.008 177.647 657.357 174.655C658.695 171.687 660.851 169.695 663.472 169.235C663.838 169.17 665.473 169.045 668.116 168.875C670.736 168.706 674.306 168.496 678.501 168.259C686.89 167.786 697.776 167.208 708.562 166.647C719.348 166.087 730.034 165.544 738.024 165.141C742.018 164.939 745.339 164.773 747.661 164.657L750.354 164.523L751.063 164.487L751.244 164.478L751.29 164.476L751.302 164.475L751.305 164.475C751.305 164.475 751.306 164.475 751.283 164.008L751.306 164.475Z"
                fill="#7C7C7C" stroke="#121212"></path>
        </g>
        <g id="Vector 1">
            <path
                d="M260 219C260.261 226.408 249.534 242.169 251 249.5L249.5 261L229.5 258C228.7 252.8 219 244 220.5 221.5C219.585 219.975 218.941 218.471 218.527 217C220.921 225.5 213 229 211.5 219C209.451 205.343 222.774 195.667 229.16 193.5C230.647 190.174 235 191.5 235.5 192.2C243.5 185.56 252.5 197.5 258 202.5L249.082 203C249.082 203 246.067 201.61 244 201.5C242.428 201.417 240 202 240 202C240.887 209.132 241.362 219.643 246 220L260 219Z"
                fill="#F2EFE6"></path>
            <path
                d="M228 198.5C225.333 200.833 221 206 223 214.5C223.433 216.339 224.5 220.5 227.134 221M228 198.5C227.651 201.877 228.262 209.331 229.5 214.5C231 221 229 221 227.134 221M228 198.5C228.142 197.128 228.356 195.968 228.628 195M220.5 221.5C219 244 228.7 252.8 229.5 258L249.5 261L251 249.5C249.534 242.169 260.261 226.408 260 219L246 220C241.362 219.643 240.887 209.132 240 202M220.5 221.5C221 225.5 228.397 229.149 227.134 221M220.5 221.5C219.585 219.975 218.941 218.471 218.527 217M240 202C239.644 199.136 239.359 198.076 238.5 196.5C237.92 194.761 236 192.9 235.5 192.2M240 202C240 202 242.428 201.417 244 201.5C246.067 201.61 249.082 203 249.082 203L258 202.5C252.5 197.5 243.5 185.56 235.5 192.2M235.5 192.2C235 191.5 230.647 190.174 229.16 193.5M228.628 195C228.786 194.436 228.965 193.938 229.16 193.5M228.628 195C223.644 198.346 215.682 206.899 218.527 217M229.16 193.5C222.774 195.667 209.451 205.343 211.5 219C213 229 220.921 225.5 218.527 217"
                stroke="#121212"></path>
        </g>
        <path id="Neck right" d="M323.5 224L345.5 217.5L337 264L314.5 260.5L323.5 224Z" fill="#F2EFE6" stroke="#121212">
        </path>
        <path id="Elbow left"
            d="M263 381.5C252.2 380.3 248.167 372.334 247.5 368.5L269 363.5C271.5 370 273.8 382.7 263 381.5Z"
            fill="#F2EFE6" stroke="#121212"></path>
        <path id="Trapezius right"
            d="M364.5 176.5C368 203 409.5 216 405.5 224C388 236.334 350.6 261.3 341 262.5C331.4 263.7 340 229.334 345.5 212L364.5 176.5Z"
            fill="#F2EFE6" stroke="#121212"></path>
        <path id="Forearm left"
            d="M252.5 251.5C248.5 256.3 235.5 257.5 229.5 257.5C237.5 295.5 223 304.5 240 354.5C250.182 384.447 260.333 371.667 266 361C263.167 322.5 256.5 246.7 252.5 251.5Z"
            fill="#F2EFE6" stroke="#121212"></path>
        <path id="Shoulder left"
            d="M250.5 280.5C236.1 235.7 279.167 226.167 302.5 227L297.5 262C287.833 286.834 264.9 325.3 250.5 280.5Z"
            fill="#F2EFE6" stroke="#121212"></path>
        <path id="Neck left"
            d="M293 257.5C288.2 251.5 302 226.667 304 216.5L317 229C316.333 236.167 297.8 263.5 293 257.5Z"
            fill="#F2EFE6" stroke="#121212"></path>
        <path id="Body"
            d="M261.092 370.327C254.94 354.364 266.804 350.373 259.774 336.405L302.395 251.102L313.819 223.665C315.283 220.506 315.775 212 322.5 212C326.651 212 332.5 212 332.5 217.5L315.5 266L395.5 299L383.5 359.5L336.667 478.079L271.198 512L264.607 500.527C266.365 472.591 252.304 489.552 263.728 427.196C260.213 424.003 261.092 405.912 261.971 397.265C257.049 390.481 259.334 376.48 261.092 370.327Z"
            fill="#F2EFE6" stroke="#121212"></path>
        <path id="Lats right"
            d="M435 350.5C430.567 387.705 399.5 408 390.5 435.5L387 368.5C369.8 320.5 387.5 284.834 398.5 273L425.5 282.5C425.5 282.5 438.173 323.875 435 350.5Z"
            fill="#F2EFE6" stroke="#121212"></path>
        <g id="Shoulder right">
            <path
                d="M404.5 221C473.555 216.397 465.465 270.288 478.969 291.349C479.406 291.966 479.846 292.586 480.29 293.21C481.113 294.254 482.011 295.189 483 296L482.133 295.792L433 284L384.5 278.5L349.5 246C366.6 243.522 375.839 237.359 383 231.772C390.286 226.087 395.422 221 404.5 221Z"
                fill="#F2EFE6"></path>
            <path
                d="M383 231.772C375.839 237.359 366.6 243.522 349.5 246L384.5 278.5L433 284L483 296C463.5 280 479.5 216 404.5 221C395.422 221 390.286 226.087 383 231.772ZM383 231.772C438 224.722 451 252.5 483 297"
                stroke="#121212"></path>
        </g>
        <path id="Elbow right"
            d="M536.5 374.5C534.5 387.3 520.333 387.167 513.5 385.5L477.5 367L456 337.5L465 317L511.5 327C520.667 337.5 538.5 361.7 536.5 374.5Z"
            fill="#F2EFE6" stroke="#121212"></path>
        <g id="Right triceps">
            <path
                d="M465 329C501 350 493.5 383 524 386C515.432 386.415 507.428 386.01 500 384.99C465 378.5 442.083 363.617 434.5 353C435.195 337.932 429.431 321.241 422.676 307.5C417.776 297.531 412.354 286.616 408.5 281.5L414.5 284L465 329Z"
                fill="#F2EFE6"></path>
            <path
                d="M500 384.99C465 378.5 442.083 363.617 434.5 353C435.195 337.932 429.431 321.241 422.676 307.5M500 384.99C507.428 386.01 515.432 386.415 524 386C493.5 383 501 350 465 329L414.5 284L408.5 281.5C412.354 286.616 417.776 297.531 422.676 307.5M500 384.99C445.5 361.503 453 331.5 422.676 307.5"
                stroke="#121212"></path>
        </g>
        <g id="Biceps right">
            <path d="M505.5 333C436.5 341.5 440.5 301 407.5 281C427.667 276.5 481.7 279.2 506.5 320L505.5 333Z"
                fill="#F2EFE6"></path>
            <path
                d="M407.5 281C440.5 301 436.5 341.5 505.5 333L506.5 320M407.5 281C427.667 276.5 481.7 279.2 506.5 320M407.5 281C428.667 284.167 478.1 296.4 506.5 320"
                stroke="#121212"></path>
        </g>
        <g id="Hand right">
            <path
                d="M529 235C521.333 229 504.9 211.6 500.5 190C501 187.167 501.3 180.5 498.5 176.5C495 171.5 503.979 170.979 507 174C509.993 176.993 511.889 178.158 512.376 185C514.417 176.333 521.5 166.5 529 175.5C531.5 173 537 169.7 539 176.5C540.571 175.5 546.6 168.3 553 177.5C556.5 176.5 559.2 178.8 560 182C552.5 183 544.9 186.4 544.5 196C544 199 542 203.9 538 199.5C538.34 200.096 538.591 200.79 538.741 201.5L562.5 200C561.7 202 563.833 208.833 565 212C561.8 222 562.667 236.833 563.5 243L549 255L529 235Z"
                fill="#F2EFE6"></path>
            <path
                d="M512.376 185C511.889 178.158 509.993 176.993 507 174C503.979 170.979 495 171.5 498.5 176.5C501.3 180.5 501 187.167 500.5 190C504.9 211.6 521.333 229 529 235L549 255L563.5 243C562.667 236.833 561.8 222 565 212C563.833 208.833 561.7 202 562.5 200L538.741 201.5M512.376 185C512.458 186.158 512.5 187.48 512.5 189C512.719 191.194 513.996 196.427 515.5 199.5C521.07 206.3 521.808 199.333 522.5 196M512.376 185C514.417 176.333 521.5 166.5 529 175.5M529 175.5C520 182 521 185 522.5 196M529 175.5C531.5 173 537 169.7 539 176.5M522.5 196C522.654 197.2 522.5 198 523.5 201C526.833 211 535 207.5 532.5 203.5M539 176.5C540.571 175.5 546.6 168.3 553 177.5M539 176.5C522.5 187 532 197 532.5 203.5M553 177.5C556.5 176.5 559.2 178.8 560 182C552.5 183 544.9 186.4 544.5 196C544 199 542 203.9 538 199.5M553 177.5C534.5 184.5 537.333 194.5 538 199.5M538 199.5C538.34 200.096 538.591 200.79 538.741 201.5M532.5 203.5C537.811 208.811 539.472 204.963 538.741 201.5"
                stroke="#121212"></path>
        </g>
        <g id="Forearm right">
            <path
                d="M563.5 243C547.5 290.5 565 310 535.5 377C533.364 381.851 522.43 380.709 514.178 368.5C507.971 359.316 503.283 343.869 505 320C506.763 295.5 529 251 529 235C532.5 237 535.601 241.138 543 243C548.537 244.393 555 244.5 563.5 243Z"
                fill="#F2EFE6"></path>
            <path
                d="M543 243C535.601 241.138 532.5 237 529 235C529 251 506.763 295.5 505 320C503.283 343.869 507.971 359.316 514.178 368.5M543 243C548.537 244.393 555 244.5 563.5 243C547.5 290.5 565 310 535.5 377C533.364 381.851 522.43 380.709 514.178 368.5M543 243C519 279.649 533 368.5 514.178 368.5"
                stroke="#121212"></path>
        </g>
        <path id="Head"
            d="M375.647 101.476C396.147 142.476 370.295 175.952 363.647 183.476C357 191 352.985 211.542 343.5 221C333.393 231.078 323.353 232 314.353 231C305.353 230 299.5 223.376 301.5 212.976C303.5 202.576 291.314 186.143 285.148 184.476C272.647 175.976 283.648 167.976 278.648 160.976C277.048 157.376 278.814 145.143 279.647 141.476C276.047 138.676 283.647 133.976 284.147 129.476C279.347 129.876 279.648 118.476 281.147 115.476C288.147 101.476 283.648 99.9763 293.147 90.4763C323.947 59.6763 365.397 80.9763 375.647 101.476Z"
            fill="#F2EFE6" stroke="#121212"></path>
        <path id="Mouth" d="M278 156.267C283 154.767 289.5 160.267 300.5 156.267" stroke="#121212"></path>
        <path id="Pelvis right"
            d="M318.621 487.977C318.221 469.577 335.788 455.643 344.621 450.977L349.5 443C350 441.167 349.5 443 390.621 435.477C387.021 463.077 399 474 405.5 482L377.621 532.477L314.621 520.477C316.121 517.31 319.021 506.377 318.621 487.977Z"
            fill="#F2EFE6" stroke="#121212"></path>
        <path id="Adductors right"
            d="M400.621 475.977C379.021 477.177 359.288 493.477 352.121 501.477L373.621 512.477L406.5 488.5C406.5 482.014 406.002 481.502 400.655 476.011L400.621 475.977Z"
            fill="#F2EFE6" stroke="#121212"></path>
        <g id="Obliques right">
            <path
                d="M334.121 350.477C346.121 346.477 352.621 365.977 383.121 355.977C385.461 359.647 388.188 364.692 390.627 370.477C392.519 374.963 394.238 379.895 395.469 384.977C397.127 391.816 393.273 403.167 392.121 413.977C391.225 422.394 390.121 426.977 390.621 434.977C377.021 454.177 355.121 452.977 344.621 456.477C324.221 458.477 329.621 428.477 344.621 428.477C321.821 426.877 327.121 402.477 340.121 401.977C319.321 402.777 327.455 383.31 334.121 373.477C318.121 362.277 327.455 353.477 334.121 350.477Z"
                fill="#F2EFE6"></path>
            <path
                d="M383.121 355.977C352.621 365.977 346.121 346.477 334.121 350.477C327.455 353.477 318.121 362.277 334.121 373.477M383.121 355.977C385.461 359.647 388.188 364.692 390.627 370.477M383.121 355.977C365.521 376.377 343.121 376.143 334.121 373.477M334.121 373.477C327.455 383.31 319.321 402.777 340.121 401.977M340.121 401.977C327.121 402.477 321.821 426.877 344.621 428.477M340.121 401.977C354.792 395.81 385.431 380.877 390.627 370.477M344.621 428.477C329.621 428.477 324.221 458.477 344.621 456.477C355.121 452.977 377.021 454.177 390.621 434.977C390.121 426.977 391.225 422.394 392.121 413.977C393.273 403.167 397.127 391.816 395.469 384.977M344.621 428.477C358.52 422.477 388.148 405.377 395.469 384.977M390.627 370.477C392.519 374.963 394.238 379.895 395.469 384.977"
                stroke="#121212"></path>
        </g>
        <g id="ABS">
            <g id="Abs 7">
                <path
                    d="M318.621 515.477C314.788 519.477 305.121 525.377 297.121 516.977L278.621 513.477C271.621 502.477 265.621 447.977 275.621 454.977C279.818 457.914 286.621 458.477 289.621 459.977C295.621 457.477 309.621 453.477 322.621 458.977C317.621 469.977 326.121 497.977 318.621 515.477Z"
                    fill="#F2EFE6"></path>
                <path
                    d="M289.621 459.977C289.121 475.643 289.121 508.577 297.121 516.977M289.621 459.977C295.621 457.477 309.621 453.477 322.621 458.977C317.621 469.977 326.121 497.977 318.621 515.477C314.788 519.477 305.121 525.377 297.121 516.977M289.621 459.977C286.621 458.477 279.818 457.914 275.621 454.977C265.621 447.977 271.621 502.477 278.621 513.477L297.121 516.977"
                    stroke="#121212"></path>
            </g>
            <path id="Abs 6"
                d="M296.121 415.977C301.314 417.599 315.121 421.977 323.622 421.977C325.122 425.977 328.122 448.977 323.622 454.977C303.622 449.977 299.622 454.977 291.122 454.977C287.622 440.477 288.122 413.477 296.121 415.977Z"
                fill="#F2EFE6" stroke="#121212"></path>
            <path id="Abs 5"
                d="M287.121 421.477C286.622 427.977 285.121 440.977 287.121 447.477C289.121 453.977 288.621 455.977 288.621 455.977C286.221 456.777 277.821 453.477 274.621 449.477C266.621 439.477 267.621 416.777 274.121 415.477C276.621 414.977 287.67 414.339 287.121 421.477Z"
                fill="#F2EFE6" stroke="#121212"></path>
            <path id="Abs 4"
                d="M291.122 413.977C286.322 408.777 285.621 385.477 287.621 379.477C290.121 371.977 298.621 387.977 317.121 391.977C325.621 393.815 324.521 412.777 324.121 417.977C308.621 417.977 301.621 409.477 291.122 413.977Z"
                fill="#F2EFE6" stroke="#121212"></path>
            <path id="Abs 3"
                d="M286.121 410.977C283.815 401.753 283.621 383.31 285.121 378.477C285.121 374.477 279.721 377.277 270.121 382.477C264.621 390.977 266.921 408.677 272.121 413.477C280.121 408.477 287.621 416.977 286.121 410.977Z"
                fill="#F2EFE6" stroke="#121212"></path>
            <path id="Abs 1"
                d="M283.812 370.682C283.412 374.682 273.645 378.348 268.812 379.682C261.812 378.182 261.173 344.943 266.69 345.205C277.19 345.705 284.885 333.346 285.5 339.5C286.5 349.5 284.312 365.682 283.812 370.682Z"
                fill="#F2EFE6" stroke="#121212"></path>
            <path id="Abs 2"
                d="M322.121 388.477C315.721 390.477 288.621 375.477 289.621 368.977C288.621 353.977 291.349 344.977 292.621 337.977C295.5 340.5 309.5 346.5 320.621 348.477C319.121 361.477 330.121 381.977 322.121 388.477Z"
                fill="#F2EFE6" stroke="#121212"></path>
            <path id="Button"
                d="M292.621 456.977C292.621 458.401 292.201 459.671 291.545 460.572C290.89 461.473 290.027 461.977 289.121 461.977C288.216 461.977 287.353 461.473 286.697 460.572C286.042 459.671 285.621 458.401 285.621 456.977C285.621 455.552 286.042 454.283 286.697 453.382C287.353 452.48 288.216 451.977 289.121 451.977C290.027 451.977 290.89 452.48 291.545 453.382C292.201 454.283 292.621 455.552 292.621 456.977Z"
                fill="#F2EFE6" stroke="#121212"></path>
        </g>
        <path id="Chest right"
            d="M320.42 251.976C302.92 265.476 283.92 313 287.42 327C310 350 338 347.5 361 336.5C382.834 320.833 395.05 288.623 407.5 281C395 277.5 389 268.167 382 263.5C365.5 252.5 366.56 251.932 352.5 246.5C341.5 243 323.661 249.476 320.42 251.976Z"
            fill="#F2EFE6" stroke="#121212"></path>
        <path id="Left chest"
            d="M249.46 329.806C245.86 295.006 238.5 248.306 299.46 248.306C309.647 248.306 313.96 254.155 308.96 258.806C291.76 274.806 282.127 310.806 279.96 329.806C276.96 339.306 272.46 342.306 260.96 342.306C254.46 342.306 251.293 335.139 249.46 329.806Z"
            fill="#F2EFE6" stroke="#121212"></path>
        <path id="Calf right 3"
            d="M448.621 891.976C449.621 908.476 439.621 929.976 440.621 953.476L434.121 961.976L414.121 969.976L406.121 928.976L398.121 832.976L403.121 776.476L431.621 801.976L450.621 852.476L448.621 891.976Z"
            fill="#F2EFE6" stroke="#121212"></path>
        <path id="Calf right 2"
            d="M400.121 794.976C414.121 799.376 403.121 908.976 420.121 957.476L412.621 969.476L404.621 950.476C409.121 935.976 378.621 841.976 379.621 828.976C379.852 825.976 375.121 820.976 376.121 814.476L400.121 794.976Z"
            fill="#F2EFE6" stroke="#121212"></path>
        <path id="Calf right 1"
            d="M448.621 890.976C471.621 794.976 423.621 794.976 409.621 758.976C409.621 758.976 405.884 758.482 405.621 759.476C395.828 796.518 451.056 825.727 448.621 890.976Z"
            fill="#FFE492" stroke="#121212"></path>
        <path id="Knee right"
            d="M352.121 744.976L386.621 731.976L402.121 743.976C402.121 743.976 407.6 756.976 409.121 764.976C410.37 771.543 410.121 781.976 410.121 781.976C410.121 798.476 379.054 826.976 373.621 812.976C360.621 779.476 343.121 770.476 352.121 744.976Z"
            fill="#F2EFE6" stroke="#121212"></path>
        <path id="Foot right"
            d="M440.621 952.976C427.021 960.176 408.621 950.976 404.621 950.976C410.621 994.976 387.621 999.476 373.621 1013.48C362.244 1024.85 355.121 1028.31 354.121 1029.98C337.121 1038.98 356.621 1052.98 363.121 1039.98C359.621 1049.98 370.621 1046.98 372.121 1041.48C372.121 1050.98 381.121 1046.98 382.121 1041.48C382.121 1050.48 390.621 1045.98 391.621 1041.48C391.621 1051.48 401.288 1045.81 404.621 1041.48C416.221 1045.08 422.121 1030.48 432.621 1023.98C455.021 1015.98 450.288 998.976 445.121 991.476C450.121 977.976 437.621 974.476 440.621 952.976Z"
            fill="#F2EFE6" stroke="#121212"></path>
        <path id="Calf 3"
            d="M302.621 894.976C303.821 898.976 301.121 910.643 299.621 915.976L287.121 936.976L271.121 922.476L253.121 842.476L248.621 781.476L249.621 771.976L287.121 774.476L294.121 834.976C296.455 853.309 301.421 890.976 302.621 894.976Z"
            fill="#F2EFE6" stroke="#121212"></path>
        <path id="Knee left"
            d="M250.621 772.976C236.621 750.976 237.621 731.976 242.622 706.476C264.455 710.809 309.621 723.176 305.621 731.976C301.621 740.776 301.288 752.309 301.621 756.976L305.621 769.976C303.788 780.809 296.221 801.776 280.621 798.976C265.021 796.176 252.621 780.976 250.621 772.976Z"
            fill="#F2EFE6" stroke="#121212"></path>
        <path id="Calf Left 2"
            d="M249.621 770.976C251.622 838.476 270.121 827.476 278.621 923.976L261.621 915.976C265.122 890.976 234.622 823.976 249.621 770.976Z"
            fill="#F2EFE6" stroke="#121212"></path>
        <path id="Calf Left 1"
            d="M311.622 873.976C339.122 830.976 328.122 788.976 301.622 756.976C312.622 798.976 260.621 789.476 275.622 838.476C266.122 861.976 298.651 881.976 302.621 895.476C304.122 884.976 310.023 876.476 311.622 873.976Z"
            fill="#FFE492" stroke="#121212"></path>
        <path id="Quadriceps left 3"
            d="M306.621 705.476L293.621 599.976H337.121L335.121 664.976L314.621 702.976L306.621 705.476Z" fill="#F2EFE6"
            stroke="#121212"></path>
        <path id="Quadriceps Left 4"
            d="M278.621 707.476L255.121 589.976L298.121 599.976L300.121 702.476L278.621 707.476Z" fill="#F2EFE6"
            stroke="#121212"></path>
        <path id="Hamstering left"
            d="M333.622 643.976C336.788 656.143 341.222 681.376 333.622 684.976C326.147 688.517 309.121 722.976 303.621 736.976C299.621 719.476 324.013 668.335 333.622 643.976Z"
            fill="#FFE492" stroke="#121212"></path>
        <path id="Quadriceps Right 3"
            d="M415 594.5C423.007 611.086 422.591 643.143 421.091 651.976L418.121 701.476L403.621 748.976L390.121 745.476L383.621 651.476V593.476C388.955 591.309 408 580 415 594.5Z"
            fill="#F2EFE6" stroke="#121212"></path>
        <path id="Hamstering right"
            d="M395.121 743.476C409.921 736.276 419.833 669.667 422 638C435 696.5 405.621 731.476 410.121 760.476C395.121 766.476 394.955 755.309 395.121 743.476Z"
            fill="#FFE492" stroke="#121212"></path>
        <path id="Quadriceps Right 2"
            d="M389.621 758.476C364.121 765.476 363.121 735.976 353.121 720.476L349.621 593.476L384.621 594.976C429.621 613.976 400.621 755.456 389.621 758.476Z"
            fill="#FAA805" stroke="#121212"></path>
        <path id="Quadriceps  Right 1"
            d="M349.122 752.976C320.621 728.976 332.621 659.976 326.122 610.476C323.955 600.309 327.321 582.776 358.121 593.976C383.121 623.476 358.121 716.476 361.621 739.976C364.421 758.776 354.455 756.476 349.122 752.976Z"
            fill="#FAA805" stroke="#121212"></path>
        <path id="Quadriceps Left 2"
            d="M285.621 706.976C292.821 692.976 286.621 626.143 282.621 594.476L298.621 601.976C324.121 630.976 308.884 714.637 306.621 730.476C305.121 740.976 291.621 741.876 289.121 738.976C284.955 734.143 278.421 720.976 285.621 706.976Z"
            fill="#FAA805" stroke="#121212"></path>
        <g id="Quadriceps Left 1">
            <path
                d="M242.121 708.976C213.721 674.576 228.621 611.476 238.621 584.476C248.955 581.309 268.921 578.776 266.121 593.976C264.274 604.003 261.921 608.504 269.121 634.976C272.121 650.476 285.672 686.117 288.621 695.476C294.621 717.076 288.621 732.945 283.621 734.976C272.955 739.309 262.863 742.25 256.121 733.976C245.121 720.476 246.621 713.476 242.121 708.976Z"
                fill="#FAA805"></path>
            <path
                d="M242.121 708.976C213.721 674.576 228.621 611.476 238.621 584.476C248.955 581.309 268.921 578.776 266.121 593.976C264.274 604.003 261.921 608.504 269.121 634.976M242.121 708.976C246.621 713.476 245.121 720.476 256.121 733.976C262.863 742.25 272.955 739.309 283.621 734.976C288.621 732.945 294.621 717.076 288.621 695.476C285.672 686.117 272.121 650.476 269.121 634.976M242.121 708.976C250.621 679.976 269.121 684.976 269.121 634.976"
                stroke="#121212"></path>
        </g>
        <g id="Foot left">
            <path
                d="M299.621 915.976C288.021 920.776 269.621 920.976 261.621 915.976C262.347 924.832 263.621 931.476 261.621 938.976C246.121 948.976 231.817 964.774 221.343 969.669C200.344 975.032 192.164 989.488 195.621 990.476C193.621 994.476 196.455 995.476 198.121 995.476C207.321 1003.88 217.955 998.309 222.121 994.476C240.621 998.476 251.621 980.739 256.121 980.976C278.921 982.176 298.802 986.976 306.121 971.476C314.621 953.476 296.121 944.476 299.621 915.976Z"
                fill="#F2EFE6"></path>
            <path
                d="M198.121 995.476C207.321 1003.88 217.955 998.309 222.121 994.476C240.621 998.476 251.621 980.739 256.121 980.976C278.921 982.176 298.802 986.976 306.121 971.476C314.621 953.476 296.121 944.476 299.621 915.976C288.021 920.776 269.621 920.976 261.621 915.976C262.347 924.832 263.621 931.476 261.621 938.976C246.121 948.976 231.817 964.774 221.343 969.669C200.344 975.032 192.164 989.488 195.621 990.476M198.121 995.476C196.455 995.476 193.621 994.476 195.621 990.476M198.121 995.476C196.955 994.143 196.921 990.276 206.121 985.476C217.621 979.476 217.621 979.476 222.621 977.976M195.621 990.476C197.288 986.976 204.021 980.076 213.621 976.476"
                stroke="#121212"></path>
        </g>
        <g id="Pants">
            <path
                d="M326.121 610.477C303.321 612.477 256.121 596.977 238.621 584.477C234.621 574.477 265.221 542.177 265.621 500.977C268.606 503.009 271.931 504.757 275.5 506.231C300.028 516.364 336.058 513.548 352.121 500.977C367.121 499.143 399.5 492.5 406.5 488C408 494 409 501 411.5 511.5C414 522 424.5 537 417.5 601C411.5 599.5 407.743 597.953 394.121 596.977C380.5 596 329.621 593.477 326.121 610.477Z"
                fill="#424651"></path>
            <path
                d="M326.121 610.477C303.321 612.477 256.121 596.977 238.621 584.477C234.621 574.477 265.221 542.177 265.621 500.977C268.606 503.009 271.931 504.757 275.5 506.231M326.121 610.477C329.621 593.477 380.5 596 394.121 596.977C407.743 597.953 411.5 599.5 417.5 601C424.5 537 414 522 411.5 511.5C409 501 408 494 406.5 488C399.5 492.5 367.121 499.143 352.121 500.977M326.121 610.477C284.219 587.258 274.914 531.305 275.5 506.231M326.121 610.477C305.321 572.458 334.788 521.635 352.121 500.977M352.121 500.977C336.058 513.548 300.028 516.364 275.5 506.231"
                stroke="#121212"></path>
        </g>
    </g>
</svg>