<svg xmlns="http://www.w3.org/2000/svg" width="493" height="920" fill="none" viewBox="0 0 493 920">
  <path fill="#3B3F49" d="M354.445 886.5c-10.8-6.4-22.379-6.772-31.712-16.105-5.2-12-2.167-30.334 0-38 13.414-47.267 27-107.5 13-168-11-38.5-7-40.5-7-48.5 20-62 19-154-8.5-200.5-4-45.5 12-58.5-4-82-4-7.2-3-19-2-24 12.8-9.6 17.333-22.334 18-27.5 2.4 11.2 11.333 19 15.5 21.5-8 46 47.5 65.5 63 106 0 18.8 7.667 36.833 11.5 43.5 4.4 8.8 7.833 24.333 9 31 .875 5 9.5 2.5 9-1.5-.4-3.2-1.5-16.667-2-23 .8 4.4 8.667 22.5 12.5 31 4 5.5 11.714.5 10-3.5-1.2-2.8-6.833-21.5-9.5-30.5 1.6 1.6 14 21.5 21 30.5 5 4.5 9.5-2.834 8-6.5-1.5-3.667-11.5-21-15.5-29.5l5.04 5.721c3.543 4.54 8.413 10.826 13.46 15.279 10 4.5 11-5.794 8.5-8-6.8-6-19.167-28.834-24.5-39.5 19.2 13.2 26.7 5.5 24 1-1.5-2.5-31-28-49-29.5-32.5-42 2-68-49-111 2-26-14.5-41.834-23-46.5 14.8-64-19.833-84.667-39-87-6.4-7.6-37.333-21.834-52-28v-13.5c3.6-3.6 6.167-15.5 7-21 16.5-15 13.5-36 3.5-37 5.2-31.6-20.5-45.5-34-48.5-18-6.8-27.167-1.834-29.5 1.5-13.6 2.8-21.667 20.833-24 29.5-1.2 4 1.5 14 3 18.5-10.5 1-6 13.5-6.5 21-.4 6 6.5 12.5 10 15 0 8.8 3.333 17.666 5 21v15c-18.8 5.2-40.833 19.833-49.5 26.5-55 11-48.5 63.833-40.5 87-22.8 17.6-25.167 38.333-23.5 46.5-49 48.5-11.5 62-50.5 112.5-14 0-40 21.5-45 26.5s-1 6.5 0 7 7.5 0 9 0c1.2 0 9.167-4 13-6 .8 2.4-16.667 28.666-25.5 41.5-1.319 5.539 2.138 7.2 5.5 7 2 0 3 0 4.5-1.5l18-20c-.4 1.2-9.833 17.833-14.5 26-2.987 10.046 1.808 11.638 6 10 1.983-.775 3.5-2.5 4.5-4 1.2-1.2 12.5-19.5 18-28.5 0 4-9.5 23-9.5 30.5s5 6.5 8.5 5.5c2.8-.8 10.5-21.667 14-32-5.647 30.746 4.925 28 8.5 22 3.33-5.589 3.324-15.053 5-23 6.4-15.2 11.333-38 13-47.5 10.5-38 72.5-58 64-107.5 8.5-6.5 14-15.667 16-21 2.4 12 12.333 22.333 17 26 2.4 12-1 21.666-3 25-7.6 9.2-6.167 30.166-4.5 39.5 4 21.2 1.667 36.833 0 42-30.4 65.6-21.667 140.666-13.5 170 9.6 30 7 48.833 4.5 54.5-22 66.4-9.167 134 0 159.5 6 9.2 9.167 43.833 10 60 5.6 11.2-22.121 19.166-37.288 29-9 5.835-12.452 14.124 0 19.105 5 2 30.318 4.263 47.5 9.895 11 3.605 15.5 1.605 21.5 1.605 15.5-5 16.455-21.772 12.788-30.605-6-14.8-5.5-65.5-4.5-89 25.6-57.2 13.667-109.5 4.5-128.5 14.8-15.6 16.5-77.167 15.5-106 6-2.4 11.167-61 13-90 0 28.4 8 71.833 12 90-2.8 52.4 10.833 92.5 18 106-18.4 52-4.667 107.333 4.5 128.5 3.6 14.8-1.5 53.833-4.5 71.5-6 33.6 2.5 45 7.5 46.5 10.212 3.063 19.683 3.069 26.712 0 13.5-5.895 11.5-4.395 42-7.395 21-7 9.717-18.427 2-23Z"/>
  <path fill="#F2EFE6" d="M229.945 92c-4.166 3-11.8 12-9 24 4.167-5.167 11.8-17.2 9-24Zm-150.5 308.5c11-21 32.5-75 22-111-22 20-25.5 38-28 62 .8 18.4-9.5 33-13.5 40-6.857 12 16.357 15 19.5 9Z"/>
  <path fill="#F2EFE6" d="M140.445 304.5c-44.5 21.5-27 36-46.5 70.5 16.667-12.333 49.3-43.7 46.5-70.5Zm37 147.5c-1.2-6.8-1.5-23.5-1.5-31-12.8 22.4-15.333 45.333-15 54 1.2-6.8 11.5-18.167 16.5-23Zm62 21c-8 7.2-19 9.667-23.5 10 0 26 6 55 15.5 67.5 4-9.6 9-50 8-77.5Zm-54.5-1c-6.4-7.2-7.333-12.667-7-14.5-7.6 5.2-14.833 18.5-17.5 24.5-7.2 16-4 50.667-1.5 66 1.6-26 15-62.5 26-76Z"/>
  <path fill="#F2EFE6" d="M195.445 480c-5.2-2-7.833-4.5-8.5-5.5-12.5 18-23.1 53.1-25.5 79.5-1.454 16 .2 29.6 7 46 4 8 5 21.5 1.5 41 4-10.5 15.825-19.5 16-44 .4-56-2-77.5 9.5-117Z"/>
  <path fill="#F2EFE6" d="M212.445 483c-4.4.8-10.833-.333-13.5-1-12 30-10.9 103-8.5 117 6.172 36 19 44 23 66 16-20 16-79.5 16-108.5-13.6-20.4-17-50-17-73.5Zm-39 159c13-19.76 12.5-6 12.5 13.5-1.2 13.2 5.81 73.72 3 103.5-2.5 26.5-25.434 21-28 1.5-8-60.8 0-99.5 12.5-118.5Z"/>
  <path fill="#F2EFE6" d="M219.445 728c6.857 63.618-26.898 62-25.5 34.5 1.2-23.599-2.833-72.5-5-94-1.2-22-1-39 3.5-39 2.5 0 18 15 27 98.5Zm-39.5-329.5c11-36.5 59-13 63.5 8.5v54c-23.6 32-57.999 15.5-61-4.5-1.459-9.73-3.5-42.334-2.5-58Zm18.5-207c-14.5 19-24 11-35.5 20 8.4 18 28.834 14.5 38 10.5-2.5-9.5-2.5-22-2.5-30.5Z"/>
  <path fill="#F2EFE6" d="M200.945 225.5c-18 8.8-34.5 2-39-9-3 22.5-2.4 55 16 79 5 5 15 19.1 15 35.5 15.5 0 45.9-15.8 49.5-31-22-15.5-41.5-50.5-41.5-74.5Z"/>
  <path fill="#F2EFE6" d="M243.445 306c-7 15.5-33.5 29.5-50 29.5 6.8 13.2 5.834 32.5 4.5 40.5 24.8-.8 37.5 6 45.5 22.5V306Z"/>
  <path fill="#F2EFE6" d="M185.445 316c2.5 3 3.9 13.3 3.5 18.5 7 15.5 7.3 32.5 4.5 42.5-4.26 2.367-12.553 8.318-13.425 12.34l-.075.66c0-.213.026-.433.075-.66 1.796-16.539-3.075-24.11-3.075-35.84 0-10.5 8-18.5 8.5-37.5Zm58.5-186.5c0 9.2-10.333 15.5-15.5 17.5 11.2 0 15.5 11.5 15.5 18.5V297c-37.2-35.6-42.5-71-42.5-118-3-18.5-13.5-13-32-27 6.8-6.4 28-17.5 39.5-20.5 18-7 22-23.5 27-36 3.986-9.966 7.334-3 8 1.5v32.5Z"/>
  <path fill="#F2EFE6" d="M164.945 154c-42 8.5-48 55.5-36.5 78 5-4.5 6.5-6 9.5-9-4-13 15-50 39.5-61.5-3.5-2.5-9.5-3.5-12.5-7.5Z"/>
  <path fill="#F2EFE6" d="M180.445 162.5c-17.703 11.274-38.26 38.364-40.5 59 30-27.5 40.169-10.639 56.766-33.791 2.371-23.153-16.266-25.209-16.266-25.209Zm-72.5 140.5c-1.5-25-17-30.5 35-78.5-12 26-13.5 31-13.5 45-10 5.5-4.5 25-21.5 33.5Z"/>
  <path fill="#F2EFE6" d="M134.445 282c-1-14 2.5-58 24.5-67.5-4 14-1.666 41.833 0 54 2.8 18.8-20.5 32.833-32.5 37.5-1.6-6.8 4.667-18.833 8-24Zm129.5-190.409c4.167 3 11.8 12 9 24-4.167-5.166-11.8-17.2-9-24Zm150.5 308.5c-11-21-32.5-75-22-111 22 20 25.5 38 28 62-.8 18.4 9.5 33 13.5 40 6.857 12-16.357 15-19.5 9Z"/>
  <path fill="#F2EFE6" d="M353.445 304.091c44.5 21.5 27 36 46.5 70.5-16.666-12.333-49.3-43.7-46.5-70.5Zm-37 147.5c1.2-6.8 1.5-23.5 1.5-31 12.8 22.4 15.334 45.334 15 54-1.2-6.8-11.5-18.166-16.5-23Zm-62 21c8 7.2 19 9.667 23.5 10 0 26-6 55-15.5 67.5-4-9.6-9-50-8-77.5Zm54.5-1c6.4-7.2 7.334-12.666 7-14.5 7.6 5.2 14.834 18.5 17.5 24.5 7.2 16 4 50.667 1.5 66-1.6-26-15-62.5-26-76Z"/>
  <path fill="#F2EFE6" d="M298.445 479.591c5.2-2 7.834-4.5 8.5-5.5 12.5 18 23.1 53.1 25.5 79.5 1.455 16-.2 29.6-7 46-4 8-5 21.5-1.5 41-4-10.5-15.825-19.5-16-44-.4-56 2-77.5-9.5-117Z"/>
  <path fill="#F2EFE6" d="M281.445 482.591c4.4.8 10.834-.333 13.5-1 12 30 10.9 103 8.5 117-6.171 36-19 44-23 66-16-20-16-79.5-16-108.5 13.6-20.4 17-50 17-73.5Zm39 159c-13-19.76-12.5-6-12.5 13.5 1.2 13.2-5.809 73.721-3 103.5 2.5 26.5 25.435 21 28 1.5 8-60.8 0-99.5-12.5-118.5Z"/>
  <path fill="#F2EFE6" d="M274.445 727.592c-6.857 63.617 26.899 61.999 25.5 34.5-1.2-23.6 2.834-72.5 5-94 1.2-22 1-39-3.5-39-2.5-.001-18 15-27 98.5Zm39.5-329.501c-11-36.5-59-13-63.5 8.5v54c23.6 32 58 15.5 61-4.5 1.46-9.729 3.5-42.333 2.5-58Zm-18.5-207c14.5 19 24 11 35.5 20-8.4 18-28.833 14.5-38 10.5 2.5-9.5 2.5-22 2.5-30.5Z"/>
  <path fill="#F2EFE6" d="M292.945 225.091c18 8.8 34.5 2 39-9 3 22.5 2.4 55-16 79-5 5-15 19.1-15 35.5-15.5 0-45.9-15.8-49.5-31 22-15.5 41.5-50.5 41.5-74.5Z"/>
  <path fill="#F2EFE6" d="M250.445 305.591c7 15.5 33.5 29.5 50 29.5-6.8 13.2-5.833 32.5-4.5 40.5-24.8-.8-37.5 6-45.5 22.5v-92.5Z"/>
  <path fill="#F2EFE6" d="M308.445 315.591c-2.5 3-3.9 13.3-3.5 18.5-7 15.5-7.3 32.5-4.5 42.5 4.26 2.367 12.554 8.319 13.426 12.34.023.219.048.439.074.66 0-.213-.025-.433-.074-.66-1.796-16.539 3.074-24.11 3.074-35.84 0-10.5-8-18.5-8.5-37.5Zm-58.5-186.5c0 9.2 10.334 15.5 15.5 17.5-11.2 0-15.5 11.5-15.5 18.5v131.5c37.2-35.6 42.5-71 42.5-118 3-18.5 13.5-13 32-27-6.8-6.4-28-17.5-39.5-20.5-18-7-22-23.5-27-36-3.986-9.965-7.333-3-8 1.5v32.5Z"/>
  <path fill="#F2EFE6" d="M328.945 153.591c42 8.5 48.001 55.5 36.5 78-4.999-4.5-6.499-6-9.499-9 3.999-13-15.001-50-39.501-61.5 3.5-2.5 9.5-3.5 12.5-7.5Z"/>
  <path fill="#F2EFE6" d="M313.445 162.091c17.703 11.274 38.261 38.365 40.5 59-30-27.5-40.169-10.639-56.766-33.791-2.37-23.152 16.266-25.209 16.266-25.209Zm72.5 140.5c1.5-25 17-30.5-35-78.5 12 26 13.5 31 13.5 45 10 5.5 4.5 25 21.5 33.5Z"/>
  <path fill="#F2EFE6" d="M359.445 281.591c1-14-2.5-58-24.5-67.5 4 14 1.667 41.834 0 54-2.8 18.8 20.5 32.834 32.5 37.5 1.6-6.8-4.666-18.833-8-24Z"/>
</svg>
