<svg xmlns="http://www.w3.org/2000/svg" width="492" height="926" fill="none" viewBox="0 0 492 926">
  <path fill="#3B3F49" d="M128.658 906.395c10.8-6.4 32.166-26.667 41.5-36 5.2-12 2.166-30.334 0-38-13.414-47.267-27-107.5-13-168 11-38.5 7-40.5 7-48.5-20-62-19-154 8.5-200.5 4-45.5-12-58.5 4-82 4-7.2 3-19 2-24-12.8-9.6-17.334-22.334-18-27.5-2.4 11.2-11.334 19-15.5 21.5 8 46-47.5 65.5-63 106 0 18.8-7.667 36.833-11.5 43.5-4.4 8.8-7.834 24.333-9 31-.875 5-9.5 2.5-9-1.5.4-3.2 1.5-16.667 2-23-.8 4.4-8.667 22.5-12.5 31-4 5.5-11.715.5-10-3.5 1.2-2.8 6.833-21.5 9.5-30.5-1.6 1.6-14 21.5-21 30.5-5 4.5-9.5-2.834-8-6.5 1.5-3.667 11.5-21 15.5-29.5l-5.04 5.721c-3.543 4.54-8.413 10.826-13.46 15.279-10 4.5-11-5.794-8.5-8 6.8-6 19.166-28.834 24.5-39.5-19.2 13.2-26.7 5.5-24 1 1.5-2.5 31-28 49-29.5 32.5-42-2-68 49-111-2-26 14.5-41.834 23-46.5-14.8-64 19.833-84.667 39-87 6.4-7.6 37.333-21.834 52-28v-13.5c-3.6-3.6-6.167-15.5-7-21-16.5-15-13.5-36-3.5-37-5.2-31.6 20.5-45.5 34-48.5 18-6.8 27.166-1.834 29.5 1.5 13.6 2.8 21.666 20.833 24 29.5 1.2 4-1.5 14-3 18.5 10.5 1 6 13.5 6.5 21 .4 6-6.5 12.5-10 15 0 8.8-3.334 17.666-5 21v15c18.8 5.2 40.833 19.833 49.5 26.5 55 11 48.5 63.833 40.5 87 22.8 17.6 25.166 38.333 23.5 46.5 49 48.5 11.5 62 50.5 112.5 14 0 40 21.5 45 26.5s1 6.5 0 7-7.5 0-9 0c-1.2 0-9.167-4-13-6-.8 2.4 16.666 28.666 25.5 41.5 1.318 5.539-2.138 7.2-5.5 7-2 0-3 0-4.5-1.5l-18-20c.4 1.2 9.833 17.833 14.5 26 2.986 10.046-1.809 11.638-6 10-1.984-.775-3.5-2.5-4.5-4-1.2-1.2-12.5-19.5-18-28.5 0 4 9.5 23 9.5 30.5s-5 6.5-8.5 5.5c-2.8-.8-10.5-21.667-14-32 5.647 30.746-4.926 28-8.5 22-3.33-5.589-3.324-15.053-5-23-6.4-15.2-11.334-38-13-47.5-10.5-38-72.5-58-64-107.5-8.5-6.5-14-15.667-16-21-2.4 12-12.334 22.333-17 26-2.4 12 1 21.666 3 25 7.6 9.2 6.166 30.166 4.5 39.5-4 21.2-1.667 36.833 0 42 30.4 65.6 21.666 140.666 13.5 170-9.6 30-7 48.833-4.5 54.5 22 66.4 9.166 134 0 159.5-6 9.2-9.167 43.833-10 60-5.6 11.2 23.333 33.666 38.5 43.5 19.6 11.6 4.166 19.166-6 21.5-4 2.4-28.667 1-40.5 0-6-6.4-18.167-7.334-23.5-7-19.2-2-16.667-20.167-13-29 6-14.8 5.5-65.5 4.5-89-25.6-57.2-13.667-109.5-4.5-128.5-14.8-15.6-16.5-77.167-15.5-106-6-2.4-11.167-61-13-90 0 28.4-8 71.833-12 90 2.8 52.4-10.834 92.5-18 106 18.4 52 4.666 107.333-4.5 128.5-3.6 14.8 1.5 53.833 4.5 71.5 6 33.6-2.5 45-7.5 46.5-10-2.8-23.167 3.5-28.5 7-60 4-65.5-9.5-52-17.5Z"/>
  <path fill="#F2EFE6" d="M306.749 734.395c0-27.5 23.5-37.5 19.5-79 13.6 34.8 8.001 72 7 87.5-3.478 53.888-24.651 71.5-26.5 98-1.199 17.2-4.833 13.5-6.5 9.5-7.2-27.6 6.5-107.332 6.5-116Zm-19.063 55.5c9.2-40-.5-92.334-6.5-113.5-7.2 14.4-9.305 36.842-9 57 .38 25.053 9.167 47.833 15.5 56.5Zm9.329-201.5c-15.6-16.8-18.167-62.334-17.5-83-9.2 10.4-11 40-14 53.5-3.2 20.8 0 38 2 44 .4 26 13.5 28.166 20 26 19.2-11.2 14.333-31.667 9.5-40.5Zm14.016-10c18.8-25.2 15.5-84.5 11.5-111 1.6 0 9 19 12.5 28.5 4.8 19.2.333 55-2.5 70.5-2.8 38.4-13.5 44.666-18.5 43-10.8-5.2-6.5-22.834-3-31Z"/>
  <path fill="#F2EFE6" d="M283.92 538.515c-5.2-36.4 2-133 10-129 9.5.5 15.5 29.5 20.5 38.5 7.6 15.2 6.5 56 5 74.5-1.6 40.4-12.334 54.834-17.5 57-10.8 3.6-16.5-25.833-18-41Zm-30.762-73.12c14-9.6 26.5-36 31-48-4.5 23-3.5 57.5-6.5 75-11.2 12.8-14.667 40.666-15 53-6.8-10.4-9.167-57.667-9.5-80Zm54.44-149c-3.6-17.6 1.5-30.667 4.5-35-22 6-24.167 35.833-22.5 50 2.8-8 13.166-13.334 18-15Zm-19.44 22c5.2-12 15.833-17 20-18-1 8 .5 13 3.5 18-8.8 2.8-20 16.833-23.5 23.5v-23.5Z"/>
  <path fill="#F2EFE6" d="M281.158 400.895c0-32 21.667-54.334 32-59 4.5 5.5 3.5 17 2.5 24-1.571 11-16.167 29.333-24.5 36.5-7.558 6.5-10 3.5-10-1.5Zm51.749-155.01c-9.5 32.5 5.5 26-20.501 57.5-5-4 7-21.5 1.501-33.5-1.6-7.6 11.5-24 14.5-33 2.8-13.6 5.5-3.5 4.5 9Zm-84.749 200.739v-99c31-3 26 24.5 26 24.5s-1.5 72.5-26 74.5Zm-.001-102.208v-42c5.001-4 12.501-1 17.001 0 15.5 4 11.5 13.334 11.499 20 .4 24.4-7.999 22-28.5 22Z"/>
  <path fill="#F2EFE6" d="M268.158 299.974c10 5.6 14-4 14-4s3-7.333 2.5-9c-8.4-14-26-22.5-36.5-21.5v33c10.4-1.2 17.666.5 20 1.5Z"/>
  <path fill="#F2EFE6" d="M295.158 245.2c-20-3.6-41.5-8.501-47-4v19.499c15.2-.4 27.667 9.167 32 14 7.2 6.8 13.667 2.167 16-1 15.6-17.6 5.833-26.333-1-28.499Zm-25.806-80.305c10.4-6.8 41-10.834 55-12-18.8-15.6-41.5-22.167-50.5-23.5 1.5 12.5-6 22-9 30.5-2.4 6.8 2 6.166 4.5 5Zm56.806 29c1.5 10 9.569 19.633 13.5 24.5-16.667-17.334-58.3-49-91.5-37 2.8-11.2 29.5-16.667 42.5-18 13.263 4.754 35.5 21.5 35.5 30.5Z"/>
  <path fill="#F2EFE6" d="M311.158 235.991c-13.5 12.5-39.5-1.5-63 0v-51c26-13.5 69 14 88.5 33.033-15.092.804-16.088 11.379-25.5 17.967Zm62.731 80.904c-10.4-2-18-10.5-20.5-14.5-2.799 30 20.5 53 30.5 61.5s26.5 31 31 40.5c11.667 1.333 23-3.66 11.5-11-18.8-12-32.166-28.667-36.5-35.5-13-17.5-3-24.5-16-41Z"/>
  <path fill="#F2EFE6" d="M433.494 393.895c-32-61.5 3-61-43-101.5-9.5 25.5-16.6 62.7 43 101.5Zm-62.818-149.797c27.2 24.4 17.333 53.167 9 64.5 6-46.5-7.5-54.5-10.5-61-2.4-5.2 0-4.5 1.5-3.5Z"/>
  <path fill="#F2EFE6" d="M359.2 235.045c-9-13-20.833-16-23.5-12-4.5 21.5 19.9 96 39.5 88 4.155-30.331 2-46.5-10-63.5-1-4-3.251-8.53-6-12.5Z"/>
  <path fill="#F2EFE6" d="M348.819 291.895c3.2 8.4-.666 4.833-3 2-1-1.5-4.3-6.4-9.5-14s-2.833-19.5-1-24.5c.929 7.057 3.214 12.459 5 17 3.023 7.683 5.986 12.9 8.5 19.5Zm-17.161-97.251c.4 10.8 22.167 31.833 33 41 2.8-22-16.501-65.5-38-77.5-8.501-3-24 3.833-27.5 6 10.667 5.667 32.1 19.7 32.5 30.5Z"/>
  <path fill="#F2EFE6" d="M366.977 236.395c6.146-24.139 7.586-73.734-35.819-79 12.993 8.609 38.348 36.461 35.819 79Zm-62.725 172.5c-4.497-11.991 6-17.5 11-18.5-4 9.2-1.667 21.5 0 26.5 14.8 28 16.833 49.333 16 56.5.5-10.5-21-48.5-27-64.5Zm-35.094-296.5c2.5 20.5-4.2 42.7-21 59.5 0-29 1-34.5 21-59.5Zm-73.5 475.5c15.6-16.8 18.166-62.334 17.5-83 9.2 10.4 11 40 14 53.5 3.2 20.8 0 38-2 44-.4 26-13.5 28.166-20 26-19.2-11.2-14.334-31.667-9.5-40.5Zm-14.5-10c-18.8-25.2-15.5-84.5-11.5-111-1.6 0-9 19-12.5 28.5-4.8 19.2-.334 55 2.5 70.5 2.8 38.4 13.5 44.666 18.5 43 10.8-5.2 6.5-22.834 3-31Z"/>
  <path fill="#F2EFE6" d="M207.657 537.895c5.2-36.4-2-133-10-129-9.5.5-15.5 29.5-20.5 38.5-7.6 15.2-6.5 56-5 74.5 1.6 40.4 12.334 54.833 17.5 57 10.8 3.6 16.5-25.834 18-41Zm30.5-71.5c-14-9.6-26.5-36-31-48 4.5 23 3.5 57.5 6.5 75 11.2 12.8 14.667 40.666 15 53 6.8-10.4 9.167-57.667 9.5-80Zm-52.5-150c3.6-17.6-1.5-30.667-4.5-35 22 6 24.167 35.833 22.5 50-2.8-8-13.166-13.334-18-15Zm18.5 22c-5.2-12-15.833-17-20-18 1 8-.5 13-3.5 18 8.8 2.8 20 16.833 23.5 23.5v-23.5Z"/>
  <path fill="#F2EFE6" d="M211.157 400.895c0-32-21.666-54.334-31.999-59-4.501 5.5-3.501 17-2.501 24 1.572 11 16.167 29.333 24.5 36.5 7.559 6.5 10 3.5 10-1.5Zm-51-156.001c9.5 32.5-5.5 26 20.501 57.5 4.999-3.999-7.001-21.499-1.501-33.499 1.6-7.6-11.5-24.001-14.5-33-2.8-13.6-5.5-3.5-4.5 8.999Zm83.501 201.501v-99c-31-3-26 24.5-26 24.5s1.5 72.5 26 74.5Zm-.001-102.5v-42c-5-4-12.5-1-17 0-15.5 4-11.5 13.333-11.5 20-.4 24.4 8 22 28.5 22Z"/>
  <path fill="#F2EFE6" d="M223.658 299.395c-10 5.6-14-4-14-4s-3-7.334-2.5-9c8.4-14 26-22.5 36.5-21.5v33c-10.4-1.2-17.667.5-20 1.5Z"/>
  <path fill="#F2EFE6" d="M196.657 245.895c20-3.6 41.5-8.5 47-4v19.5c-15.2-.4-27.666 9.166-32 14-7.2 6.8-13.666 2.166-16-1-15.6-17.6-5.833-26.333 1-28.5Zm26.5-81.5c-10.4-6.8-41-10.834-55-12 18.8-15.6 41.5-22.167 50.5-23.5-1.5 12.5 6 22 9 30.5 2.4 6.8-2 6.166-4.5 5Zm-58 29.5c-1.5 10-9.569 19.633-13.5 24.5 16.667-17.334 58.3-49 91.5-37-2.8-11.2-29.5-16.667-42.5-18-13.263 4.754-35.5 21.5-35.5 30.5Z"/>
  <path fill="#F2EFE6" d="M180.157 236.395c13.5 12.5 39.5-1.5 63 0v-51c-26-13.5-69 14-88.5 33.033 15.092.804 16.088 11.378 25.5 17.967Zm-61.5 80.5c10.4-2 18-10.5 20.5-14.5 2.8 30-20.5 53-30.5 61.5s-26.5 31-31 40.5c-11.667 1.333-23-3.66-11.5-11 18.8-12 32.167-28.667 36.5-35.5 13-17.5 3-24.5 16-41Z"/>
  <path fill="#F2EFE6" d="M59.657 393.395c32-61.5-3-61 43-101.5 9.5 25.5 16.6 62.7-43 101.5Zm63.501-149.5c-27.2 24.4-17.334 53.166-9 64.5-6.001-46.5 7.5-54.5 10.5-61 2.4-5.2 0-4.5-1.5-3.5Z"/>
  <path fill="#F2EFE6" d="M133.658 235.395c9-13 20.833-16 23.5-12 4.5 21.5-19.9 96-39.5 88-4.155-30.331-2-46.5 10-63.5 1-4 3.251-8.53 6-12.5Z"/>
  <path fill="#F2EFE6" d="M144.658 291.395c-3.2 8.4.666 4.833 3 2 1-1.5 4.3-6.4 9.5-14s2.833-19.5 1-24.5c-.929 7.057-3.214 12.459-5 17-3.023 7.683-5.986 12.9-8.5 19.5Zm17.499-98.001c-.4 10.8-22.167 31.834-33 41-2.8-22 16.5-65.499 38-77.5 8.5-2.999 24 3.834 27.5 6-10.667 5.667-32.1 19.7-32.5 30.5Z"/>
  <path fill="#F2EFE6" d="M127.338 235.395c-6.146-24.139-7.586-73.734 35.819-79-12.993 8.609-38.348 36.461-35.819 79Zm61.82 174c4.496-11.991-6-17.5-11-18.5 4 9.2 1.666 21.5 0 26.5-14.8 28-16.834 49.333-16 56.5-.5-10.5 21-48.5 27-64.5Zm-3.5 324.5c0-27.5-23.5-37.5-19.5-79-13.6 34.8-8 72-7 87.5 3.478 53.888 24.651 71.5 26.5 98 1.2 17.2 4.833 13.5 6.5 9.5 7.2-27.6-6.5-107.332-6.5-116Zm19.5 56c-9.2-40 .5-92.334 6.5-113.5 7.2 14.4 9.305 36.842 8.999 57-.38 25.053-9.166 47.833-15.499 56.5Zm17-677.5c-2.5 20.5 4.2 42.7 21 59.5 0-29-1-34.5-21-59.5Z"/>
</svg>
