<svg width="877" height="981" viewBox="0 0 877 981" fill="none" xmlns="http://www.w3.org/2000/svg">
    <g id="Start">
        <path id="Bench leg 2" d="M602.594 620.5L624.594 634.5L634.594 605L614.094 471.5H580.594L602.594 620.5Z"
            fill="#FBFBFB" stroke="#121212"></path>
        <path id="Bench leg 1" d="M645.594 620.5L624.594 469L600.594 474.5L624.594 634.5L645.594 620.5Z" fill="#FBFBFB"
            stroke="#121212"></path>
        <path id="Bench" d="M591.094 543L168.094 742.5L174.534 766.202L610.594 543.5L591.094 543Z" fill="#FBFBFB"
            stroke="#121212"></path>
        <path id="Left Elbow"
            d="M397.594 284.707L364.094 304.707L381.594 344.207L404.594 353.207C412.427 346.873 427.594 331.407 425.594 320.207C423.594 309.007 415.76 296.873 412.094 292.207L397.594 284.707Z"
            fill="#F2EFE6" stroke="#121212"></path>
        <g id="Triceps left">
            <path
                d="M363.594 304.707C384.394 314.307 403.927 343.04 411.094 356.207L433.594 383.707C433.503 386.052 433.255 388.606 432.818 391.207C430.052 407.639 419.685 425.928 393.094 405.207C367.285 385.096 361.909 344.623 362.609 318.207C362.745 313.098 363.108 308.515 363.594 304.707Z"
                fill="#FFE492"></path>
            <path
                d="M362.609 318.207C362.745 313.098 363.108 308.515 363.594 304.707C384.394 314.307 403.927 343.04 411.094 356.207L433.594 383.707C432.927 400.873 423.894 429.207 393.094 405.207C367.285 385.096 361.909 344.623 362.609 318.207ZM362.609 318.207C370.938 339.373 406.418 382.807 432.818 391.207"
                stroke="#121212"></path>
        </g>
        <path id="Shoulder front left"
            d="M435.594 352.707C448.794 355.107 459.427 369.707 463.094 376.707L437.594 380.207C431.427 370.04 422.394 350.307 435.594 352.707Z"
            fill="#FAC832" stroke="#121212"></path>
        <path id="Bench_2" d="M614.594 569L168.034 789.202L158.534 760.202L610.594 543.5L614.594 569Z" fill="#FBFBFB"
            stroke="#121212"></path>
        <path id="Bench leg"
            d="M164.034 859.202L135.534 872.202L132.034 843.702L152.534 710.202L184.534 714.702L164.034 859.202Z"
            fill="#FBFBFB" stroke="#121212"></path>
        <path id="Right calf"
            d="M117.534 691.702C113.934 696.502 120.034 712.202 118.034 720.202L100.534 743.202L75.5338 720.202C74.5338 689.202 43.0338 639.702 35.5338 603.702C53.1338 593.302 71.8671 605.702 74.0338 617.202L91.5338 668.202L117.534 691.702Z"
            fill="#F2EFE6" stroke="#121212"></path>
        <path id="Shoulder mid"
            d="M602.594 473.207C605.094 498.207 597.594 524.707 553.594 524.707L569.094 489.207L602.594 473.207Z"
            fill="#FFE492" stroke="#121212"></path>
        <g id="Right calf_2">
            <path
                d="M75.5627 720.302C75.5435 720.264 75.5338 720.231 75.5338 720.202C75.5434 720.235 75.5531 720.268 75.5627 720.302C76.5267 722.18 101.366 733.928 118.034 720.202C117.2 725.868 123.989 736.658 133.534 753.702C140.534 766.202 118.034 778.702 108.034 778.702C56.9799 778.702 73.0338 781.202 40.0338 792.702C37.3671 793.535 31.2338 794.402 28.0338 791.202C22.5338 794.535 9.73373 799.402 2.53376 792.202C-1.96622 787.702 2.20043 782.868 6.53376 782.702C7.75362 780.16 7.11343 777.743 13.0084 774.202C13.1177 772.537 14.8536 769.561 20.0338 766.878C19.7971 765.771 21.0565 763.626 26.5338 761.759C26.0338 759.74 30.8338 755.402 54.0338 754.202C61.5338 753.702 62.5338 746.702 76.0338 742.702C78.527 741.963 79.0907 732.551 75.5627 720.302Z"
                fill="#F2EFE6"></path>
            <path
                d="M6.53376 782.702C2.20043 782.868 -1.96622 787.702 2.53376 792.202C9.73373 799.402 22.5338 794.535 28.0338 791.202C31.2338 794.402 37.3671 793.535 40.0338 792.702C73.0338 781.202 56.9799 778.702 108.034 778.702C118.034 778.702 140.534 766.202 133.534 753.702C123.989 736.658 117.2 725.868 118.034 720.202C101.034 734.202 75.5338 721.702 75.5338 720.202C79.0938 732.5 78.5338 741.961 76.0338 742.702C62.5338 746.702 61.5338 753.702 54.0338 754.202C30.8338 755.402 26.0338 759.74 26.5338 761.759M6.53376 782.702C14.0338 781.035 29.4338 776.902 31.0338 773.702M6.53376 782.702C7.75362 780.16 7.11343 777.743 13.0084 774.202M34.5338 765.702C23.2216 769.212 16.7785 771.937 13.0084 774.202M13.0084 774.202C13.1177 772.537 14.8536 769.561 20.0338 766.878M33.5338 762.702C27.5206 763.754 23.1528 765.263 20.0338 766.878M20.0338 766.878C19.7971 765.771 21.0565 763.626 26.5338 761.759M35.5338 759.702C31.7077 760.281 28.7694 760.997 26.5338 761.759"
                stroke="#121212"></path>
        </g>
        <path id="Bench leg_2" d="M118.034 855.202L138.034 709.202L157.034 718.702L135.534 872.202L118.034 855.202Z"
            fill="#FBFBFB" stroke="#121212"></path>
        <path id="Right calf_3"
            d="M26.5338 564.702C34.9338 544.702 62.0338 527.202 78.5338 521.702L88.5338 548.702L100.534 592.702L73.5338 620.702L35.5338 603.702C27.1338 593.302 23.8037 571.202 26.5338 564.702Z"
            fill="#F2EFE6" stroke="#121212"></path>
        <path id="Right calf_4"
            d="M118.534 619.702C120.534 608.902 112.034 601.202 107.534 598.702C98.0338 590.535 79.4338 578.202 81.0338 594.202C83.0338 614.202 70.5338 611.202 62.0338 623.202C55.2338 632.802 62.2005 648.868 66.5338 655.702C80.5338 680.502 102.534 689.702 115.534 680.702C115.7 664.868 116.534 630.502 118.534 619.702Z"
            fill="#F2EFE6" stroke="#121212"></path>
        <path id="Bench 2"
            d="M92.0337 629.202L157.534 602.702L155.534 583.702L216.034 568.702L619.034 417.702L706.594 467C706.594 467 707.094 472.25 706.594 474C706.094 475.75 703.594 477.5 703.594 477.5L221.034 703.702L182.034 721.702C174.034 725.702 156.034 725.202 152.034 721.702C152.034 721.702 86.5337 671.202 83.5337 666.202C76.5338 653.202 81.5337 633.202 92.0337 629.202Z"
            fill="#393939" stroke="#121212"></path>
        <path id="Bench 1"
            d="M95.5338 623.702L157.534 595.702L155.534 576.702L216.034 561.702L614.534 410.202L706.034 466.702L221.034 696.702L182.034 714.702C174.034 718.702 156.034 718.202 152.034 714.702C152.034 714.702 86.5337 664.202 83.5337 659.202C76.5338 646.202 85.0337 627.702 95.5338 623.702Z"
            fill="#393939" stroke="#121212"></path>
        <path id="Right leg"
            d="M82.0337 592.702C51.6337 595.902 53.0338 569.202 72.5337 567.702L116.034 528.702L201.034 507.202L207.534 518.702L210.534 550.702L155.534 577.202L82.0337 592.702Z"
            fill="#F2EFE6" stroke="#121212"></path>
        <path id="Right leg_2"
            d="M49.5338 557.702C46.5338 547.702 70.0337 543.202 75.0338 534.202L108.534 512.202L190.534 511.202C194.934 518.402 133.534 544.202 105.534 565.202C98.7004 569.202 81.6338 576.602 68.0338 574.202C54.4338 571.802 50.0338 562.202 49.5338 557.702Z"
            fill="#F2EFE6" stroke="#121212"></path>
        <path id="Right leg_3"
            d="M120.534 572.702C141.034 552.702 188.034 567.702 208.534 539.202L224.034 561.702L209.534 579.202L128.534 599.702L86.0338 597.702C77.2338 596.102 71.5338 588.16 84.5338 588.702C94.1338 589.102 115.409 577.702 120.534 572.702Z"
            fill="#F2EFE6" stroke="#121212"></path>
        <path id="Right leg_4"
            d="M158.034 595.702C169.534 594.702 204.034 589.702 211.034 581.202V575.202C202.234 572.802 141.534 597.202 85.0338 597.202C89.8338 600.802 120.034 606.702 134.534 605.702L158.034 595.702Z"
            fill="#F2EFE6" stroke="#121212"></path>
        <path id="Right leg_5"
            d="M75.0338 526.202C91.0338 505.002 146.034 475.702 196.534 478.202L200.034 510.702C149.534 529.202 118.034 500.702 77.5338 534.702C69.1663 541.726 71.7005 530.868 75.0338 526.202Z"
            fill="#F2EFE6" stroke="#121212"></path>
        <path id="Body"
            d="M412.594 395L403.534 403.202L387.534 438.702L365.534 472.202L369.534 494.202L392.534 492.702L417.534 486.202L444.534 468.702L475.534 449.202L474.034 414.202L511.094 397.707L505.094 393.207L485.094 384.707L439.534 397.202L412.594 395Z"
            fill="#F2EFE6" stroke="#121212"></path>
        <g id="Obliques">
            <path id="Pelvis"
                d="M345.034 506.201C354.634 492.201 370.594 475.5 380.094 478.5L391.094 482L439.534 510.702L445.034 530.202L411.534 541.202L405.034 547.702C391.034 555.202 387.367 561.202 381.534 567.702L345.034 506.201Z"
                fill="#F2EFE6" stroke="#121212"></path>
            <path id="Vector 10"
                d="M468.534 438.702C457.034 430.202 447.534 442.702 449.034 450.702L454.534 479.202L478.534 491.702L485.534 482.202L475.034 447.202L468.534 438.702Z"
                fill="#F2EFE6" stroke="#121212"></path>
            <path id="Vector 9"
                d="M449.034 450.702C433.834 446.302 429.034 458.868 428.534 465.702L436.534 485.702L462.534 504.702L465.534 488.702C463.867 482.535 460.534 469.802 460.534 468.202C460.534 466.602 452.867 455.868 449.034 450.702Z"
                fill="#F2EFE6" stroke="#121212"></path>
            <path id="Vector 8"
                d="M428.534 465.702C418.934 461.702 409.534 471.702 406.034 477.202L405.534 485.702L438.534 510.702L465.534 512.702L451.034 484.202L428.534 465.702Z"
                fill="#F2EFE6" stroke="#121212"></path>
            <path id="Vector 6"
                d="M460.534 467.702C458.034 470.702 458.534 487.535 460.534 497.702L485.534 503.702L491.034 486.202C479.834 487.402 466.034 474.368 460.534 467.702Z"
                fill="#F2EFE6" stroke="#121212"></path>
            <path id="Vector 7"
                d="M406.034 477.202C420.834 494.002 448.034 507.202 460.034 507.202L448.534 523.202C422.534 529.202 415.094 490.5 384.094 480C394.094 480.4 402.2 479.702 406.034 477.202Z"
                fill="#F2EFE6" stroke="#121212"></path>
            <path id="Vector 5"
                d="M451.034 484.202C448.634 494.602 454.701 506.868 458.034 511.702C467.367 507.202 483.934 498.302 475.534 498.702C467.134 499.102 455.7 489.202 451.034 484.202Z"
                fill="#F2EFE6" stroke="#121212"></path>
            <path id="Vector 4"
                d="M470.821 448.207C472.522 439.707 467.892 426 469.594 422.5L542.094 460.207L536.094 496.707L491.804 493.207C473.089 480.207 469.448 455.065 470.821 448.207Z"
                fill="#F2EFE6" stroke="#121212"></path>
        </g>
        <path id="Teres major"
            d="M557.094 526.207C543.594 537.051 512.594 544.207 503.594 537.707L530.094 486.207L553.094 488.207L586.094 499.207C587.294 501.207 567.26 518.04 557.094 526.207Z"
            fill="#F2EFE6" stroke="#121212"></path>
        <path id="Latisimus"
            d="M492.594 542.5C477.094 550.5 431.034 525.703 405.034 547.702C411.534 535.703 426.058 534.844 439.034 524.702C453.167 513.654 470.07 494.734 487.594 485.707C504.094 477.207 531.839 466.744 546.094 483.207L544.594 491.707L537.594 500.207L528.594 514.207C522.594 524.702 514.094 538 492.594 542.5Z"
            fill="#F2EFE6" stroke="#121212"></path>
        <path id="Right hand"
            d="M360.594 173.52C362.194 176.72 358.594 189.02 358.594 194.52C358.594 194.52 364.594 198.02 369.594 198.52C374.594 199.02 380.394 198.22 381.594 197.02C382.794 195.82 382.427 189.853 382.094 187.02C386.094 186.62 398.094 176.02 400.594 169.52C392.26 161.686 373.894 147.32 367.094 152.52C360.294 157.72 359.927 168.686 360.594 173.52Z"
            fill="#F2EFE6" stroke="#121212"></path>
        <path id="Vector 57"
            d="M404.594 333.707C404.594 353.207 408.594 370.707 423.594 383.207L445.594 376.207C447.194 364.607 432.594 328.707 423.594 317.207C412.594 300.207 404.594 311.707 404.594 333.707Z"
            fill="#F2EFE6" stroke="#121212"></path>
        <g id="Head">
            <path
                d="M536.594 395.207C535.47 401.949 517.26 398.873 508.594 397.207L509.534 409.202L567.034 444.702C577.534 447.535 600.934 452.902 610.534 451.702C620.134 450.502 627.534 434.868 630.034 427.202C635.534 414.702 633.534 392.202 630.034 382.202C626.121 371.021 612.534 357.702 588.534 360.702C584.534 361.202 578.934 358.702 576.534 358.702C574.134 358.702 573.034 362.702 574.034 365.702C557.034 366.202 547.594 373.684 544.094 376.707C533.094 386.207 538.094 386.207 536.594 395.207Z"
                fill="#F2EFE6"></path>
            <path
                d="M536.594 395.207C535.47 401.949 517.26 398.873 508.594 397.207L509.534 409.202L567.034 444.702C577.534 447.535 600.934 452.902 610.534 451.702C620.134 450.502 627.534 434.868 630.034 427.202C635.534 414.702 633.534 392.202 630.034 382.202C626.121 371.021 612.534 357.702 588.534 360.702C584.534 361.202 578.934 358.702 576.534 358.702C574.134 358.702 573.034 362.702 574.034 365.702C557.034 366.202 547.594 373.684 544.094 376.707C533.094 386.207 538.094 386.207 536.594 395.207ZM536.594 395.207C544.993 396.906 558.429 408.686 566.034 417.202C569.034 420.561 562.034 425.702 570.034 437.202"
                stroke="#121212"></path>
        </g>
        <path id="Barbel2"
            d="M159.201 54.5247L193.719 72.1599L203.716 53.5842L169.198 35.949C155.241 37.1155 156.718 48.8188 159.201 54.5247Z"
            fill="#7C7C7C" stroke="#121212"></path>
        <g id="Plate1">
            <path
                d="M211.104 175.402C202.043 170.555 189.75 160.092 183.329 138.329C174.373 107.974 186.055 72.4136 193.951 58.1262C200.754 45.2341 224.328 14.8969 246.765 7.65672C261.526 2.89347 282.881 -0.334194 304.562 11.4957C324.178 22.1989 335.592 48.4606 335.308 69.8989C335.016 91.948 330.256 109.235 325.901 117.486L317.709 132.457C311.876 144.795 293.946 164.808 280.296 171.566C267.133 178.082 250.244 189.704 217.055 178.041C214.86 177.269 212.891 176.405 211.104 175.402Z"
                fill="#494949"></path>
            <path
                d="M217.055 178.041C208.428 175.009 191.326 165.431 183.329 138.329C174.373 107.974 186.055 72.4136 193.951 58.1262C200.754 45.2341 224.328 14.8969 246.765 7.65672C261.526 2.89347 282.881 -0.334194 304.562 11.4957M217.055 178.041C250.244 189.704 267.133 178.082 280.296 171.566C293.946 164.808 311.876 144.795 317.709 132.457L325.901 117.486C330.256 109.235 335.016 91.948 335.308 69.8989C335.592 48.4606 324.178 22.1989 304.562 11.4957M217.055 178.041C205.141 173.854 199.923 166.963 193.971 149.763C187.562 131.238 185.91 111.147 189.822 92.404C193.629 74.1681 201.865 56.3567 207.436 48.3728C213.007 40.3889 227.636 24.1194 238.77 17.109C251.839 8.88058 258.747 6.99922 273.225 6.20475C284.807 5.56917 298.942 9.4672 304.562 11.4957"
                stroke="#121212"></path>
        </g>
        <g id="Barbel Hole">
            <path
                d="M274.917 78.2076C274.917 78.2076 285.094 77.7068 289.917 85.7075C297.607 98.4627 280.723 121.62 266.594 116.574C259.594 114.074 256.431 107.312 256.431 107.312C252.793 97.939 259.635 78.2076 274.917 78.2076Z"
                fill="#7C7C7C"></path>
            <path
                d="M256.431 107.312C252.793 97.939 259.635 78.2076 274.917 78.2076C274.917 78.2076 285.094 77.7068 289.917 85.7075C297.607 98.4627 280.723 121.62 266.594 116.574M256.431 107.312C256.483 107.445 256.375 107.182 256.431 107.312ZM256.431 107.312C256.431 107.312 259.594 114.074 266.594 116.574M266.594 116.574C259.094 114.074 260.594 105.074 261.094 101.074C261.594 97.0742 266.142 80.6427 281.594 82.5742C293.594 84.0742 292.427 95.7408 290.094 101.574"
                stroke="#121212"></path>
        </g>
        <path id="Barbel1"
            d="M650.415 300.48L270.771 107.491C264.034 103.354 271.337 90.4347 276.993 93.1288L658.634 286.008L650.415 300.48Z"
            fill="#7C7C7C" stroke="#121212"></path>
        <g id="Plate2">
            <path
                d="M662.591 421.996C652.749 416.027 634.604 401.097 635.669 369.392C636.999 329.759 644.62 310.48 649.362 299.536C657.362 281.07 668.467 264.437 688.005 246.339C703.635 231.861 713.397 225.417 728.682 221.072C735.564 218.738 760.545 217.7 776.631 227.956C786.025 233.945 792.117 245.975 796.214 265.439C801.633 291.181 792.984 325.206 785.483 343.645C780.407 356.121 766.761 385.734 744.255 404.495C711.693 431.639 683.015 438.301 662.591 421.996Z"
                fill="#494949"></path>
            <path
                d="M662.591 421.996C652.749 416.027 634.604 401.097 635.669 369.392C636.999 329.759 644.62 310.48 649.362 299.536C657.362 281.07 668.467 264.437 688.005 246.339C703.635 231.861 713.397 225.417 728.682 221.072C735.564 218.738 760.545 217.7 776.631 227.956M662.591 421.996C683.015 438.301 711.693 431.639 744.255 404.495C766.761 385.734 780.407 356.121 785.483 343.645C792.984 325.206 801.633 291.181 796.214 265.439C792.117 245.975 786.025 233.945 776.631 227.956M662.591 421.996C651.244 412.937 634.963 378.444 654.951 319.26C674.938 260.076 713.983 233.062 731.007 226.954C746.672 221.333 763.661 219.687 776.631 227.956"
                stroke="#121212"></path>
        </g>
        <g id="Barbel3">
            <path
                d="M854.72 409.95C841.836 403.293 758.032 360.507 714.069 338.049C713.302 324.07 718.855 315.753 727.342 315.287L871.689 387.721C872.145 387.915 872.604 388.145 873.067 388.413C880.413 394.52 870.744 419.086 854.72 409.95Z"
                fill="#7C7C7C"></path>
            <path
                d="M854.72 409.95C841.836 403.293 758.032 360.507 714.069 338.049C713.302 324.07 718.855 315.753 727.342 315.287L873.067 388.413M854.72 409.95C870.744 419.086 880.413 394.52 873.067 388.413M854.72 409.95C848.927 404.76 859.621 380.638 873.067 388.413"
                stroke="#121212"></path>
        </g>
        <path id="Right hand_2"
            d="M365.594 135.52C371.594 129.52 373.76 133.02 374.094 135.52C370.594 139.686 362.994 148.52 360.594 150.52C358.194 152.52 357.594 150.353 357.594 149.02C357.76 147.02 359.594 141.52 365.594 135.52Z"
            fill="#F2EFE6" stroke="#121212"></path>
        <path id="Right hand_3"
            d="M376.094 133.52C381.891 131.973 384.094 133.353 385.094 135.52L365.094 153.02C365.094 153.02 359.094 159.02 360.594 150.52C362.094 142.02 368.594 135.52 376.094 133.52Z"
            fill="#F2EFE6" stroke="#121212"></path>
        <path id="Right hand_4"
            d="M388.094 134.02C395.694 134.82 396.26 139.687 395.594 142.02L371.094 156.02C368.76 157.353 364.194 158.72 364.594 153.52C365.094 147.02 378.594 133.02 388.094 134.02Z"
            fill="#F2EFE6" stroke="#121212"></path>
        <path id="Right hand_5"
            d="M396.094 139.02C402.321 141.269 406.594 152.02 407.594 159.52C407.594 159.52 392.094 152.02 393.094 148.52C392.094 152.02 376.094 158.02 376.094 158.02C370.894 160.819 369.894 157.52 371.094 155.521C377.094 145.52 393.094 137.937 396.094 139.02Z"
            fill="#F2EFE6" stroke="#121212"></path>
        <path id="Right hand_6"
            d="M377.594 170.52C378.427 170.186 380.594 169.52 381.094 164.02C381.594 158.52 381.619 158.695 381.594 158.02C381.569 157.344 381.647 156.495 381.594 155.52C381.441 152.728 380.094 150.067 380.094 148.52C380.094 145.02 387.594 139.52 390.094 147.52C390.094 147.52 391.381 151.114 391.594 153.52C391.714 154.881 391.621 155.653 391.594 157.02C391.503 161.527 390.594 168.52 390.594 168.52C390.594 170.02 391.494 173.72 393.094 174.52"
            stroke="#121212"></path>
        <path id="Right hand_7"
            d="M389.862 173.75L382.439 172.187C382.453 172.139 382.466 172.09 382.476 172.04C382.559 171.656 382.566 171.151 382.54 170.53C382.512 169.883 382.444 169.041 382.357 167.979C382.278 167.006 382.184 165.848 382.092 164.487C382.093 164.487 382.093 164.487 382.092 164.486C382.092 164.484 382.092 164.475 382.092 164.456C382.092 164.433 382.093 164.404 382.094 164.367C382.096 164.294 382.1 164.197 382.106 164.078C382.118 163.842 382.137 163.529 382.161 163.163C382.208 162.433 382.274 161.499 382.341 160.563L382.345 160.501C382.41 159.586 382.475 158.673 382.522 157.953C382.546 157.584 382.566 157.264 382.578 157.019C382.59 156.789 382.598 156.591 382.593 156.492C382.379 152.694 381.981 151.62 381.587 150.558C381.412 150.086 381.238 149.616 381.082 148.912C380.943 148.286 381.196 147.459 381.81 146.63C382.413 145.816 383.304 145.086 384.265 144.674C385.226 144.262 386.201 144.186 387.027 144.577C387.846 144.963 388.634 145.863 389.111 147.649L389.12 147.684L389.134 147.717L389.134 147.717L389.134 147.717L389.134 147.717L389.135 147.718L389.137 147.724L389.148 147.751C389.158 147.776 389.174 147.813 389.193 147.863C389.232 147.962 389.289 148.109 389.358 148.299C389.494 148.679 389.678 149.229 389.861 149.902C390.229 151.25 390.594 153.079 390.594 155.02C390.594 157.634 390.346 160.99 390.096 163.703C389.971 165.057 389.846 166.247 389.753 167.098C389.706 167.523 389.667 167.864 389.64 168.098C389.626 168.215 389.616 168.306 389.608 168.367L389.6 168.436L389.598 168.454L389.598 168.458L389.597 168.459L389.597 168.459L390.094 168.52L389.597 168.459L389.594 168.489V168.52C389.594 168.789 389.576 169.122 389.556 169.509C389.549 169.655 389.541 169.808 389.533 169.969C389.506 170.543 389.485 171.187 389.515 171.813C389.544 172.436 389.624 173.07 389.813 173.616C389.829 173.661 389.845 173.705 389.862 173.75Z"
            fill="#F2EFE6" stroke="#F2EFE6"></path>
        <g id="Left forearm">
            <path
                d="M363.594 304.207C347.094 270.975 353.381 214.192 358.887 193.676C361.794 192.802 366.388 191.891 371.094 191.52C374.951 191.216 378.883 191.275 382.023 192.013C387.142 197.091 390.67 207.486 394.294 219.616C400.594 240.707 419.094 250.707 412.594 292.207C412.594 292.207 402.761 306.224 392.594 308.707C383.622 310.898 363.594 304.207 363.594 304.207Z"
                fill="#F2EFE6"></path>
            <path
                d="M412.594 292.207C419.094 250.707 400.594 240.707 394.294 219.616C390.67 207.486 387.142 197.091 382.023 192.013C378.883 191.275 374.951 191.216 371.094 191.52M412.594 292.207C412.594 292.207 402.761 306.224 392.594 308.707C383.622 310.898 363.594 304.207 363.594 304.207C347.094 270.975 353.381 214.192 358.887 193.676C361.794 192.802 366.388 191.891 371.094 191.52M412.594 292.207C372.594 290.5 360.094 266.5 371.094 191.52"
                stroke="#121212"></path>
        </g>
        <path id="Left hand"
            d="M557.174 284.079C559.745 285.854 558.485 292.997 560.113 299.878L561.47 303.771L568.439 314.185L588.629 309.844C589.188 306.781 590.985 302.602 591.8 300.52C592.53 298.658 590.49 291.602 588.725 288.75C592.963 286.759 595.956 278.053 596.922 273.949L581.094 265.707C574.138 262.823 559.853 252.709 558.042 254.881C556.231 257.054 553.108 255.831 552.021 254.925C553.109 250.308 552.158 250.896 551.978 248.904C561.532 237.997 555.881 231.044 552.072 233.332C540.265 240.427 541.084 248.232 540.252 252.478C537.85 264.745 551.337 275.069 557.174 284.079Z"
            fill="#F2EFE6" stroke="#121212"></path>
        <path id="Left hand_2"
            d="M572.703 226.412C576.703 225.212 578.37 229.578 578.703 231.912L575.703 239.412C572.537 243.412 565.603 252.112 563.203 254.912C560.803 257.712 559.537 255.078 559.203 253.412C556.703 235.912 567.703 227.912 572.703 226.412Z"
            fill="#F2EFE6" stroke="#121212"></path>
        <path id="Left hand_3"
            d="M578.703 231.912C587.903 228.712 589.537 236.245 589.203 239.912L580.703 249.412C578.203 251.078 572.103 255.012 567.703 257.412C563.303 259.812 562.87 256.412 563.203 254.412C564.537 248.245 569.503 235.112 578.703 231.912Z"
            fill="#F2EFE6" stroke="#121212"></path>
        <path id="Left hand_4"
            d="M591.703 239.412C598.716 239.682 603.203 248.412 602.703 250.912L591.703 252.912C589.37 255.078 582.803 259.912 575.203 261.912C567.603 263.912 567.037 259.745 567.703 257.412C571.203 249.412 578.703 238.912 591.703 239.412Z"
            fill="#F2EFE6" stroke="#121212"></path>
        <path id="Left hand_5"
            d="M594.703 247.911C608.448 249.056 607.703 257.245 605.703 259.912C604.203 258.745 600.503 257.211 595.703 256.411C589.703 255.411 585.203 260.911 579.703 264.411C575.303 267.211 574.87 263.911 575.203 261.911C576.537 255.578 588.703 247.412 594.703 247.911Z"
            fill="#F2EFE6" stroke="#121212"></path>
        <g id="Right abs">
            <path id="Vector 22"
                d="M404.534 401.702C396.134 400.502 385.034 408.202 380.534 412.202L377.534 424.702L398.034 416.702L416.534 403.702C416.034 403.535 412.934 402.902 404.534 401.702Z"
                fill="#F2EFE6" stroke="#121212"></path>
            <path id="Vector 21"
                d="M383.534 412.202C375.134 408.202 358.534 434.202 338.034 444.702L341.534 458.202L392.534 419.202L383.534 412.202Z"
                fill="#F2EFE6" stroke="#121212"></path>
            <path id="Vector 16"
                d="M338.034 444.702C296.534 449.702 302.034 463.202 293.034 465.702C289.534 476.702 288.034 494.202 302.034 474.202C316.034 454.202 336.26 450.207 346.094 450.707L338.034 444.702Z"
                fill="#F2EFE6" stroke="#121212"></path>
        </g>
        <g id="ABS">
            <path id="Vector 20"
                d="M419.094 401.207C436.694 401.207 439.76 407.873 439.094 411.207L431.534 428.202L402.034 431.702L381.534 419.702C385.867 414.035 401.494 401.207 419.094 401.207Z"
                fill="#F2EFE6" stroke="#121212"></path>
            <path id="Vector 19"
                d="M399.094 411.207C409.094 411.207 412.927 417.873 413.594 421.207L406.034 442.702L388.534 450.202L370.034 440.202C368.7 438.535 366.234 434.502 367.034 431.702C368.034 428.202 386.594 411.207 399.094 411.207Z"
                fill="#F2EFE6" stroke="#121212"></path>
            <path id="Vector 18"
                d="M374.594 426.707C380.094 426.707 386.76 431.667 386.094 436C385.427 440.333 380.594 455 380.594 455L358.534 468.702L340.594 451.707C343.76 446.04 368.511 426.706 374.594 426.707Z"
                fill="#F2EFE6" stroke="#121212"></path>
            <path id="Vector 17"
                d="M363.594 466L359.594 452.5C359.594 452.5 357.152 451.5 353.094 450C350.619 449.085 344.594 448.707 344.594 448.707C344.594 448.707 342.474 448.172 337.594 449.207C329.985 450.82 327.102 452.207 320.509 455.708C314.141 459.088 308.208 465.026 302.756 469.709C298.323 473.517 295.594 475.705 295.594 475.705L321.462 488.207L363.594 466Z"
                fill="#F2EFE6" stroke="#121212"></path>
            <path id="Vector 15"
                d="M445.094 411C437.422 409.789 423.76 414.667 413.094 420.5C414.26 423.833 407.634 435.702 408.034 435.702C408.434 435.702 420.76 443.333 426.094 448.5C439.594 448.5 448.594 429.5 462.594 426.707C463.594 424.207 454.594 412.5 445.094 411Z"
                fill="#F2EFE6" stroke="#121212"></path>
            <path id="Vector 14"
                d="M414.094 420.207C412.594 419.367 387.034 437.202 380.034 442.702L384.534 453.702L406.534 467.202C410.934 467.202 428.594 451.707 431.094 447.208C431.094 435.707 426.594 427.207 414.094 420.207Z"
                fill="#F2EFE6" stroke="#121212"></path>
            <path id="Vector 13"
                d="M380.534 442.202L357.534 457.202L383.594 479.5C384.794 481.5 404.094 472.707 412.094 464.207C403.594 454.207 407.594 448 398.094 440.5C390.865 434.793 387.594 438 380.534 442.202Z"
                fill="#F2EFE6" stroke="#121212"></path>
            <path id="Vector 12"
                d="M362.594 454.707C356.194 454.307 326.034 477.702 312.534 483.702L347.534 513.702L384.094 479.707C382.594 464.707 369.094 453.707 362.594 454.707Z"
                fill="#F2EFE6" stroke="#121212"></path>
            <path id="Ellipse 1"
                d="M365.271 454.884C364.54 456.558 362.078 457.099 359.771 456.092C357.464 455.085 355.863 453.674 356.594 452C357.324 450.326 360.11 449.023 362.417 450.03C364.724 451.037 366.001 453.21 365.271 454.884Z"
                fill="#F2EFE6" stroke="#121212"></path>
        </g>
        <path id="Left calf"
            d="M216.534 693.202C197.534 721.202 221.534 743.702 226.034 760.202L236.034 769.202L271.534 765.202L280.534 743.202C277.867 738.368 271.834 728.202 269.034 726.202C266.234 724.202 267.867 721.702 269.034 720.702L277.534 705.702L260.034 692.702L226.034 684.702L216.534 693.202Z"
            fill="#F2EFE6" stroke="#121212"></path>
        <path id="Left calf_2"
            d="M226.034 759.702C219.034 781.202 251.534 826.201 246.034 864.702L252.534 887.202C260.867 888.702 277.534 891.502 277.534 890.702C277.534 889.902 280.534 874.035 282.034 866.202C279.534 847.702 304.034 804.702 301.034 790.702L295.534 758.702L271.034 742.702C269.534 746.202 265.034 750.202 257.034 753.702C256.042 754.08 243.953 759.416 242.889 759.702C238.194 760.961 232.736 761.23 226.034 759.702Z"
            fill="#F2EFE6" stroke="#121212"></path>
        <path id="Left calf_3"
            d="M301.034 790.702C307.034 772.302 307.534 734.202 268.534 725.702C270.534 729.302 271.034 743.702 270.534 744.202C281.534 745.202 298.534 778.202 301.034 790.702Z"
            fill="#F2EFE6" stroke="#121212"></path>
        <g id="Left calf_4">
            <path
                d="M282.034 866.202C264.434 876.602 248.534 867.702 246.034 864.702C245.034 868.202 229.534 919.702 226.534 929.202C220.034 938.202 213.779 944.01 209.034 954.702C206.279 960.91 204.034 965.202 204.034 970.702C204.034 977.861 210.034 987.202 221.034 972.702C220.534 982.702 230.962 981.202 229.534 973.702C231.134 982.102 238.634 980.102 239.034 971.702C238.634 980.102 248.034 976.202 248.534 971.702C248.534 977.702 253.2 974.868 255.534 972.702L262.534 962.202C271.334 960.202 277.2 936.369 279.034 924.702C277.534 921.702 294.534 897.202 288.034 886.202C284.411 880.071 281.7 871.035 282.034 866.202Z"
                fill="#F2EFE6"></path>
            <path
                d="M248.534 971.702C248.534 977.702 253.2 974.868 255.534 972.702L262.534 962.202C271.334 960.202 277.2 936.369 279.034 924.702C277.534 921.702 294.534 897.202 288.034 886.202C284.411 880.071 281.7 871.035 282.034 866.202C264.434 876.602 248.534 867.702 246.034 864.702C245.034 868.202 229.534 919.702 226.534 929.202C220.034 938.202 213.779 944.01 209.034 954.702C206.279 960.91 204.034 965.202 204.034 970.702C204.034 977.861 210.034 987.202 221.034 972.702M248.534 971.702C248.534 965.702 252.534 960.202 254.534 958.202M248.534 971.702C248.034 976.202 238.634 980.102 239.034 971.702M239.034 971.702C239.434 963.302 244.2 957.535 246.534 955.702M239.034 971.702C238.634 980.102 231.134 982.102 229.534 973.702M229.534 973.702C228.867 970.702 229.934 961.602 239.534 949.202M229.534 973.702C230.962 981.202 220.534 982.702 221.034 972.702M221.034 972.702C220.034 969.702 220.034 965.702 222.034 961.202C223.7 959.035 227.334 954.002 228.534 951.202"
                stroke="#121212"></path>
        </g>
        <path id="Left leg"
            d="M343.534 563.202L286.034 546.202L263.534 580.202L249.034 607.702L226.534 688.702C224.034 699.202 238.534 709.202 250.534 696.702L318.534 620.702L343.534 563.202Z"
            fill="#F2EFE6" stroke="#121212"></path>
        <path id="Left leg_2"
            d="M254.534 587.702C247.734 596.502 243.7 614.035 242.534 621.702L254.534 606.702C253.334 601.902 273.034 572.202 289.034 560.202L302.034 552.202L278.034 555.702L252.034 573.202L254.534 587.702Z"
            fill="#F2EFE6" stroke="#121212"></path>
        <path id="Left leg_3"
            d="M309.534 677.202C317.534 674.002 346.034 631.202 351.534 602.702V592.202L334.034 564.202C300.034 644.202 255.363 653.202 250.534 686.202C247.523 706.771 260.867 717.702 268.534 720.702C277.034 717.702 303.534 694.702 309.534 677.202Z"
            fill="#F2EFE6" stroke="#121212"></path>
        <path id="Left leg_4"
            d="M216.534 692.702C214.534 665.902 231.534 627.202 254.534 606.702C252.534 611.035 249.334 621.002 248.534 632.202C247.534 646.202 231.534 683.702 224.534 691.702C218.934 698.102 216.867 695.035 216.534 692.702Z"
            fill="#F2EFE6" stroke="#121212"></path>
        <g id="Pants">
            <path
                d="M293.034 465.702C295.867 467.702 299.951 468.635 304.034 471.202C317.512 479.677 324.506 485.398 337.534 494.702C344.433 499.628 352.534 504.202 354.534 508.202C370.034 509.202 383.534 549.702 381.534 567.702C377.034 576.202 357.734 590.602 354.534 590.202C356.034 594.202 353.134 602.802 351.534 605.202C348.034 583.202 320.634 546.202 289.034 560.202C282.034 560.202 267.734 570.002 266.534 575.202C262.034 575.202 255.334 582.102 254.534 587.702C245.534 590.202 221.934 579.702 221.534 573.702C219.534 576.702 213.034 580.402 211.034 581.202C206.034 550.202 191.534 494.202 196.534 477.702C217.293 475.565 236.747 479.765 256.034 478.354C269.534 477.702 274.534 469.702 293.034 465.702Z"
                fill="#424651"></path>
            <path
                d="M293.034 465.702C295.867 467.702 299.951 468.635 304.034 471.202C317.512 479.677 324.506 485.398 337.534 494.702C344.433 499.628 352.534 504.202 354.534 508.202M293.034 465.702C274.534 469.702 269.534 477.702 256.034 478.354C236.747 479.765 217.293 475.565 196.534 477.702C191.534 494.202 206.034 550.202 211.034 581.202C213.034 580.402 219.534 576.702 221.534 573.702C221.934 579.702 245.534 590.202 254.534 587.702C255.334 582.102 262.034 575.202 266.534 575.202C267.734 570.002 282.034 560.202 289.034 560.202C320.634 546.202 348.034 583.202 351.534 605.202C353.134 602.802 356.034 594.202 354.534 590.202C357.734 590.602 377.034 576.202 381.534 567.702C383.534 549.702 370.034 509.202 354.534 508.202M293.034 465.702C276.534 485.868 244.034 535.702 266.534 574.702C266.534 528.702 331.367 509.035 354.534 508.202"
                stroke="#121212"></path>
        </g>
        <path id="Left chest"
            d="M543.594 418.707C532.094 392.707 449.094 381.707 461.594 411.207C470.493 432.207 519.494 472.307 537.094 462.707L555.094 451.207L543.594 418.707Z"
            fill="#FAA805" stroke="#121212"></path>
        <path id="Elbow"
            d="M601.094 411.707C601.094 405.24 596.594 395.707 596.594 395.707L578.094 411.707L596.594 428.707C596.594 428.707 601.094 418.707 601.094 411.707Z"
            fill="#F2EFE6" stroke="#121212"></path>
        <g id="Triceps">
            <path
                d="M544.094 445.707C539.694 432.907 541.594 420.207 546.594 409.207L580.594 406.707L589.247 414.279L597.094 422.207L600.594 440.707L589.594 494.207C582.794 507.807 552.594 520.707 542.594 489.707C538.994 488.507 523.094 470.207 544.094 445.707Z"
                fill="#FFE492"></path>
            <path
                d="M542.594 489.707C538.994 488.507 523.094 470.207 544.094 445.707C539.694 432.907 541.594 420.207 546.594 409.207L580.594 406.707L589.247 414.279M542.594 489.707C552.594 520.707 582.794 507.807 589.594 494.207L600.594 440.707L597.094 422.207L589.247 414.279M542.594 489.707C580.594 480.707 576.594 457.207 589.247 414.279"
                stroke="#121212"></path>
        </g>
        <path id="Shoulder front"
            d="M589.594 467.207C592.394 471.607 588.427 490.373 586.094 499.207C604.094 491.707 622.094 424.707 586.094 412.207C599.694 421.007 593.594 452.54 589.594 467.207Z"
            fill="#FAC832" stroke="#121212"></path>
        <g id="Left formarm">
            <path
                d="M591.594 300.707C586.033 320.495 601.321 349.756 601.99 363.74C605.988 374.061 608.516 396.286 593.724 410.689C581.289 422.797 556.515 432.293 546.635 409.939C545.675 407.315 544.216 401.245 546.061 397.953C534.926 374.458 567.757 322.366 560.094 299.707C562.254 306.095 568.399 311.035 576.094 310.136C580.859 309.579 586.218 306.784 591.594 300.707Z"
                fill="#F2EFE6"></path>
            <path
                d="M546.061 397.953C544.216 401.245 545.675 407.315 546.635 409.939C556.515 432.293 581.289 422.797 593.724 410.689C608.516 396.286 605.988 374.061 601.99 363.74C601.321 349.756 586.033 320.495 591.594 300.707C586.218 306.784 580.859 309.579 576.094 310.136M546.061 397.953C534.926 374.458 567.757 322.366 560.094 299.707C562.254 306.095 568.399 311.035 576.094 310.136M546.061 397.953C587.094 384.5 578.094 323.845 576.094 310.136"
                stroke="#121212"></path>
        </g>
        <path id="Chest right"
            d="M507.594 395.207C476.094 367.707 417.094 368.207 410.216 397.207C424.094 400.207 451.594 404.707 457.594 398.707C459.094 396.207 476.594 385.707 507.594 395.207Z"
            fill="#FAA805" stroke="#121212"></path>
    </g>
</svg>