<svg width="867" height="801" viewBox="0 0 867 801" fill="none" xmlns="http://www.w3.org/2000/svg">
    <g id="End">
        <path id="Vector 53" d="M624.94 346.996L174.94 564.496V585.996L630.44 362.496L624.94 346.996Z" fill="#FBFBFB"
            stroke="#121212"></path>
        <path id="Vector 54" d="M631.94 380.496L168.44 608.996L158.94 579.996L620.94 357.996L631.94 380.496Z"
            fill="#FBFBFB" stroke="#121212"></path>
        <path id="Vector 52"
            d="M164.44 678.996L135.94 691.996L132.44 663.496L152.94 529.996L184.94 534.496L164.44 678.996Z"
            fill="#FBFBFB" stroke="#121212"></path>
        <path id="Vector 49"
            d="M117.94 511.496C114.34 516.296 120.44 531.996 118.44 539.996L100.94 562.996L76.5 540.5C75.5 509.5 43.4401 459.496 35.9401 423.496C53.5401 413.096 72.2734 425.496 74.4401 436.996L91.9401 487.996L117.94 511.496Z"
            fill="#F2EFE6" stroke="#121212"></path>
        <g id="Vector 48">
            <path
                d="M76.5136 540.567C76.5046 540.543 76.5 540.52 76.5 540.5C76.5045 540.522 76.5091 540.544 76.5136 540.567C77.1733 542.32 101.67 553.807 118.44 539.996C117.607 545.663 124.395 556.452 133.94 573.496C140.94 585.996 118.44 598.496 108.44 598.496C57.3861 598.496 73.44 600.996 40.44 612.496C37.7733 613.33 31.64 614.196 28.44 610.996C22.94 614.33 10.14 619.196 2.94001 611.996C-1.55997 607.496 2.60668 602.663 6.94001 602.496C8.15987 599.955 7.51968 597.538 13.4147 593.996C13.524 592.332 15.2599 589.356 20.44 586.673C20.2033 585.566 21.4627 583.421 26.94 581.554C26.44 579.535 31.24 575.196 54.44 573.996C61.94 573.496 62.94 566.496 76.44 562.496C78.9356 561.757 79.0595 553.031 76.5136 540.567Z"
                fill="#F2EFE6"></path>
            <path
                d="M6.94001 602.496C2.60668 602.663 -1.55997 607.496 2.94001 611.996C10.14 619.196 22.94 614.33 28.44 610.996C31.64 614.196 37.7733 613.33 40.44 612.496C73.44 600.996 57.3861 598.496 108.44 598.496C118.44 598.496 140.94 585.996 133.94 573.496C124.395 556.452 117.607 545.663 118.44 539.996C101.44 553.996 76.5 542 76.5 540.5C79.06 553 78.94 561.756 76.44 562.496C62.94 566.496 61.94 573.496 54.44 573.996C31.24 575.196 26.44 579.535 26.94 581.554M6.94001 602.496C14.44 600.83 29.84 596.696 31.44 593.496M6.94001 602.496C8.15987 599.955 7.51968 597.538 13.4147 593.996M34.94 585.496C23.6279 589.007 17.1848 591.732 13.4147 593.996M13.4147 593.996C13.524 592.332 15.2599 589.356 20.44 586.673M33.94 582.496C27.9268 583.549 23.5591 585.058 20.44 586.673M20.44 586.673C20.2033 585.566 21.4627 583.421 26.94 581.554M35.94 579.496C32.114 580.076 29.1757 580.792 26.94 581.554"
                stroke="#121212"></path>
        </g>
        <path id="Vector 51" d="M118.44 674.996L138.44 528.996L157.44 538.496L135.94 691.996L118.44 674.996Z"
            fill="#FBFBFB" stroke="#121212"></path>
        <path id="Bench leg 3" d="M610 471.5L632 485.5L642 456L621.5 322.5H588L610 471.5Z" fill="#FBFBFB"
            stroke="#121212"></path>
        <path id="Bench leg 4" d="M653 471.5L632 320L608 325.5L632 485.5L653 471.5Z" fill="#FBFBFB" stroke="#121212">
        </path>
        <path id="Vector 50"
            d="M26.94 384.496C35.34 364.496 62.44 346.996 78.94 341.496L88.94 368.496L100.94 412.496L73.94 440.496L35.94 423.496C27.54 413.096 24.21 390.996 26.94 384.496Z"
            fill="#F2EFE6" stroke="#121212"></path>
        <path id="Vector 47"
            d="M118.94 439.496C120.94 428.696 112.44 420.996 107.94 418.496C98.4401 410.33 79.8401 397.996 81.4401 413.996C83.4401 433.996 70.9401 430.996 62.4401 442.996C55.6401 452.596 62.6067 468.663 66.9401 475.496C80.9401 500.296 102.94 509.496 115.94 500.496C116.107 484.663 116.94 450.296 118.94 439.496Z"
            fill="#F2EFE6" stroke="#121212"></path>
        <path id="Vector 46"
            d="M92.44 448.996L157.94 422.496L155.94 403.496L216.44 388.496L619.44 237.496L712.44 293.496L221.44 523.496L182.44 541.496C174.44 545.496 156.44 544.996 152.44 541.496C152.44 541.496 86.94 490.996 83.94 485.996C76.9401 472.996 81.94 452.996 92.44 448.996Z"
            fill="#393939" stroke="#121212"></path>
        <path id="Vector 45"
            d="M95.94 443.496L157.94 415.496L155.94 396.496L216.44 381.496L614.94 229.996L706.44 286.496L221.44 516.496L182.44 534.496C174.44 538.496 156.44 537.996 152.44 534.496C152.44 534.496 86.94 483.996 83.94 478.996C76.94 465.996 85.44 447.496 95.94 443.496Z"
            fill="#393939" stroke="#121212"></path>
        <path id="Vector 44"
            d="M82.4399 412.496C52.0399 415.696 53.44 388.996 72.9399 387.496L116.44 348.496L201.44 326.996L207.94 338.496L210.94 370.496L155.94 396.996L82.4399 412.496Z"
            fill="#F2EFE6" stroke="#121212"></path>
        <path id="Vector 42"
            d="M49.9401 377.496C46.94 367.496 70.44 362.996 75.4401 353.996L108.94 331.996L190.94 330.996C195.34 338.196 133.94 363.996 105.94 384.996C99.1067 388.996 82.04 396.396 68.44 393.996C54.84 391.596 50.44 381.996 49.9401 377.496Z"
            fill="#F2EFE6" stroke="#121212"></path>
        <path id="Vector 43"
            d="M120.94 392.496C141.44 372.496 188.44 387.496 208.94 358.996L224.44 381.496L209.94 398.996L128.94 419.496L86.44 417.496C77.64 415.896 71.94 407.955 84.94 408.496C94.54 408.896 115.815 397.496 120.94 392.496Z"
            fill="#F2EFE6" stroke="#121212"></path>
        <path id="Vector 40"
            d="M158.44 415.497C169.94 414.497 204.44 409.497 211.44 400.997V394.997C202.64 392.597 141.94 416.996 85.4401 416.997C90.2401 420.597 120.44 426.496 134.94 425.496L158.44 415.497Z"
            fill="#F2EFE6" stroke="#121212"></path>
        <path id="Vector 41"
            d="M75.4401 345.996C91.4401 324.796 146.44 295.496 196.94 297.996L200.44 330.496C149.94 348.996 118.44 320.496 77.9401 354.496C69.5726 361.521 72.1067 350.663 75.4401 345.996Z"
            fill="#F2EFE6" stroke="#121212"></path>
        <g id="Vector 24">
            <path
                d="M315.94 272.996C308.94 246.496 320.94 198.996 330.44 179.996C333.822 179.689 339.284 179.76 344.5 180.557C347.767 181.057 350.937 181.841 353.44 182.996C357.44 188.996 357.94 199.996 359.94 212.496C362.34 227.496 365.94 221.496 366.94 242.996L355.44 263.996L340.19 269.996L324.94 275.996L315.94 272.996Z"
                fill="#F2EFE6"></path>
            <path
                d="M344.5 180.557C339.284 179.76 333.822 179.689 330.44 179.996C320.94 198.996 308.94 246.496 315.94 272.996L324.94 275.996L340.19 269.996M344.5 180.557C347.767 181.057 350.937 181.841 353.44 182.996C357.44 188.996 357.94 199.996 359.94 212.496C362.34 227.496 365.94 221.496 366.94 242.996L355.44 263.996L340.19 269.996M344.5 180.557C334.147 203.036 318.79 252.393 340.19 269.996"
                stroke="#121212"></path>
        </g>
        <path id="Vector 23"
            d="M408.44 216.996L403.94 222.996L387.94 258.496L365.94 291.996L369.94 313.996L392.94 312.496L417.94 305.996L444.94 288.496L475.94 268.996L474.44 233.996L482.44 220.496L468.44 209.496L439.94 216.996H408.44Z"
            fill="#F2EFE6" stroke="#121212"></path>
        <path id="Right chest"
            d="M446.643 200.323C417.705 197.459 406.117 214.134 403.94 222.829C412.983 218.226 431.603 222.075 436.093 222.829C454.94 225.996 465.073 216.188 471.94 216.996C480.44 217.996 475.58 203.187 446.643 200.323Z"
            fill="#FAA805" stroke="#121212"></path>
        <path id="Vector 22"
            d="M404.94 221.496C396.54 220.296 385.44 227.996 380.94 231.996L377.94 244.496L398.44 236.496L416.94 223.496C416.44 223.33 413.34 222.696 404.94 221.496Z"
            fill="#F2EFE6" stroke="#121212"></path>
        <path id="Vector 21"
            d="M383.94 231.997C375.54 227.997 358.94 253.996 338.44 264.497L341.94 277.996L392.94 238.996L383.94 231.997Z"
            fill="#F2EFE6" stroke="#121212"></path>
        <path id="Vector 11"
            d="M345.44 325.996C355.04 311.996 373.44 300.996 382.94 303.996L395.44 305.996L439.94 330.496L445.44 349.996L411.94 360.996L405.44 367.496C391.44 374.996 387.773 380.996 381.94 387.496L345.44 325.996Z"
            fill="#F2EFE6" stroke="#121212"></path>
        <g id="Obliques">
            <path id="Vector 10"
                d="M468.94 258.496C457.44 249.996 447.94 262.496 449.44 270.496L454.94 298.996L478.94 311.496L485.94 301.996L475.44 266.996L468.94 258.496Z"
                fill="#F2EFE6" stroke="#121212"></path>
            <path id="Vector 9"
                d="M449.44 270.496C434.24 266.096 429.44 278.663 428.94 285.496L436.94 305.496L462.94 324.496L465.94 308.496C464.273 302.33 460.94 289.596 460.94 287.996C460.94 286.396 453.273 275.663 449.44 270.496Z"
                fill="#F2EFE6" stroke="#121212"></path>
            <path id="Vector 8"
                d="M428.94 285.496C419.34 281.496 409.94 291.496 406.44 296.996L405.94 305.496L438.94 330.496L465.94 332.496L451.44 303.996L428.94 285.496Z"
                fill="#F2EFE6" stroke="#121212"></path>
            <path id="Vector 6"
                d="M460.94 287.496C458.44 290.496 458.94 307.33 460.94 317.496L485.94 323.496L491.44 305.996C480.24 307.196 466.44 294.163 460.94 287.496Z"
                fill="#F2EFE6" stroke="#121212"></path>
            <path id="Vector 7"
                d="M406.44 296.996C421.24 313.796 448.44 326.996 460.44 326.996L448.94 342.996C422.94 348.996 411.94 313.996 380.94 303.496C390.94 303.896 402.607 299.496 406.44 296.996Z"
                fill="#F2EFE6" stroke="#121212"></path>
            <path id="Vector 5"
                d="M451.44 303.996C449.04 314.396 455.107 326.663 458.44 331.496C467.773 326.996 484.34 318.096 475.94 318.496C467.54 318.896 456.107 308.996 451.44 303.996Z"
                fill="#F2EFE6" stroke="#121212"></path>
            <path id="Vector 4"
                d="M470.44 268.496C471.94 259.996 465.44 249.996 466.94 246.496L509.94 275.496L513.44 317.496L488.94 313.496C472.44 300.496 469.23 275.355 470.44 268.496Z"
                fill="#F2EFE6" stroke="#121212"></path>
        </g>
        <path id="Vector 3"
            d="M481.94 261.996C479.94 271.996 507.94 305.496 502.44 322.496L557.44 328.996L553.44 292.996L481.94 261.996Z"
            fill="#F2EFE6" stroke="#121212"></path>
        <path id="Shoulder top"
            d="M564.94 288.496C561.34 300.496 572.94 323.996 572.94 333.996L585.94 339.996L585.44 309.496L564.94 288.496Z"
            fill="#F2EFE6" stroke="#121212"></path>
        <path id="Chest top"
            d="M566.44 336.496L542.94 254.996L569.44 268.496V286.996L588.94 315.996L584.44 345.496L566.44 336.496Z"
            fill="#FAC832" stroke="#121212"></path>
        <path id="Shoulder back" d="M538.94 357.496L505.94 341.996L511.44 329.996L545.44 334.496L538.94 357.496Z"
            fill="#F2EFE6" stroke="#121212"></path>
        <path id="Teres major"
            d="M534.94 356.496C510.54 377.296 496.773 365.163 492.94 356.496C490.44 352.33 490.84 344.296 512.44 345.496C534.04 346.696 536.44 353.33 534.94 356.496Z"
            fill="#F2EFE6" stroke="#121212"></path>
        <path id="Left Latisimus"
            d="M494.44 359.995C472.44 374.795 431.44 345.497 405.44 367.496C411.94 355.497 426.465 354.639 439.44 344.496C453.574 333.448 467.94 312.385 487.44 309.496C514.44 305.497 534.685 306.032 548.94 322.496L559.44 332.496L557.94 364.996L543.44 357.996L540.94 337.496C523.44 327.496 515.94 366.496 494.44 359.995Z"
            fill="#F2EFE6" stroke="#121212"></path>
        <path id="Chest down"
            d="M497.371 282.01C517.758 300.691 539.139 293.118 545.106 300.187L574.94 331.996C560.023 296.147 563.504 273.355 553.062 263.328C537.813 248.685 511.791 221.218 483.946 218.39C456.1 215.563 455.106 228.657 458.089 235.557C459.68 240.404 478.836 265.025 497.371 282.01Z"
            fill="#FAA805" stroke="#121212"></path>
        <path id="Left Biceps"
            d="M550.44 358.496C554.04 342.896 547.44 311.996 543.94 299.996C551.44 302.139 578.94 329.996 580.44 338.996L587.94 350.996L581.94 393.496L563.94 392.496C549.14 386.896 548.773 367.496 550.44 358.496Z"
            fill="#F2EFE6" stroke="#121212"></path>
        <g id="Left Triceps">
            <path
                d="M568.94 393.496C554.14 388.296 548.773 367.663 550.44 358.496C544.659 354.642 541.818 343.362 541.022 337.624C516.287 366.526 534.44 403.496 547.94 416.496C546.44 422.996 558.773 435.163 562.94 439.496C560.54 433.896 561.94 427.663 562.94 425.996C557.74 415.196 565.773 400.163 568.94 393.496Z"
                fill="#FFE492"></path>
            <path
                d="M540.94 336.996C540.964 337.197 540.992 337.406 541.022 337.624M541.022 337.624C541.818 343.362 544.659 354.642 550.44 358.496C548.773 367.663 554.14 388.296 568.94 393.496C565.773 400.163 557.74 415.196 562.94 425.996C561.94 427.663 560.54 433.896 562.94 439.496C558.773 435.163 546.44 422.996 547.94 416.496C534.44 403.496 516.287 366.526 541.022 337.624Z"
                stroke="#121212"></path>
        </g>
        <path id="Vector 26"
            d="M332.44 159.496C334.04 162.696 330.44 174.996 330.44 180.496C330.44 180.496 336.44 183.996 341.44 184.496C346.44 184.996 352.24 184.196 353.44 182.996C354.64 181.796 354.273 175.83 353.94 172.996C357.94 172.596 369.94 161.996 372.44 155.496C364.107 147.663 345.74 133.296 338.94 138.496C332.14 143.696 331.773 154.663 332.44 159.496Z"
            fill="#F2EFE6" stroke="#121212"></path>
        <g id="Head">
            <path
                d="M537.94 219.495C535.54 225.895 517.607 224.161 508.94 222.495L509.94 228.996L567.44 264.496C577.94 267.33 601.34 272.696 610.94 271.496C620.54 270.296 627.94 254.663 630.44 246.996C635.94 234.496 633.94 211.996 630.44 201.996C626.527 190.816 612.94 177.496 588.94 180.496C584.94 180.996 579.34 178.496 576.94 178.496C574.54 178.496 573.44 182.496 574.44 185.496C557.44 185.996 549.44 194.474 545.94 197.496C534.94 206.996 540.94 211.495 537.94 219.495Z"
                fill="#F2EFE6"></path>
            <path
                d="M537.94 219.495C535.54 225.895 517.607 224.161 508.94 222.495L509.94 228.996L567.44 264.496C577.94 267.33 601.34 272.696 610.94 271.496C620.54 270.296 627.94 254.663 630.44 246.996C635.94 234.496 633.94 211.996 630.44 201.996C626.527 190.816 612.94 177.496 588.94 180.496C584.94 180.996 579.34 178.496 576.94 178.496C574.54 178.496 573.44 182.496 574.44 185.496C557.44 185.996 549.44 194.474 545.94 197.496C534.94 206.996 540.94 211.495 537.94 219.495ZM537.94 219.495C546.34 221.194 558.835 228.48 566.44 236.996C569.44 240.356 562.44 245.496 570.44 256.996"
                stroke="#121212"></path>
        </g>
        <path id="Usta" d="M561.44 187.701C564.44 189.496 569.94 190.496 575.44 200.496" stroke="#121212"></path>
        <path id="Barbel2"
            d="M168.94 45.9963L202.44 65.4963L213.44 47.4963L179.94 27.9963C165.94 28.3963 166.773 40.163 168.94 45.9963Z"
            fill="#7C7C7C" stroke="#121212"></path>
        <g id="Plate1">
            <path
                d="M214.142 169.536C205.36 164.199 193.659 153.078 188.44 130.996C181.16 100.197 194.773 65.3296 203.44 51.4962C210.94 38.9962 236.14 9.99617 258.94 3.99626C273.94 0.0489531 295.44 -2.00378 316.44 10.9962C335.44 22.7581 345.398 49.6058 343.94 70.9963C342.44 92.9963 336.74 109.996 331.94 117.996L322.94 132.496C316.44 144.496 297.44 163.496 283.44 169.496C269.94 175.282 252.44 185.961 219.94 172.496C217.79 171.606 215.872 170.636 214.142 169.536Z"
                fill="#494949"></path>
            <path
                d="M219.94 172.496C211.492 168.996 194.94 158.496 188.44 130.996C181.16 100.197 194.773 65.3296 203.44 51.4962C210.94 38.9962 236.14 9.99617 258.94 3.99626C273.94 0.0489531 295.44 -2.00378 316.44 10.9962M219.94 172.496C252.44 185.961 269.94 175.282 283.44 169.496C297.44 163.496 316.44 144.496 322.94 132.496L331.94 117.996C336.74 109.996 342.44 92.9963 343.94 70.9963C345.398 49.6058 335.44 22.7581 316.44 10.9962M219.94 172.496C208.273 167.663 203.44 160.496 198.44 142.996C193.055 124.148 192.507 103.996 197.44 85.4963C202.24 67.4963 211.44 50.163 217.44 42.4963C223.44 34.8297 238.938 19.3862 250.44 12.9963C263.94 5.49634 270.94 3.99626 285.44 3.99626C297.04 3.99626 310.94 8.6629 316.44 10.9962"
                stroke="#121212"></path>
        </g>
        <g id="Vector">
            <path
                d="M275.263 73.9972C275.263 73.9972 285.44 73.4963 290.263 81.4971C297.953 94.2523 281.069 117.41 266.94 112.364C259.94 109.864 256.778 103.101 256.778 103.101C253.139 93.7286 259.982 73.9972 275.263 73.9972Z"
                fill="#7C7C7C"></path>
            <path
                d="M256.778 103.101C253.139 93.7286 259.982 73.9972 275.263 73.9972C275.263 73.9972 285.44 73.4963 290.263 81.4971C297.953 94.2523 281.069 117.41 266.94 112.364M256.778 103.101C256.83 103.235 256.721 102.972 256.778 103.101ZM256.778 103.101C256.778 103.101 259.94 109.864 266.94 112.364M266.94 112.364C259.44 109.864 260.94 100.864 261.44 96.8637C261.94 92.8637 266.488 76.4322 281.94 78.3637C293.94 79.8637 292.773 91.5304 290.44 97.3637"
                stroke="#121212"></path>
        </g>
        <path id="Barbel1"
            d="M645.94 318.496L277.44 104.996C270.94 100.496 278.94 87.9964 284.44 90.9963L654.94 304.496L645.94 318.496Z"
            fill="#7C7C7C" stroke="#121212"></path>
        <g id="Plate2">
            <path
                d="M651.44 440.496C641.94 433.997 624.64 418.096 627.44 386.496C630.94 346.996 639.606 328.164 644.94 317.496C653.94 299.496 665.94 283.496 686.44 266.496C702.84 252.896 712.94 246.996 728.44 243.496C735.44 241.543 760.44 241.875 775.94 252.996C784.992 259.491 790.416 271.837 793.44 291.496C797.44 317.496 786.94 350.996 778.44 368.996C772.689 381.176 757.44 409.996 733.94 427.496C699.94 452.815 670.94 457.896 651.44 440.496Z"
                fill="#494949"></path>
            <path
                d="M651.44 440.496C641.94 433.997 624.64 418.096 627.44 386.496C630.94 346.996 639.606 328.164 644.94 317.496C653.94 299.496 665.94 283.496 686.44 266.496C702.84 252.896 712.94 246.996 728.44 243.496C735.44 241.543 760.44 241.875 775.94 252.996M651.44 440.496C670.94 457.896 699.94 452.815 733.94 427.496C757.44 409.996 772.689 381.176 778.44 368.996C786.94 350.996 797.44 317.496 793.44 291.496C790.416 271.837 784.992 259.491 775.94 252.996M651.44 440.496C640.607 430.83 626.24 395.496 649.44 337.496C672.64 279.496 713.107 254.663 730.44 249.496C746.389 244.742 763.443 244.029 775.94 252.996"
                stroke="#121212"></path>
        </g>
        <g id="Barbel3">
            <path
                d="M843.94 438.996C831.44 431.643 750.107 384.33 707.44 359.496C707.44 345.496 713.44 337.496 721.94 337.496L862.102 417.73C862.546 417.949 862.993 418.204 863.44 418.496C870.44 424.996 859.44 448.996 843.94 438.996Z"
                fill="#7C7C7C"></path>
            <path
                d="M843.94 438.996C831.44 431.643 750.107 384.33 707.44 359.496C707.44 345.496 713.44 337.496 721.94 337.496L863.44 418.496M843.94 438.996C859.44 448.996 870.44 424.996 863.44 418.496M843.94 438.996C838.44 433.496 850.44 409.996 863.44 418.496"
                stroke="#121212"></path>
        </g>
        <path id="Vector 25"
            d="M337.44 121.496C343.44 115.496 345.607 118.996 345.94 121.496C342.44 125.663 334.84 134.496 332.44 136.496C330.04 138.496 329.44 136.33 329.44 134.996C329.607 132.996 331.44 127.496 337.44 121.496Z"
            fill="#F2EFE6" stroke="#121212"></path>
        <path id="Vector 30"
            d="M347.94 119.496C353.737 117.95 355.94 119.329 356.94 121.496L336.94 138.996C336.94 138.996 330.94 144.996 332.44 136.496C333.94 127.996 340.44 121.496 347.94 119.496Z"
            fill="#F2EFE6" stroke="#121212"></path>
        <path id="Vector 29"
            d="M359.94 119.996C367.54 120.796 368.107 125.663 367.44 127.996L342.94 141.996C340.607 143.33 336.04 144.696 336.44 139.496C336.94 132.996 350.44 118.996 359.94 119.996Z"
            fill="#F2EFE6" stroke="#121212"></path>
        <path id="Vector 28"
            d="M367.94 124.996C374.167 127.245 378.44 137.996 379.44 145.496C379.44 145.496 363.94 137.996 364.94 134.496C363.94 137.996 347.94 143.996 347.94 143.996C342.74 146.796 341.74 143.497 342.94 141.497C348.94 131.497 364.94 123.913 367.94 124.996Z"
            fill="#F2EFE6" stroke="#121212"></path>
        <path id="Vector 27"
            d="M349.44 156.496C350.273 156.163 352.44 155.496 352.94 149.996C353.44 144.496 353.465 144.672 353.44 143.996C353.415 143.321 353.493 142.471 353.44 141.496C353.288 138.705 351.94 136.044 351.94 134.496C351.94 130.996 359.44 125.496 361.94 133.496C361.94 133.496 363.227 137.091 363.44 139.496C363.561 140.858 363.468 141.63 363.44 142.996C363.349 147.503 362.44 154.496 362.44 154.496C362.44 155.996 363.34 159.696 364.94 160.496"
            stroke="#121212"></path>
        <path id="Vector 31"
            d="M361.709 159.726L354.285 158.164C354.3 158.115 354.312 158.066 354.323 158.017C354.405 157.633 354.412 157.127 354.386 156.506C354.359 155.859 354.29 155.017 354.204 153.956C354.124 152.983 354.03 151.825 353.939 150.463C353.939 150.463 353.939 150.463 353.939 150.463C353.939 150.461 353.938 150.452 353.938 150.432C353.939 150.41 353.939 150.381 353.94 150.344C353.942 150.27 353.946 150.173 353.952 150.055C353.964 149.819 353.983 149.506 354.007 149.14C354.054 148.409 354.121 147.476 354.187 146.539L354.191 146.478C354.256 145.563 354.321 144.65 354.368 143.929C354.392 143.561 354.412 143.241 354.425 142.996C354.437 142.765 354.445 142.567 354.439 142.468C354.225 138.671 353.827 137.596 353.433 136.534C353.259 136.062 353.085 135.593 352.928 134.888C352.789 134.263 353.043 133.435 353.656 132.607C354.259 131.792 355.151 131.063 356.111 130.651C357.072 130.238 358.047 130.163 358.873 130.553C359.692 130.94 360.481 131.84 360.957 133.626L360.966 133.661L360.98 133.694L360.98 133.694L360.98 133.694L360.98 133.694L360.981 133.695L360.983 133.701L360.995 133.728C361.005 133.752 361.02 133.79 361.04 133.839C361.079 133.938 361.136 134.086 361.204 134.276C361.341 134.656 361.524 135.206 361.708 135.878C362.075 137.227 362.44 139.056 362.44 140.997C362.44 143.61 362.192 146.966 361.942 149.679C361.817 151.033 361.693 152.223 361.599 153.074C361.553 153.5 361.514 153.841 361.486 154.075C361.473 154.192 361.462 154.282 361.455 154.344L361.446 154.413L361.444 154.43L361.444 154.435L361.444 154.436L361.444 154.436L361.94 154.496L361.444 154.436L361.44 154.466V154.496C361.44 154.765 361.423 155.098 361.403 155.486C361.395 155.632 361.387 155.785 361.38 155.945C361.352 156.519 361.332 157.163 361.361 157.79C361.391 158.413 361.471 159.047 361.659 159.592C361.675 159.637 361.691 159.682 361.709 159.726Z"
            fill="#F2EFE6" stroke="#F2EFE6"></path>
        <path id="Hand"
            d="M578.44 311.996C580.84 313.996 578.94 320.996 579.94 327.996L580.94 331.996L586.94 342.996L607.44 340.496C608.273 337.496 610.44 333.496 611.44 331.496C612.334 329.707 610.94 322.496 609.44 319.496C613.84 317.896 617.607 309.496 618.94 305.496L619.94 303.496L602.44 292.496C595.773 288.996 583.94 280.996 581.94 282.996C579.94 284.996 576.94 283.496 575.94 282.496C577.44 277.996 576.44 278.496 576.44 276.496C586.94 266.496 581.94 259.061 577.94 260.996C565.54 266.996 565.651 274.843 564.44 278.996C560.94 290.996 573.44 302.496 578.44 311.996Z"
            fill="#F2EFE6" stroke="#121212"></path>
        <path id="Finger"
            d="M594.94 255.496C598.94 254.296 600.607 258.663 600.94 260.996L597.94 268.496C594.773 272.496 587.84 281.196 585.44 283.996C583.04 286.796 581.773 284.163 581.44 282.496C578.94 264.996 589.94 256.996 594.94 255.496Z"
            fill="#F2EFE6" stroke="#121212"></path>
        <path id="Finger_2"
            d="M600.94 260.996C610.14 257.796 611.773 265.33 611.44 268.996L602.94 278.496C600.44 280.163 594.34 284.096 589.94 286.496C585.54 288.896 585.107 285.496 585.44 283.496C586.773 277.33 591.74 264.196 600.94 260.996Z"
            fill="#F2EFE6" stroke="#121212"></path>
        <path id="Finger_3"
            d="M613.94 268.496C620.953 268.766 625.44 277.497 624.94 279.997L613.94 281.996C611.607 284.163 605.04 288.996 597.44 290.996C589.84 292.996 589.273 288.83 589.94 286.497C593.44 278.497 600.94 267.996 613.94 268.496Z"
            fill="#F2EFE6" stroke="#121212"></path>
        <g id="Left formarm">
            <path
                d="M611.44 331.496C604.94 350.996 618.44 380.496 618.44 394.496C621.94 404.996 623.403 427.317 607.94 440.996C594.94 452.496 569.74 460.796 560.94 437.996C560.107 435.33 558.94 429.196 560.94 425.996C550.94 401.996 586.511 350.996 579.94 327.996C582.027 335.3 589.29 341.491 598.5 339.468C602.531 338.582 606.934 336.124 611.44 331.496Z"
                fill="#F2EFE6"></path>
            <path
                d="M560.94 425.996C558.94 429.196 560.107 435.33 560.94 437.996C569.74 460.796 594.94 452.496 607.94 440.996C623.403 427.317 621.94 404.996 618.44 394.496C618.44 380.496 604.94 350.996 611.44 331.496C606.934 336.124 602.531 338.582 598.5 339.468M560.94 425.996C550.94 401.996 586.511 350.996 579.94 327.996C582.027 335.3 589.29 341.491 598.5 339.468M560.94 425.996C612.5 449.5 598.5 355.442 598.5 339.468"
                stroke="#121212"></path>
        </g>
        <g id="ABS">
            <path id="Vector 20"
                d="M416.94 222.496C434.54 222.496 437.607 229.163 436.94 232.496L431.94 247.996L402.44 251.496L381.94 239.496C386.273 233.83 399.34 222.496 416.94 222.496Z"
                fill="#F2EFE6" stroke="#121212"></path>
            <path id="Vector 19"
                d="M393.44 233.996C403.44 233.996 407.273 240.663 407.94 243.996L406.44 262.496L388.94 269.996L370.44 259.996C369.107 258.33 366.64 254.296 367.44 251.496C368.44 247.996 380.94 233.996 393.44 233.996Z"
                fill="#F2EFE6" stroke="#121212"></path>
            <path id="Vector 18"
                d="M368.94 250.996C374.44 250.997 382.607 257.163 381.94 261.496L379.94 276.996L358.94 288.496L343.44 272.496C346.607 266.83 362.857 250.996 368.94 250.996Z"
                fill="#F2EFE6" stroke="#121212"></path>
            <path id="Vector 17"
                d="M356.94 276.496L347.44 269.996L339.44 268.496L318.44 271.496L304.44 282.996L296.44 295.496L321.94 307.996L342.94 295.496L356.94 276.496Z"
                fill="#F2EFE6" stroke="#121212"></path>
            <path id="Vector 15"
                d="M444.44 233.496C438.04 229.096 415.107 239.663 404.44 245.496C405.607 248.83 408.04 255.496 408.44 255.496C408.84 255.496 419.607 265.83 424.94 270.996C438.44 270.996 447.94 254.996 457.94 249.996C458.94 247.496 452.44 238.996 444.44 233.496Z"
                fill="#F2EFE6" stroke="#121212"></path>
            <path id="Vector 14"
                d="M407.94 243.996C406.44 243.157 387.44 256.996 380.44 262.496L384.94 273.497L406.94 286.997C411.34 286.997 422.44 275.497 424.94 270.998C424.94 259.497 420.44 250.996 407.94 243.996Z"
                fill="#F2EFE6" stroke="#121212"></path>
            <path id="Vector 13"
                d="M380.94 261.996L357.94 276.996L372.44 305.496C373.64 307.496 399.44 295.496 407.44 286.996C398.94 276.996 402.94 269.496 393.44 261.996C389.444 258.842 383.607 260.496 380.94 261.996Z"
                fill="#F2EFE6" stroke="#121212"></path>
            <path id="Vector 12"
                d="M356.94 278.496C350.54 278.096 326.44 297.496 312.94 303.496L347.94 333.496L380.94 303.496C379.44 288.496 365.94 277.496 359.44 278.496H356.94Z"
                fill="#F2EFE6" stroke="#121212"></path>
            <ellipse id="Ellipse 1" cx="357.44" cy="276.851" rx="4.55759" ry="3.30711"
                transform="rotate(23.5807 357.44 276.851)" fill="#F2EFE6" stroke="#121212"></ellipse>
        </g>
        <path id="Vector 16"
            d="M338.44 264.496C296.94 269.496 302.44 282.996 293.44 285.496C289.94 296.496 288.44 313.996 302.44 293.996C316.44 273.996 337.607 269.496 347.44 269.996L338.44 264.496Z"
            fill="#F2EFE6" stroke="#121212"></path>
        <path id="Vector 39"
            d="M216.94 512.996C197.94 540.996 221.94 563.496 226.44 579.996L236.44 588.996L271.94 584.996L280.94 562.996C278.273 558.163 272.24 547.996 269.44 545.996C266.64 543.996 268.273 541.496 269.44 540.496L277.94 525.496L260.44 512.496L226.44 504.496L216.94 512.996Z"
            fill="#F2EFE6" stroke="#121212"></path>
        <path id="Vector 38"
            d="M226.44 579.496C219.44 600.996 251.94 645.996 246.44 684.496L252.94 706.996C261.273 708.496 277.94 711.296 277.94 710.496C277.94 709.696 280.94 693.83 282.44 685.996C279.94 667.496 304.44 624.496 301.44 610.496L295.94 578.496L271.44 562.496C269.94 565.996 265.44 569.996 257.44 573.497C256.449 573.875 244.359 579.211 243.295 579.496C238.6 580.756 233.142 581.025 226.44 579.496Z"
            fill="#F2EFE6" stroke="#121212"></path>
        <path id="Finger_4"
            d="M616.94 276.996C630.685 278.141 629.94 286.33 627.94 288.996C626.44 287.83 622.74 286.296 617.94 285.496C611.94 284.496 607.44 289.996 601.94 293.496C597.54 296.296 597.107 292.996 597.44 290.996C598.773 284.662 610.94 276.496 616.94 276.996Z"
            fill="#F2EFE6" stroke="#121212"></path>
        <path id="Vector 36"
            d="M301.44 610.496C307.44 592.096 307.94 553.996 268.94 545.496C270.94 549.096 271.44 563.496 270.94 563.996C281.94 564.996 298.94 597.996 301.44 610.496Z"
            fill="#F2EFE6" stroke="#121212"></path>
        <g id="Vector 37">
            <path
                d="M282.44 685.997C264.84 696.397 248.94 687.497 246.44 684.497C245.44 687.996 229.94 739.497 226.94 748.997C220.44 757.997 214.185 763.804 209.44 774.497C206.685 780.705 204.44 784.997 204.44 790.497C204.44 797.655 210.44 806.997 221.44 792.497C220.94 802.497 231.369 800.997 229.94 793.497C231.54 801.897 239.04 799.897 239.44 791.497C239.04 799.897 248.44 795.997 248.94 791.497C248.94 797.497 253.607 794.663 255.94 792.497L262.94 781.997C271.74 779.997 277.607 756.163 279.44 744.497C277.94 741.497 294.94 716.997 288.44 705.997C284.817 699.865 282.107 690.83 282.44 685.997Z"
                fill="#F2EFE6"></path>
            <path
                d="M248.94 791.497C248.94 797.497 253.607 794.663 255.94 792.497L262.94 781.997C271.74 779.997 277.607 756.163 279.44 744.497C277.94 741.497 294.94 716.997 288.44 705.997C284.817 699.865 282.107 690.83 282.44 685.997C264.84 696.397 248.94 687.497 246.44 684.497C245.44 687.996 229.94 739.497 226.94 748.997C220.44 757.997 214.185 763.804 209.44 774.497C206.685 780.705 204.44 784.997 204.44 790.497C204.44 797.655 210.44 806.997 221.44 792.497M248.94 791.497C248.94 785.497 252.94 779.997 254.94 777.997M248.94 791.497C248.44 795.997 239.04 799.897 239.44 791.497M239.44 791.497C239.84 783.097 244.607 777.33 246.94 775.497M239.44 791.497C239.04 799.897 231.54 801.897 229.94 793.497M229.94 793.497C229.273 790.497 230.34 781.397 239.94 768.997M229.94 793.497C231.369 800.997 220.94 802.497 221.44 792.497M221.44 792.497C220.44 789.497 220.44 785.497 222.44 780.997C224.107 778.83 227.74 773.797 228.94 770.997"
                stroke="#121212"></path>
        </g>
        <path id="Vector 35"
            d="M343.94 382.996L286.44 365.996L263.94 399.996L249.44 427.496L226.94 508.496C224.44 518.996 238.94 528.996 250.94 516.496L318.94 440.496L343.94 382.996Z"
            fill="#F2EFE6" stroke="#121212"></path>
        <path id="Vector 34"
            d="M254.94 407.496C248.14 416.296 244.107 433.83 242.94 441.496L254.94 426.496C253.74 421.696 273.44 391.996 289.44 379.996L302.44 371.996L278.44 375.496L252.44 392.996L254.94 407.496Z"
            fill="#F2EFE6" stroke="#121212"></path>
        <path id="Vector 32"
            d="M309.94 496.996C317.94 493.796 346.44 450.996 351.94 422.496V411.996L334.44 383.996C300.44 463.996 255.769 472.996 250.94 505.996C247.93 526.566 261.273 537.496 268.94 540.496C277.44 537.496 303.94 514.496 309.94 496.996Z"
            fill="#F2EFE6" stroke="#121212"></path>
        <path id="Vector 33"
            d="M216.94 512.496C214.94 485.696 231.94 446.996 254.94 426.496C252.94 430.83 249.74 440.796 248.94 451.996C247.94 465.996 231.94 503.496 224.94 511.496C219.34 517.896 217.273 514.83 216.94 512.496Z"
            fill="#F2EFE6" stroke="#121212"></path>
        <g id="Pants">
            <path
                d="M293.44 285.496C296.273 287.496 300.358 288.429 304.44 290.996C317.919 299.472 324.912 305.193 337.94 314.496C344.839 319.423 352.94 323.996 354.94 327.996C370.44 328.996 383.94 369.496 381.94 387.496C377.44 395.996 358.14 410.396 354.94 409.996C356.44 413.996 353.54 422.596 351.94 424.996C348.44 402.996 321.04 365.996 289.44 379.996C282.44 379.996 268.14 389.796 266.94 394.996C262.44 394.996 255.74 401.896 254.94 407.496C245.94 409.996 222.34 399.496 221.94 393.496C219.94 396.496 213.44 400.196 211.44 400.996C206.44 369.996 191.94 313.996 196.94 297.496C217.699 295.359 237.153 299.56 256.44 298.148C269.94 297.496 274.94 289.496 293.44 285.496Z"
                fill="#424651"></path>
            <path
                d="M293.44 285.496C296.273 287.496 300.358 288.429 304.44 290.996C317.919 299.472 324.912 305.193 337.94 314.496C344.839 319.423 352.94 323.996 354.94 327.996M293.44 285.496C274.94 289.496 269.94 297.496 256.44 298.148C237.153 299.56 217.699 295.359 196.94 297.496C191.94 313.996 206.44 369.996 211.44 400.996C213.44 400.196 219.94 396.496 221.94 393.496C222.34 399.496 245.94 409.996 254.94 407.496C255.74 401.896 262.44 394.996 266.94 394.996C268.14 389.796 282.44 379.996 289.44 379.996C321.04 365.996 348.44 402.996 351.94 424.996C353.54 422.596 356.44 413.996 354.94 409.996C358.14 410.396 377.44 395.996 381.94 387.496C383.94 369.496 370.44 328.996 354.94 327.996M293.44 285.496C276.94 305.663 244.44 355.496 266.94 394.496C266.94 348.496 331.773 328.83 354.94 327.996"
                stroke="#121212"></path>
        </g>
    </g>
</svg>