<svg width="493" height="920" viewBox="0 0 493 920" fill="none" xmlns="http://www.w3.org/2000/svg">
    <path id="default"
        d="M354.445 886.5C343.645 880.1 332.066 879.728 322.733 870.395C317.533 858.395 320.566 840.061 322.733 832.395C336.146 785.128 349.733 724.895 335.733 664.395C324.733 625.895 328.733 623.895 328.733 615.895C348.733 553.895 347.733 461.895 320.233 415.395C316.233 369.895 332.233 356.895 316.233 333.395C312.233 326.195 313.233 314.395 314.233 309.395C327.033 299.795 331.566 287.061 332.233 281.895C334.633 293.095 343.566 300.895 347.733 303.395C339.733 349.395 395.233 368.895 410.733 409.395C410.733 428.195 418.399 446.228 422.233 452.895C426.633 461.695 430.066 477.228 431.233 483.895C432.108 488.895 440.733 486.395 440.233 482.395C439.833 479.195 438.733 465.728 438.233 459.395C439.033 463.795 446.899 481.895 450.733 490.395C454.733 495.895 462.447 490.895 460.733 486.895C459.533 484.095 453.899 465.395 451.233 456.395C452.833 457.995 465.233 477.895 472.233 486.895C477.233 491.395 481.733 484.061 480.233 480.395C478.733 476.728 468.733 459.395 464.733 450.895L469.772 456.616C473.315 461.156 478.186 467.442 483.233 471.895C493.233 476.395 494.233 466.101 491.733 463.895C484.933 457.895 472.566 435.061 467.233 424.395C486.433 437.595 493.933 429.895 491.233 425.395C489.733 422.895 460.233 397.395 442.233 395.895C409.733 353.895 444.233 327.895 393.233 284.895C395.233 258.895 378.733 243.061 370.233 238.395C385.033 174.395 350.399 153.728 331.233 151.395C324.833 143.795 293.899 129.561 279.233 123.395V109.895C282.833 106.295 285.399 94.3948 286.233 88.8948C302.733 73.8948 299.733 52.8948 289.733 51.8948C294.933 20.2948 269.233 6.39477 255.733 3.39476C237.733 -3.40524 228.566 1.56143 226.233 4.89476C212.633 7.69476 204.566 25.7281 202.233 34.3948C201.033 38.3948 203.733 48.3948 205.233 52.8948C194.733 53.8948 199.233 66.3948 198.733 73.8948C198.333 79.8948 205.233 86.3948 208.733 88.8948C208.733 97.6948 212.066 106.561 213.733 109.895V124.895C194.933 130.095 172.899 144.728 164.233 151.395C109.233 162.395 115.733 215.228 123.733 238.395C100.933 255.995 98.5661 276.728 100.233 284.895C51.2327 333.395 88.7327 346.895 49.7327 397.395C35.7327 397.395 9.73273 418.895 4.73273 423.895C-0.267273 428.895 3.73273 430.395 4.73273 430.895C5.73273 431.395 12.2327 430.895 13.7327 430.895C14.9327 430.895 22.8994 426.895 26.7327 424.895C27.5327 427.295 10.0661 453.561 1.23273 466.395C-0.0860901 471.934 3.37085 473.595 6.73273 473.395C8.73273 473.395 9.73273 473.395 11.2327 471.895L29.2327 451.895C28.8327 453.095 19.3994 469.728 14.7327 477.895C11.746 487.941 16.541 489.533 20.7327 487.895C22.7162 487.12 24.2327 485.395 25.2327 483.895C26.4327 482.695 37.7327 464.395 43.2327 455.395C43.2327 459.395 33.7327 478.395 33.7327 485.895C33.7327 493.395 38.7327 492.395 42.2327 491.395C45.0327 490.595 52.7327 469.728 56.2327 459.395C50.5854 490.141 61.158 487.395 64.7327 481.395C68.0622 475.806 68.0564 466.342 69.7327 458.395C76.1327 443.195 81.0661 420.395 82.7327 410.895C93.2327 372.895 155.233 352.895 146.733 303.395C155.233 296.895 160.733 287.728 162.733 282.395C165.133 294.395 175.066 304.728 179.733 308.395C182.133 320.395 178.733 330.061 176.733 333.395C169.133 342.595 170.566 363.561 172.233 372.895C176.233 394.095 173.899 409.728 172.233 414.895C141.833 480.495 150.566 555.561 158.733 584.895C168.333 614.895 165.733 633.728 163.233 639.395C141.233 705.795 154.066 773.395 163.233 798.895C169.233 808.095 172.399 842.728 173.233 858.895C178.833 870.095 151.112 878.061 135.945 887.895C126.945 893.73 123.493 902.019 135.945 907C140.945 909 166.263 911.263 183.445 916.895C194.445 920.5 198.945 918.5 204.945 918.5C220.445 913.5 221.399 896.728 217.733 887.895C211.733 873.095 212.233 822.395 213.233 798.895C238.833 741.695 226.899 689.395 217.733 670.395C232.533 654.795 234.233 593.228 233.233 564.395C239.233 561.995 244.399 503.395 246.233 474.395C246.233 502.795 254.233 546.228 258.233 564.395C255.433 616.795 269.066 656.895 276.233 670.395C257.833 722.395 271.566 777.728 280.733 798.895C284.333 813.695 279.233 852.728 276.233 870.395C270.233 903.995 278.733 915.395 283.733 916.895C293.945 919.958 303.416 919.964 310.445 916.895C323.945 911 321.945 912.5 352.445 909.5C373.445 902.5 362.162 891.073 354.445 886.5Z"
        fill="#424651"></path>
</svg>