<svg width="492" height="926" viewBox="0 0 492 926" fill="none" xmlns="http://www.w3.org/2000/svg">
    <g id="abs_left">
        <path id="abs_left_1"
            d="M248.158 446.624V347.624C279.158 344.624 274.158 372.124 274.158 372.124C274.158 372.124 272.658 444.624 248.158 446.624Z"
            fill="#FBFBFB"></path>
        <path id="abs_left_2"
            d="M248.158 344.416V302.416C253.158 298.416 260.658 301.416 265.158 302.416C280.658 306.416 276.658 315.75 276.658 322.416C277.058 346.816 268.658 344.416 248.158 344.416Z"
            fill="#FBFBFB"></path>
        <path id="abs_left_3"
            d="M268.158 299.974C278.158 305.574 282.158 295.974 282.158 295.974C282.158 295.974 285.158 288.641 284.658 286.974C276.258 272.974 258.658 264.474 248.158 265.474V298.474C258.558 297.274 265.824 298.974 268.158 299.974Z"
            fill="#FBFBFB"></path>
        <path id="abs_left_4"
            d="M295.158 245.2C275.158 241.6 253.658 236.699 248.158 241.2V260.699C263.358 260.299 275.824 269.866 280.158 274.699C287.358 281.499 293.824 276.866 296.158 273.699C311.758 256.099 301.991 247.366 295.158 245.2Z"
            fill="#FBFBFB"></path>
    </g>
    <g id="abs_right">
        <path id="abs_right_1"
            d="M243.658 446.395V347.395C212.658 344.395 217.658 371.895 217.658 371.895C217.658 371.895 219.158 444.395 243.658 446.395Z"
            fill="#FBFBFB"></path>
        <path id="abs_right_2"
            d="M243.658 343.895V301.895C238.658 297.895 231.158 300.895 226.658 301.895C211.158 305.895 215.158 315.228 215.158 321.895C214.758 346.295 223.158 343.895 243.658 343.895Z"
            fill="#FBFBFB"></path>
        <path id="abs_right_3"
            d="M223.658 299.395C213.658 304.995 209.658 295.395 209.658 295.395C209.658 295.395 206.658 288.061 207.158 286.395C215.558 272.395 233.158 263.895 243.658 264.895V297.895C233.258 296.695 225.991 298.395 223.658 299.395Z"
            fill="#FBFBFB"></path>
        <path id="abs_right_4"
            d="M196.658 245.895C216.658 242.295 238.158 237.395 243.658 241.895V261.395C228.458 260.995 215.991 270.561 211.658 275.395C204.458 282.195 197.991 277.561 195.658 274.395C180.058 256.795 189.824 248.062 196.658 245.895Z"
            fill="#FBFBFB"></path>
    </g>
</svg>