<svg width="492" height="926" viewBox="0 0 492 926" fill="none" xmlns="http://www.w3.org/2000/svg">
    <g id="biceps_right">
        <path id="biceps_right_1"
            d="M370.676 244.098C397.876 268.498 388.009 297.265 379.676 308.598C385.676 262.098 372.176 254.098 369.176 247.598C366.776 242.398 369.176 243.098 370.676 244.098Z"
            fill="#FBFBFB"></path>
        <path id="biceps_right_2"
            d="M359.2 235.045C350.2 222.045 338.367 219.045 335.7 223.045C331.2 244.545 355.6 319.045 375.2 311.045C379.355 280.714 377.2 264.545 365.2 247.545C364.2 243.545 361.949 239.015 359.2 235.045Z"
            fill="#FBFBFB"></path>
        <path id="biceps_right_3"
            d="M348.819 291.895C352.019 300.295 348.153 296.728 345.819 293.895C344.819 292.395 341.519 287.495 336.319 279.895C331.119 272.295 333.486 260.395 335.319 255.395C336.248 262.452 338.533 267.854 340.319 272.395C343.342 280.078 346.305 285.295 348.819 291.895Z"
            fill="#FBFBFB"></path>
    </g>
    <g id="biceps_left">
        <path id="biceps_left_1"
            d="M123.158 243.895C95.9577 268.295 105.824 297.061 114.158 308.395C108.158 261.895 121.658 253.895 124.658 247.395C127.058 242.195 124.658 242.895 123.158 243.895Z"
            fill="#FBFBFB"></path>
        <path id="biceps_left_2"
            d="M133.658 235.395C142.658 222.395 154.491 219.395 157.158 223.395C161.658 244.895 137.258 319.395 117.658 311.395C113.503 281.064 115.658 264.895 127.658 247.895C128.658 243.895 130.909 239.365 133.658 235.395Z"
            fill="#FBFBFB"></path>
        <path id="biceps_left_3"
            d="M144.658 291.395C141.458 299.795 145.324 296.228 147.658 293.395C148.658 291.895 151.958 286.995 157.158 279.395C162.358 271.795 159.991 259.895 158.158 254.895C157.229 261.952 154.944 267.354 153.158 271.895C150.135 279.578 147.172 284.795 144.658 291.395Z"
            fill="#FBFBFB"></path>
    </g>
</svg>