<svg width="492" height="926" viewBox="0 0 492 926" fill="none" xmlns="http://www.w3.org/2000/svg">
    <g id="calf_front_right">
        <path id="calf_front_right_1"
            d="M306.749 734.395C306.749 706.895 330.249 696.895 326.249 655.395C339.849 690.195 334.25 727.395 333.249 742.895C329.771 796.783 308.598 814.395 306.749 840.895C305.55 858.095 301.916 854.395 300.249 850.395C293.049 822.795 306.749 743.063 306.749 734.395Z"
            fill="#FBFBFB"></path>
        <path id="calf_front_right_2"
            d="M287.686 789.895C296.886 749.895 287.186 697.561 281.186 676.395C273.986 690.795 271.881 713.237 272.186 733.395C272.566 758.448 281.353 781.228 287.686 789.895Z"
            fill="#FBFBFB"></path>
    </g>
    <g id="calf_front_left">
        <path id="calf_front_left_1"
            d="M185.658 733.895C185.658 706.395 162.158 696.395 166.158 654.895C152.558 689.695 158.158 726.895 159.158 742.395C162.636 796.283 183.809 813.895 185.658 840.395C186.858 857.595 190.491 853.895 192.158 849.895C199.358 822.295 185.658 742.563 185.658 733.895Z"
            fill="#FBFBFB"></path>
        <path id="calf_front_left_2"
            d="M205.158 789.895C195.958 749.895 205.658 697.561 211.658 676.395C218.858 690.795 220.963 713.237 220.658 733.395C220.278 758.448 211.491 781.228 205.158 789.895Z"
            fill="#FBFBFB"></path>
    </g>
</svg>