<svg width="492" height="926" viewBox="0 0 492 926" fill="none" xmlns="http://www.w3.org/2000/svg">
    <g id="chest_right">
        <path id="chest_right_1"
            d="M326.158 193.895C327.658 203.895 335.727 213.528 339.658 218.395C322.991 201.061 281.358 169.395 248.158 181.395C250.958 170.195 277.658 164.728 290.658 163.395C303.921 168.149 326.158 184.895 326.158 193.895Z"
            fill="#FBFBFB"></path>
        <path id="chest_right_2"
            d="M311.158 235.991C297.658 248.491 271.658 234.491 248.158 235.991V184.991C274.158 171.491 317.158 198.991 336.658 218.024C321.566 218.828 320.57 229.403 311.158 235.991Z"
            fill="#FBFBFB"></path>
    </g>
    <g id="chest_left">
        <path id="chest_left_1"
            d="M165.158 193.895C163.658 203.895 155.589 213.528 151.658 218.395C168.324 201.061 209.958 169.395 243.158 181.395C240.358 170.195 213.658 164.728 200.658 163.395C187.395 168.149 165.158 184.895 165.158 193.895Z"
            fill="#FBFBFB"></path>
        <path id="chest_left_2"
            d="M180.158 236.395C193.658 248.895 219.658 234.895 243.158 236.395V185.395C217.158 171.895 174.158 199.395 154.658 218.428C169.749 219.232 170.746 229.806 180.158 236.395Z"
            fill="#FBFBFB"></path>
    </g>
</svg>