<svg width="492" height="926" viewBox="0 0 492 926" fill="none" xmlns="http://www.w3.org/2000/svg">
    <path id="contour_front"
        d="M128.658 906.395C139.458 899.995 160.824 879.728 170.158 870.395C175.358 858.395 172.324 840.061 170.158 832.395C156.744 785.128 143.158 724.895 157.158 664.395C168.158 625.895 164.158 623.895 164.158 615.895C144.158 553.895 145.158 461.895 172.658 415.395C176.658 369.895 160.658 356.895 176.658 333.395C180.658 326.195 179.658 314.395 178.658 309.395C165.858 299.795 161.324 287.061 160.658 281.895C158.258 293.095 149.324 300.895 145.158 303.395C153.158 349.395 97.6577 368.895 82.1577 409.395C82.1577 428.195 74.4911 446.228 70.6577 452.895C66.2577 461.695 62.8244 477.228 61.6577 483.895C60.7827 488.895 52.1577 486.395 52.6577 482.395C53.0577 479.195 54.1577 465.728 54.6577 459.395C53.8577 463.795 45.991 481.895 42.1577 490.395C38.1577 495.895 30.4434 490.895 32.1577 486.895C33.3577 484.095 38.991 465.395 41.6577 456.395C40.0577 457.995 27.6577 477.895 20.6577 486.895C15.6577 491.395 11.1577 484.061 12.6577 480.395C14.1577 476.728 24.1578 459.395 28.1578 450.895L23.1181 456.616C19.5751 461.156 14.7046 467.442 9.65781 471.895C-0.342285 476.395 -1.34216 466.101 1.15781 463.895C7.95781 457.895 20.3244 435.061 25.6576 424.395C6.45764 437.595 -1.04219 429.895 1.65764 425.395C3.15764 422.895 32.6576 397.395 50.6576 395.895C83.1576 353.895 48.6576 327.895 99.6576 284.895C97.6576 258.895 114.158 243.061 122.658 238.395C107.858 174.395 142.491 153.728 161.658 151.395C168.058 143.795 198.991 129.561 213.658 123.395V109.895C210.058 106.295 207.491 94.3948 206.658 88.8948C190.158 73.8948 193.158 52.8948 203.158 51.8948C197.958 20.2948 223.658 6.39477 237.158 3.39476C255.158 -3.40524 264.324 1.56143 266.658 4.89476C280.258 7.69476 288.324 25.7281 290.658 34.3948C291.858 38.3948 289.158 48.3948 287.658 52.8948C298.158 53.8948 293.658 66.3948 294.158 73.8948C294.558 79.8948 287.658 86.3948 284.158 88.8948C284.158 97.6948 280.824 106.561 279.158 109.895V124.895C297.958 130.095 319.991 144.728 328.658 151.395C383.658 162.395 377.158 215.228 369.158 238.395C391.958 255.995 394.324 276.728 392.658 284.895C441.658 333.395 404.158 346.895 443.158 397.395C457.158 397.395 483.158 418.895 488.158 423.895C493.158 428.895 489.158 430.395 488.158 430.895C487.158 431.395 480.658 430.895 479.158 430.895C477.958 430.895 469.991 426.895 466.158 424.895C465.358 427.295 482.824 453.561 491.658 466.395C492.976 471.934 489.52 473.595 486.158 473.395C484.158 473.395 483.158 473.395 481.658 471.895L463.658 451.895C464.058 453.095 473.491 469.728 478.158 477.895C481.144 487.941 476.349 489.533 472.158 487.895C470.174 487.12 468.658 485.395 467.658 483.895C466.458 482.695 455.158 464.395 449.658 455.395C449.658 459.395 459.158 478.395 459.158 485.895C459.158 493.395 454.158 492.395 450.658 491.395C447.858 490.595 440.158 469.728 436.658 459.395C442.305 490.141 431.732 487.395 428.158 481.395C424.828 475.806 424.834 466.342 423.158 458.395C416.758 443.195 411.824 420.395 410.158 410.895C399.658 372.895 337.658 352.895 346.158 303.395C337.658 296.895 332.158 287.728 330.158 282.395C327.758 294.395 317.824 304.728 313.158 308.395C310.758 320.395 314.158 330.061 316.158 333.395C323.758 342.595 322.324 363.561 320.658 372.895C316.658 394.095 318.991 409.728 320.658 414.895C351.058 480.495 342.324 555.561 334.158 584.895C324.558 614.895 327.158 633.728 329.658 639.395C351.658 705.795 338.824 773.395 329.658 798.895C323.658 808.095 320.491 842.728 319.658 858.895C314.058 870.095 342.991 892.561 358.158 902.395C377.758 913.995 362.324 921.561 352.158 923.895C348.158 926.295 323.491 924.895 311.658 923.895C305.658 917.495 293.491 916.561 288.158 916.895C268.958 914.895 271.491 896.728 275.158 887.895C281.158 873.095 280.658 822.395 279.658 798.895C254.058 741.695 265.991 689.395 275.158 670.395C260.358 654.795 258.658 593.228 259.658 564.395C253.658 561.995 248.491 503.395 246.658 474.395C246.658 502.795 238.658 546.228 234.658 564.395C237.458 616.795 223.824 656.895 216.658 670.395C235.058 722.395 221.324 777.728 212.158 798.895C208.558 813.695 213.658 852.728 216.658 870.395C222.658 903.995 214.158 915.395 209.158 916.895C199.158 914.095 185.991 920.395 180.658 923.895C120.658 927.895 115.158 914.395 128.658 906.395Z"
        fill="#424651"></path>
</svg>