<svg width="492" height="926" viewBox="0 0 492 926" fill="none" xmlns="http://www.w3.org/2000/svg">
    <g id="forearm_front_left">
        <path id="forearm_front_left_1"
            d="M373.89 316.895C363.49 314.895 355.89 306.395 353.39 302.395C350.59 332.395 373.889 355.395 383.889 363.895C393.889 372.395 410.389 394.895 414.89 404.395C426.556 405.728 437.889 400.735 426.39 393.395C407.59 381.395 394.223 364.728 389.89 357.895C376.89 340.395 386.89 333.395 373.89 316.895Z"
            fill="#FBFBFB"></path>
        <path id="forearm_front_left_2"
            d="M433.494 393.895C401.494 332.395 436.494 332.895 390.494 292.395C380.994 317.895 373.894 355.095 433.494 393.895Z"
            fill="#FBFBFB"></path>
    </g>
    <g id="forearm_front_right">
        <path id="forearm_front_right_1"
            d="M118.657 316.895C129.057 314.895 136.657 306.395 139.157 302.395C141.957 332.395 118.658 355.395 108.658 363.895C98.6577 372.395 82.1575 394.895 77.6575 404.395C65.9908 405.728 54.6577 400.735 66.1575 393.395C84.9574 381.395 98.3241 364.728 102.657 357.895C115.657 340.395 105.657 333.395 118.657 316.895Z"
            fill="#FBFBFB"></path>
        <path id="forearm_front_right_2"
            d="M59.6575 393.395C91.6575 331.895 56.6575 332.395 102.657 291.895C112.157 317.395 119.257 354.595 59.6575 393.395Z"
            fill="#FBFBFB"></path>
    </g>
</svg>