<svg width="492" height="926" viewBox="0 0 492 926" fill="none" xmlns="http://www.w3.org/2000/svg">
    <g id="obliques_front_right">
        <path id="obliques_front_right_1"
            d="M307.598 316.395C303.998 298.795 309.098 285.728 312.098 281.395C290.098 287.395 287.931 317.228 289.598 331.395C292.398 323.395 302.765 318.061 307.598 316.395Z"
            fill="#FBFBFB"></path>
        <path id="obliques_front_right_2"
            d="M288.158 338.395C293.358 326.395 303.991 321.395 308.158 320.395C307.158 328.395 308.658 333.395 311.658 338.395C302.858 341.195 291.658 355.228 288.158 361.895V338.395Z"
            fill="#FBFBFB"></path>
        <path id="obliques_front_right_3"
            d="M281.158 400.895C281.158 368.895 302.824 346.561 313.158 341.895C317.658 347.395 316.658 358.895 315.658 365.895C314.086 376.895 299.491 395.228 291.158 402.395C283.6 408.895 281.158 405.895 281.158 400.895Z"
            fill="#FBFBFB"></path>
    </g>
    <g id="obliques_front_left">
        <path id="obliques_front_left_1"
            d="M185.658 316.395C189.258 298.795 184.158 285.728 181.158 281.395C203.158 287.395 205.324 317.228 203.658 331.395C200.858 323.395 190.491 318.061 185.658 316.395Z"
            fill="#FBFBFB"></path>
        <path id="obliques_front_left_2"
            d="M204.158 338.395C198.958 326.395 188.324 321.395 184.158 320.395C185.158 328.395 183.658 333.395 180.658 338.395C189.458 341.195 200.658 355.228 204.158 361.895V338.395Z"
            fill="#FBFBFB"></path>
        <path id="obliques_front_left_3"
            d="M211.158 400.895C211.158 368.895 189.491 346.561 179.158 341.895C174.658 347.395 175.658 358.895 176.658 365.895C178.229 376.895 192.824 395.228 201.158 402.395C208.716 408.895 211.158 405.895 211.158 400.895Z"
            fill="#FBFBFB"></path>
    </g>
</svg>