<svg width="492" height="926" viewBox="0 0 492 926" fill="none" xmlns="http://www.w3.org/2000/svg">
    <g id="quadriceps_front_right">
        <path id="quadriceps_front_right_1"
            d="M297.015 588.395C281.415 571.595 278.849 526.061 279.515 505.395C270.315 515.795 268.515 545.395 265.515 558.895C262.315 579.695 265.515 596.895 267.515 602.895C267.915 628.895 281.015 631.061 287.515 628.895C306.715 617.695 301.849 597.228 297.015 588.395Z"
            fill="#FBFBFB"></path>
        <path id="quadriceps_front_right_2"
            d="M311.031 578.395C329.831 553.195 326.531 493.895 322.531 467.395C324.131 467.395 331.531 486.395 335.031 495.895C339.831 515.095 335.365 550.895 332.531 566.395C329.731 604.795 319.031 611.061 314.031 609.395C303.231 604.195 307.531 586.561 311.031 578.395Z"
            fill="#FBFBFB"></path>
        <path id="quadriceps_front_right_3"
            d="M283.92 538.515C278.72 502.115 285.92 405.515 293.92 409.515C303.42 410.015 309.42 439.015 314.42 448.015C322.02 463.215 320.92 504.015 319.42 522.515C317.82 562.915 307.087 577.349 301.92 579.515C291.12 583.115 285.42 553.682 283.92 538.515Z"
            fill="#FBFBFB"></path>
    </g>
    <g id="quadriceps_front_left">
        <path id="quadriceps_front_left_1"
            d="M195.658 587.895C211.258 571.095 213.824 525.561 213.158 504.895C222.358 515.295 224.158 544.895 227.158 558.395C230.358 579.195 227.158 596.395 225.158 602.395C224.758 628.395 211.658 630.561 205.158 628.395C185.958 617.195 190.824 596.728 195.658 587.895Z"
            fill="#FBFBFB"></path>
        <path id="quadriceps_front_left_2"
            d="M181.158 577.895C162.358 552.695 165.658 493.395 169.658 466.895C168.058 466.895 160.658 485.895 157.158 495.395C152.358 514.595 156.824 550.395 159.658 565.895C162.458 604.295 173.158 610.561 178.158 608.895C188.958 603.695 184.658 586.061 181.158 577.895Z"
            fill="#FBFBFB"></path>
        <path id="quadriceps_front_left_3"
            d="M207.658 537.895C212.858 501.495 205.658 404.895 197.658 408.895C188.158 409.395 182.158 438.395 177.158 447.395C169.558 462.595 170.658 503.395 172.158 521.895C173.758 562.295 184.491 576.728 189.658 578.895C200.458 582.495 206.158 553.061 207.658 537.895Z"
            fill="#FBFBFB"></path>
    </g>
</svg>