<svg width="492" height="926" viewBox="0 0 492 926" fill="none" xmlns="http://www.w3.org/2000/svg">
    <g id="shoulders_front_right">
        <path id="shoulders_front_right_1"
            d="M331.658 194.644C332.058 205.444 353.825 226.477 364.658 235.644C367.458 213.644 348.157 170.144 326.658 158.144C318.157 155.144 302.658 161.977 299.158 164.144C309.825 169.811 331.258 183.844 331.658 194.644Z"
            fill="#FBFBFB"></path>
        <path id="shoulders_front_right_2"
            d="M366.977 236.395C373.123 212.256 374.563 162.661 331.158 157.395C344.151 166.004 369.506 193.856 366.977 236.395Z"
            fill="#FBFBFB"></path>
    </g>
    <g id="shoulders_front_left">
        <path id="shoulders_front_left_1"
            d="M162.157 193.394C161.757 204.194 139.991 225.228 129.157 234.394C126.357 212.394 145.658 168.895 167.157 156.894C175.658 153.895 191.157 160.728 194.657 162.894C183.991 168.561 162.557 182.594 162.157 193.394Z"
            fill="#FBFBFB"></path>
        <path id="shoulders_front_left_2"
            d="M127.338 235.395C121.193 211.256 119.753 161.661 163.158 156.395C150.164 165.004 124.81 192.856 127.338 235.395Z"
            fill="#FBFBFB"></path>
    </g>
</svg>