<svg width="492" height="926" viewBox="0 0 492 926" fill="none" xmlns="http://www.w3.org/2000/svg">
    <path id="triceps_right"
        d="M348.819 291.895C352.019 300.295 348.153 296.728 345.819 293.895C344.819 292.395 341.519 287.495 336.319 279.895C331.119 272.295 333.486 260.395 335.319 255.395C336.248 262.452 338.533 267.854 340.319 272.395C343.342 280.078 346.305 285.295 348.819 291.895Z"
        fill="#FBFBFB"></path>
    <path id="triceps_left"
        d="M144.658 291.395C141.458 299.795 145.324 296.228 147.658 293.395C148.658 291.895 151.958 286.995 157.158 279.395C162.358 271.795 159.991 259.895 158.158 254.895C157.229 261.952 154.944 267.354 153.158 271.895C150.135 279.578 147.172 284.795 144.658 291.395Z"
        fill="#FBFBFB"></path>
</svg>