<svg xmlns="http://www.w3.org/2000/svg" width="23" height="24" fill="none" viewBox="0 0 23 24">
  <path fill="#000" d="M15.716 2.9A91.499 91.499 0 0 1 13.265.768a2.952 2.952 0 0 0-2.379-.742 2.845 2.845 0 0 0-2.031 1.3 20.372 20.372 0 0 0-2.492 6.45 6.125 6.125 0 0 1-.477-.816 2 2 0 0 0-3.3-.473A9.066 9.066 0 0 0 0 12.908 10.98 10.98 0 0 0 8.223 23.64c.907.229 1.84.347 2.775.352.03 0 .35-.003.479-.012 5.97-.193 10.707-5.093 10.7-11.066-.005-4.53-2.997-7.07-6.46-10.014Zm-4.742 19.085a3.766 3.766 0 0 1-2.035-.806c-.87-.615-1.445-1.517-1.582-2.557-.17-1.622.83-3.743 2.873-6.139a1.12 1.12 0 0 1 .857-.392c.325-.002.634.14.843.39 1.872 2.222 2.9 4.272 2.9 5.773-.006 1.972-1.548 3.532-3.51 3.722a1.892 1.892 0 0 1-.347.01Zm5.689-1.902c-.06.046-.124.083-.184.127.23-.627.35-1.29.35-1.958 0-2.527-1.835-5.235-3.372-7.062a3.1 3.1 0 0 0-2.366-1.1h-.005a3.117 3.117 0 0 0-2.375 1.093c-2.445 2.864-3.568 5.437-3.338 7.648.054.513.185 1.015.389 1.49a9.094 9.094 0 0 1-3.758-7.413 7.062 7.062 0 0 1 2.083-5.08c.23.48.507.935.827 1.361a1.847 1.847 0 0 0 1.905.7 1.9 1.9 0 0 0 1.452-1.474 18.654 18.654 0 0 1 2.268-6.022.842.842 0 0 1 .61-.384.95.95 0 0 1 .77.241c.857.78 1.7 1.5 2.5 2.177 3.337 2.835 5.75 4.883 5.75 8.487a9.033 9.033 0 0 1-3.503 7.171l-.003-.002Z"/>
</svg>
