<svg xmlns="http://www.w3.org/2000/svg" width="25" height="25" fill="none" viewBox="0 0 25 25">
    <path fill="#000"
        d="M14.5 7.001a3.514 3.514 0 0 0-2.5.99 3.567 3.567 0 0 0-6 2.71c0 3.256 4.874 6.736 5.43 7.121a1 1 0 0 0 1.14 0c.556-.385 5.43-3.865 5.43-7.12a3.608 3.608 0 0 0-3.5-3.7ZM12 15.763c-1.74-1.33-4-3.56-4-5.062-.075-2.006 2.914-2.4 3-.246v.546a1 1 0 0 0 2 0v-.546c.088-2.152 3.076-1.76 3 .246 0 1.5-2.258 3.732-4 5.062ZM12.837.03A12 12 0 0 0 .031 12.855c.44 6.354 6.052 11.146 13.053 11.146H19a5.006 5.006 0 0 0 5-5v-6.66A12.21 12.21 0 0 0 12.836.03ZM22 19.001a3 3 0 0 1-3 3h-5.916c-6.034 0-10.683-3.9-11.058-9.284A10 10 0 0 1 12.7 2.025 10.2 10.2 0 0 1 22 12.341v6.66Z" />
</svg>