<svg xmlns="http://www.w3.org/2000/svg" width="25" height="21" fill="none" viewBox="0 0 25 21">
  <path fill="#000" fill-rule="evenodd"
    d="M11.25 4.867a7.67 7.67 0 0 0-4.14 1.726L4.022 3.506A12.022 12.022 0 0 1 11.25.501v4.366Zm-8.287-.295L6.05 7.66a7.67 7.67 0 0 0-1.683 4.09H.002a12.023 12.023 0 0 1 2.96-7.178ZM18.58 4.9a1.108 1.108 0 0 0-1.812-.51l-1.363 1.237a7.671 7.671 0 0 0-2.652-.76V.501a12.024 12.024 0 0 1 7.224 3.002L18.58 4.9ZM12.013.477h-.023.023Zm5.936 7.18 3.088-3.089a12.024 12.024 0 0 1 2.965 7.181h-4.367a7.67 7.67 0 0 0-1.686-4.092Zm1.686 5.595a7.67 7.67 0 0 1-1.428 3.758 2.176 2.176 0 1 0 3.522 2.558 12.024 12.024 0 0 0 2.273-6.316h-4.367Zm-19.633 0h4.366a7.67 7.67 0 0 0 1.428 3.758 2.176 2.176 0 1 1-3.522 2.558 12.023 12.023 0 0 1-2.272-6.316Z"
    clip-rule="evenodd" />
  <path fill="#000"
    d="M10.82 13.934a1.94 1.94 0 0 1-.179-2.923l6.443-6.338a.675.675 0 0 1 1.06.814l-4.454 7.864a1.94 1.94 0 0 1-2.87.583Z" />
</svg>