<svg xmlns="http://www.w3.org/2000/svg" width="25" height="24" fill="none" viewBox="0 0 25 24">
  <path fill="#000" d="M23.002 5.43h-2.086V0h-3v5.43H15.83a1 1 0 0 0-.707 1.706l3.586 3.586a1 1 0 0 0 1.414 0l3.586-3.586a1 1 0 0 0-.707-1.707Z"/>
  <path fill="#000" fill-rule="evenodd" d="M0 18.5a5.5 5.5 0 1 1 11 0 5.5 5.5 0 0 1-11 0ZM5.5 22a3.5 3.5 0 1 0 0-7 3.5 3.5 0 0 0 0 7ZM0 5.5a5.5 5.5 0 1 1 11 0 5.5 5.5 0 0 1-11 0ZM5.5 9a3.5 3.5 0 1 0 0-7 3.5 3.5 0 0 0 0 7Z" clip-rule="evenodd"/>
  <path fill="#000" d="M23.002 18.57h-2.086V24h-3v-5.43H15.83a1 1 0 0 1-.707-1.707l3.586-3.586a1 1 0 0 1 1.414 0l3.586 3.586a1 1 0 0 1-.707 1.707Z"/>
</svg>
