<svg xmlns="http://www.w3.org/2000/svg" width="24" height="24" fill="none" viewBox="0 0 24 24">
  <path fill="#000" fill-rule="evenodd" d="M0 5.5a5.5 5.5 0 1 0 11 0 5.5 5.5 0 0 0-11 0ZM5.5 9a3.5 3.5 0 1 0 0-7 3.5 3.5 0 0 0 0 7ZM13 5.5a5.5 5.5 0 1 0 11 0 5.5 5.5 0 0 0-11 0ZM18.5 9a3.5 3.5 0 1 0 0-7 3.5 3.5 0 0 0 0 7ZM0 18.5A5.5 5.5 0 0 0 5.5 24a5.506 5.506 0 0 0 5.5-5.5 5.5 5.5 0 0 0-11 0ZM5.5 22a3.5 3.5 0 1 0 0-7 3.5 3.5 0 0 0 0 7Zm7.5-3.5a5.5 5.5 0 0 0 5.5 5.5 5.5 5.5 0 1 0-5.5-5.5Zm5.5 3.5a3.5 3.5 0 1 0 0-7 3.5 3.5 0 0 0 0 7Z" clip-rule="evenodd"/>
</svg>
