<svg xmlns="http://www.w3.org/2000/svg" width="24" height="24" fill="none" viewBox="0 0 24 24">
  <path fill="#000" d="M14.5 7H17v2.5a1.5 1.5 0 0 0 3 0V7h2.5a1.5 1.5 0 0 0 0-3H20V1.5a1.5 1.5 0 0 0-3 0V4h-2.5a1.5 1.5 0 0 0 0 3Z"/>
  <path fill="#000" fill-rule="evenodd" d="M0 5.5a5.5 5.5 0 1 1 11 0 5.5 5.5 0 0 1-11 0ZM5.5 9a3.5 3.5 0 1 0 0-7 3.5 3.5 0 0 0 0 7ZM0 18.5a5.5 5.5 0 1 1 11 0 5.5 5.5 0 0 1-11 0ZM5.5 22a3.5 3.5 0 1 0 0-7 3.5 3.5 0 0 0 0 7Zm7.5-3.5a5.5 5.5 0 1 1 11 0 5.5 5.5 0 0 1-11 0Zm5.5 3.5a3.5 3.5 0 1 0 0-7 3.5 3.5 0 0 0 0 7Z" clip-rule="evenodd"/>
</svg>
