<svg xmlns="http://www.w3.org/2000/svg" width="19" height="26" fill="none" viewBox="0 0 19 26">
  <path stroke="#000" stroke-linecap="round" stroke-linejoin="round" stroke-width=".972" d="M4.182 3.526h1.166m7.968 0h1.166M9.429 7.559v7.724m0-3.206s-.136.68-3.595.68m3.595-.68s.136.68 3.595.68m-3.595 2.526s-.121.68-3.206.68m3.206-.68s.121.68 3.207.68M9.429 8.87s-.158.68-4.178.68m4.178-.68s.158.68 4.178.68M1.17 1c0 4.834 2.648 4.834 2.648 4.834H7.12s1.458 0 1.458-1.409M17.688 1c0 4.834-2.648 4.834-2.648 4.834h-3.303s-1.458 0-1.458-1.409"/>
  <path stroke="#000" stroke-linecap="round" stroke-linejoin="round" stroke-width=".972" d="M16.536 5.372c.898 5.539-2.381 8.94-.583 12.85M2.3 5.372c-.898 5.539 2.381 8.94.584 12.85m6.546 1.434h7.068L17.469 25m-8.064-5.344h-7.07L1.366 25"/>
</svg>
