<svg xmlns="http://www.w3.org/2000/svg" width="24" height="24" fill="none" viewBox="0 0 24 24">
  <path stroke="#000" stroke-linecap="round" stroke-width="2"
    d="M8.518 1.87C11.335.894 16.576.44 20.621 5.413m.012-.001L20.552 2.6m.082 2.812-2.79.082" />
  <path fill="#000"
    d="M11.48 2.715c-.494.127-.87.356-1.267.76-.59.602-.808 1.138-.803 1.982 0 .435.017.554.122.857.126.37.223.554.428.822l.126.163-2.371.013-2.372.013-.293.145c-1.03.51-1.04 1.965-.017 2.505l.223.119 1.66.022c1.17.018 1.685.04 1.751.075.227.131.214-.159.236 5.15l.022 4.95.118.25c.152.334.45.62.768.738.201.08.315.093.577.08.528-.032.935-.304 1.184-.783l.104-.198.022-2.373c.018-1.793.035-2.395.079-2.47.127-.229.454-.308.66-.163.218.159.222.203.222 2.607 0 2.549-.004 2.527.34 2.913.276.304.56.44.97.466.263.014.376 0 .577-.079.319-.119.616-.404.769-.738l.118-.25.022-4.95c.021-5.309.008-5.018.236-5.15.065-.04.633-.058 1.991-.075 1.879-.022 1.905-.022 2.088-.123.288-.154.52-.387.651-.66.166-.333.175-.839.022-1.173a1.452 1.452 0 0 0-1.005-.809c-.153-.03-1.074-.048-2.7-.048h-2.471l.13-.167c.368-.466.555-1.037.555-1.7 0-.823-.227-1.368-.808-1.96-.402-.414-.777-.634-1.288-.766-.328-.083-1.053-.083-1.376.005Zm1.157.918c.367.097.656.268.896.537.673.742.673 1.819-.005 2.54-.38.404-.808.593-1.35.593-.54 0-.969-.189-1.349-.593-.677-.721-.677-1.798-.004-2.54a1.826 1.826 0 0 1 1.812-.537Zm6.806 4.725a.456.456 0 0 1 .144.54c-.114.273-.083.273-2.145.295-1.843.022-1.883.022-2.097.123a1.467 1.467 0 0 0-.803 1.01c-.035.163-.048 1.706-.048 4.998 0 3.415-.013 4.795-.048 4.874-.123.264-.533.312-.743.088l-.105-.114-.022-2.378c-.021-2.369-.021-2.382-.122-2.602-.27-.593-.917-.936-1.524-.813a1.447 1.447 0 0 0-1.027.813c-.1.22-.1.233-.122 2.602l-.022 2.378-.105.114a.457.457 0 0 1-.554.092.545.545 0 0 1-.18-.15c-.017-.039-.043-2.285-.056-4.992-.022-4.659-.026-4.936-.105-5.133-.11-.29-.454-.655-.734-.783-.227-.105-.258-.105-1.9-.127l-1.664-.022-.114-.105c-.218-.207-.174-.62.075-.743.065-.031 2.31-.049 7.001-.049 6.862-.004 6.906-.004 7.02.084Z" />
  <path stroke="#000" stroke-linecap="round" stroke-width="2"
    d="M1.867 15.528C.897 12.69.444 7.413 5.381 3.34m0-.013-2.792.082m2.792-.082.082 2.808m16.67 2.348c.971 2.837 1.423 8.116-3.514 12.188m0 .013 2.792-.082m-2.792.083-.082-2.809m-2.704 4.387c-2.827.946-8.074 1.341-12.06-3.676m-.015 0 .05 2.812m-.05-2.812 2.79-.05" />
</svg>